%
M48
M72
T01C0.0130
T02C0.0236
T03C0.0276
T04C0.0315
T05C0.0320
T06C0.0354
T07C0.0360
T08C0.0374
T09C0.0520
T10C0.0906
%
T01
X4589Y691
X7089Y691
X10089Y691
X13651Y3066
X12089Y6191
X12089Y8191
X9589Y6191
X7339Y10191
X7339Y11191
X8089Y14691
X6089Y15691
X8339Y17504
X8901Y17691
X9151Y18066
X8589Y16691
X7839Y18879
X7839Y19629
X7839Y20004
X7839Y20379
X8526Y20879
X8526Y21879
X8526Y22379
X7464Y21504
X7214Y21191
X6589Y22504
X6589Y23191
X8776Y25254
X9089Y25691
X9089Y26941
X12589Y24441
X12901Y22504
X13901Y21004
X14401Y21004
X16401Y22129
X16589Y23129
X15589Y23129
X15589Y24316
X16589Y24316
X17839Y24316
X18589Y23691
X17964Y22191
X19589Y21191
X20589Y21191
X22714Y20316
X20870Y18848
X22651Y16504
X25089Y16191
X25089Y17379
X25339Y17691
X26589Y17691
X26589Y16566
X27651Y14504
X30151Y12191
X30589Y12191
X30651Y8691
X30151Y6691
X31089Y5816
X29151Y6691
X27901Y7441
X25026Y3504
X25026Y3129
X18339Y8191
X12089Y11691
X12089Y14691
X12651Y15754
X13651Y15754
X12151Y18754
X6089Y19879
X4651Y19879
X3589Y23691
X1589Y24691
X1589Y25691
X9089Y32691
X10589Y32691
X9089Y34191
X10589Y35191
X11589Y35191
X12651Y34879
X13151Y34692
X13651Y34504
X14089Y35191
X15089Y35191
X16089Y35191
X17089Y35191
X18089Y35191
X19089Y35191
X20089Y35191
X21089Y35191
X19589Y34316
X19589Y33941
X22651Y34379
X25089Y32691
X26089Y34691
X28339Y33941
X29339Y32004
X29839Y32004
X28339Y31691
X28839Y29504
X30089Y29441
X30089Y29941
X28339Y27254
X28276Y26379
X28276Y25879
X28589Y25191
X29089Y25191
X29089Y24191
X28589Y24191
X27339Y24004
X29089Y21941
X30401Y22191
X30901Y24816
X32901Y24816
X33589Y24191
X36464Y21129
X36214Y20879
X35120Y18504
X37495Y18473
X39901Y19129
X39870Y17191
X39901Y11504
X38589Y10566
X38089Y10566
X34589Y10129
X35089Y7191
X33464Y6316
X33339Y4004
X33526Y3691
X33714Y3379
X36089Y4379
X38589Y691
X39901Y691
X39901Y1879
X32089Y15691
X32089Y17191
X30464Y17441
X30151Y19129
X27839Y19379
X24339Y23379
X23589Y23191
X22964Y24316
X23401Y24941
X23839Y25379
X23964Y28441
X27276Y27941
X27401Y26379
X30089Y26691
X33776Y30191
X33714Y31441
X35714Y32316
X36026Y32066
X37214Y32566
X37214Y33129
X37089Y31191
X36276Y27879
X38089Y27691
X39089Y27691
X34276Y27879
X29026Y37191
X28589Y38691
X27089Y38691
X25589Y38691
X25401Y38004
X19089Y37691
X15839Y33754
X12151Y30504
X14589Y27691
X14589Y26816
X15089Y25607
X18589Y25816
X19839Y26754
X19839Y27692
X6589Y39191
X3089Y39191
X25026Y14504
X3089Y12191
T02
X7401Y7691
T03
X2339Y1316
X12839Y816
T04
X12839Y3316
X2589Y3316
X22589Y23241
X22589Y25141
X18464Y29604
X18464Y30404
T05
X22089Y28191
X23089Y28191
X8206Y26359
X8206Y24399
X5846Y24399
X5846Y26359
X2089Y33629
X2089Y34629
X2089Y35629
X2089Y36629
X2089Y37629
X2089Y38629
X2651Y14941
X3651Y14941
X4651Y14941
X5651Y14941
X6651Y14941
X14089Y6191
X15089Y6191
X16089Y6191
X17089Y6191
X15089Y4191
X14089Y4191
X22596Y5711
X22596Y7671
X22596Y9774
X22596Y11734
X24956Y11734
X24956Y9774
X24956Y7671
X24956Y5711
X27339Y9191
X27339Y10191
X27339Y11191
T06
X38089Y9058
X38089Y7325
T07
X38589Y4691
X39589Y4691
X37589Y4691
X38089Y2691
X38089Y1691
X37089Y1691
X37089Y2691
X36089Y2691
X36089Y1691
X35089Y1691
X35089Y2691
X34089Y2691
X34089Y1691
X31276Y4691
X30276Y4691
X29276Y4691
X28776Y2629
X27776Y2629
X27776Y1629
X28776Y1629
X29776Y1629
X29776Y2629
X26776Y2629
X25776Y2629
X25776Y1629
X26776Y1629
X19651Y1504
X19651Y2504
X19651Y3504
X19089Y13691
X19089Y14691
X20589Y14691
X20589Y13691
X22089Y13691
X22089Y14691
X23589Y14691
X23589Y13691
X23149Y16878
X24149Y16878
X24149Y17878
X23149Y17878
X22149Y17878
X21149Y17878
X21149Y16878
X22149Y16878
X20149Y16878
X19149Y16878
X19149Y17878
X20149Y17878
X18149Y17878
X17149Y17878
X17149Y16878
X18149Y16878
X16149Y16878
X15149Y16878
X15149Y17878
X16149Y17878
X14149Y17878
X13149Y17878
X13149Y16878
X14149Y16878
X12149Y16878
X12149Y17878
X11092Y18877
X11092Y19877
X11092Y20877
X11092Y21877
X11092Y22877
X11092Y23877
X11092Y24877
X11092Y25877
X11092Y26877
X11092Y27877
X11092Y28877
X11092Y29877
X11092Y30877
X10092Y30877
X10092Y29877
X10092Y28877
X10092Y27877
X10092Y26877
X10092Y25877
X10092Y24877
X10092Y23877
X10092Y22877
X10092Y21877
X10092Y20877
X10092Y19877
X10092Y18877
X5589Y18879
X5589Y17879
X5589Y16879
X3526Y18379
X2526Y18379
X2526Y19379
X3526Y19379
X3526Y20379
X2526Y20379
X2526Y21379
X3526Y21379
X3526Y22379
X2526Y22379
X2526Y26754
X2526Y27754
X3526Y27754
X3526Y26754
X3526Y28754
X2526Y28754
X2526Y29754
X3526Y29754
X3526Y30754
X2526Y30754
X5651Y30254
X5651Y31254
X5651Y32254
X5276Y35879
X6276Y35879
X4276Y35879
X8589Y36191
X9589Y36191
X9589Y37191
X8589Y37191
X10589Y37191
X10589Y36191
X11589Y36191
X11589Y37191
X12589Y37191
X12589Y36191
X13589Y36191
X14589Y36191
X14589Y37191
X13589Y37191
X15589Y37191
X15589Y36191
X16589Y36191
X16589Y37191
X17589Y37191
X17589Y36191
X18589Y36191
X18589Y37191
X19589Y37191
X19589Y36191
X20589Y36191
X20589Y37191
X21589Y37191
X21589Y36191
X22589Y36191
X22589Y37191
X23589Y37191
X23589Y36191
X24589Y36191
X24589Y37191
X25589Y37191
X25589Y36191
X26589Y36191
X27589Y36191
X27589Y37191
X26589Y37191
X24153Y33006
X23153Y33006
X23153Y32006
X24153Y32006
X25279Y30877
X26279Y30877
X26279Y29877
X25279Y29877
X25279Y28877
X26279Y28877
X26279Y27877
X25279Y27877
X25279Y26877
X26279Y26877
X26279Y25877
X25279Y25877
X25279Y24877
X26279Y24877
X26279Y23877
X25279Y23877
X25279Y22877
X26279Y22877
X26279Y21877
X25279Y21877
X25279Y20877
X26279Y20877
X26279Y19877
X25279Y19877
X25279Y18877
X26279Y18877
X27901Y20504
X27901Y21504
X33589Y17191
X33589Y16191
X33589Y10691
X32589Y10691
X38089Y21441
X38089Y22441
X39089Y22441
X39089Y21441
X39089Y23441
X39089Y24441
X39089Y25441
X38089Y25441
X38089Y24441
X38089Y23441
X36026Y24941
X36026Y25941
X36026Y26941
X38089Y29629
X39089Y29629
X39089Y30629
X39089Y31629
X39089Y32629
X39089Y33629
X38089Y33629
X38089Y32629
X38089Y31629
X38089Y30629
X36026Y33129
X36026Y34129
X36026Y35129
X34839Y35191
X33839Y35191
X32839Y35191
X34339Y37191
X35339Y37191
X36339Y37191
X37339Y37191
X38339Y37191
X38339Y38191
X37339Y38191
X36339Y38191
X35339Y38191
X34339Y38191
X22153Y33006
X21153Y33006
X21153Y32006
X22153Y32006
X20153Y32006
X19153Y32006
X18153Y32006
X17153Y32006
X16153Y32006
X15153Y32006
X14153Y32006
X13153Y32006
X12153Y32006
X12153Y33006
X13153Y33006
X14153Y33006
X15153Y33006
X16153Y33006
X17153Y33006
X18153Y33006
X19153Y33006
X20153Y33006
X17589Y14691
X17589Y13691
X16089Y13691
X16089Y14691
X14589Y14691
X14589Y13691
T08
X35334Y13485
X35334Y14273
X35334Y15257
X35334Y12501
T09
X17079Y1691
X15099Y1691
T10
X36401Y11292
X36401Y16466
M30
