G75*
G70*
%OFA0B0*%
%FSLAX24Y24*%
%IPPOS*%
%LPD*%
%AMOC8*
5,1,8,0,0,1.08239X$1,22.5*
%
%ADD10C,0.0000*%
%ADD11C,0.0160*%
%ADD12C,0.0060*%
%ADD13C,0.0030*%
%ADD14C,0.0040*%
%ADD15C,0.0100*%
%ADD16C,0.0050*%
%ADD17C,0.0080*%
%ADD18R,0.0300X0.0340*%
%ADD19R,0.1083X0.0043*%
%ADD20R,0.0217X0.0043*%
%ADD21R,0.0346X0.0043*%
%ADD22R,0.0390X0.0043*%
%ADD23R,0.0909X0.0043*%
%ADD24R,0.0260X0.0043*%
%ADD25R,0.0303X0.0043*%
%ADD26R,0.0953X0.0043*%
%ADD27R,0.0173X0.0043*%
%ADD28R,0.0693X0.0043*%
%ADD29R,0.0130X0.0043*%
%ADD30R,0.0650X0.0043*%
%ADD31R,0.0087X0.0043*%
%ADD32R,0.0476X0.0043*%
%ADD33R,0.0043X0.0043*%
%ADD34R,0.0520X0.0043*%
%ADD35R,0.0563X0.0043*%
%ADD36R,0.0866X0.0043*%
%ADD37R,0.0823X0.0043*%
%ADD38R,0.0996X0.0043*%
%ADD39R,0.0780X0.0043*%
%ADD40R,0.0736X0.0043*%
%ADD41R,0.1039X0.0043*%
%ADD42R,0.0606X0.0043*%
%ADD43R,0.1169X0.0043*%
%ADD44R,0.1256X0.0043*%
%ADD45R,0.1386X0.0043*%
%ADD46R,0.1429X0.0043*%
%ADD47R,0.3681X0.0043*%
%ADD48R,0.1646X0.0043*%
%ADD49R,0.1516X0.0043*%
%ADD50R,0.1472X0.0043*%
%ADD51R,0.1299X0.0043*%
%ADD52R,0.1343X0.0043*%
%ADD53R,0.1213X0.0043*%
%ADD54R,0.1126X0.0043*%
%ADD55R,0.0220X0.0055*%
%ADD56R,0.0165X0.0055*%
%ADD57R,0.0110X0.0055*%
%ADD58R,0.0827X0.0055*%
%ADD59R,0.0717X0.0055*%
%ADD60R,0.0276X0.0055*%
%ADD61R,0.0386X0.0055*%
%ADD62R,0.0441X0.0055*%
%ADD63R,0.0331X0.0055*%
%ADD64R,0.0606X0.0055*%
%ADD65R,0.0551X0.0055*%
%ADD66R,0.1400X0.0010*%
%ADD67R,0.0020X0.0010*%
%ADD68R,0.0010X0.0010*%
%ADD69R,0.0030X0.0010*%
%ADD70R,0.0040X0.0010*%
%ADD71R,0.0080X0.0010*%
%ADD72R,0.0110X0.0010*%
%ADD73R,0.0050X0.0010*%
%ADD74R,0.0340X0.0010*%
%ADD75R,0.0060X0.0010*%
%ADD76R,0.0190X0.0010*%
%ADD77R,0.0200X0.0010*%
%ADD78R,0.0180X0.0010*%
%ADD79R,0.0630X0.0010*%
%ADD80R,0.0640X0.0010*%
%ADD81R,0.0650X0.0010*%
%ADD82R,0.0600X0.0010*%
%ADD83R,0.0140X0.0010*%
%ADD84R,0.0160X0.0010*%
%ADD85R,0.0270X0.0010*%
%ADD86R,0.0878X0.0014*%
%ADD87R,0.1252X0.0014*%
%ADD88R,0.1540X0.0014*%
%ADD89R,0.1785X0.0014*%
%ADD90R,0.1986X0.0014*%
%ADD91R,0.2188X0.0014*%
%ADD92R,0.2375X0.0014*%
%ADD93R,0.2533X0.0014*%
%ADD94R,0.2663X0.0014*%
%ADD95R,0.0835X0.0014*%
%ADD96R,0.1108X0.0014*%
%ADD97R,0.0748X0.0014*%
%ADD98R,0.1008X0.0014*%
%ADD99R,0.0720X0.0014*%
%ADD100R,0.0921X0.0014*%
%ADD101R,0.0676X0.0014*%
%ADD102R,0.0892X0.0014*%
%ADD103R,0.0633X0.0014*%
%ADD104R,0.0835X0.0014*%
%ADD105R,0.0590X0.0014*%
%ADD106R,0.0792X0.0014*%
%ADD107R,0.0576X0.0014*%
%ADD108R,0.0561X0.0014*%
%ADD109R,0.0734X0.0014*%
%ADD110R,0.0547X0.0014*%
%ADD111R,0.0734X0.0014*%
%ADD112R,0.0533X0.0014*%
%ADD113R,0.0705X0.0014*%
%ADD114R,0.0504X0.0014*%
%ADD115R,0.0489X0.0014*%
%ADD116R,0.0662X0.0014*%
%ADD117R,0.0475X0.0014*%
%ADD118R,0.0648X0.0014*%
%ADD119R,0.0461X0.0014*%
%ADD120R,0.0648X0.0014*%
%ADD121R,0.0461X0.0014*%
%ADD122R,0.0619X0.0014*%
%ADD123R,0.0446X0.0014*%
%ADD124R,0.0605X0.0014*%
%ADD125R,0.0432X0.0014*%
%ADD126R,0.0417X0.0014*%
%ADD127R,0.0605X0.0014*%
%ADD128R,0.0417X0.0014*%
%ADD129R,0.0331X0.0014*%
%ADD130R,0.0489X0.0014*%
%ADD131R,0.0590X0.0014*%
%ADD132R,0.0403X0.0014*%
%ADD133R,0.0691X0.0014*%
%ADD134R,0.0561X0.0014*%
%ADD135R,0.0389X0.0014*%
%ADD136R,0.0748X0.0014*%
%ADD137R,0.0561X0.0014*%
%ADD138R,0.0389X0.0014*%
%ADD139R,0.0806X0.0014*%
%ADD140R,0.0374X0.0014*%
%ADD141R,0.0864X0.0014*%
%ADD142R,0.0547X0.0014*%
%ADD143R,0.0374X0.0014*%
%ADD144R,0.0907X0.0014*%
%ADD145R,0.0533X0.0014*%
%ADD146R,0.0360X0.0014*%
%ADD147R,0.0950X0.0014*%
%ADD148R,0.0533X0.0014*%
%ADD149R,0.0360X0.0014*%
%ADD150R,0.0993X0.0014*%
%ADD151R,0.0518X0.0014*%
%ADD152R,0.1036X0.0014*%
%ADD153R,0.0518X0.0014*%
%ADD154R,0.0345X0.0014*%
%ADD155R,0.1065X0.0014*%
%ADD156R,0.0345X0.0014*%
%ADD157R,0.1137X0.0014*%
%ADD158R,0.1166X0.0014*%
%ADD159R,0.0504X0.0014*%
%ADD160R,0.1209X0.0014*%
%ADD161R,0.0331X0.0014*%
%ADD162R,0.1238X0.0014*%
%ADD163R,0.1267X0.0014*%
%ADD164R,0.1295X0.0014*%
%ADD165R,0.0302X0.0014*%
%ADD166R,0.1324X0.0014*%
%ADD167R,0.0317X0.0014*%
%ADD168R,0.1339X0.0014*%
%ADD169R,0.0489X0.0014*%
%ADD170R,0.0317X0.0014*%
%ADD171R,0.1367X0.0014*%
%ADD172R,0.0302X0.0014*%
%ADD173R,0.1396X0.0014*%
%ADD174R,0.0475X0.0014*%
%ADD175R,0.1425X0.0014*%
%ADD176R,0.0475X0.0014*%
%ADD177R,0.0288X0.0014*%
%ADD178R,0.1439X0.0014*%
%ADD179R,0.1468X0.0014*%
%ADD180R,0.1497X0.0014*%
%ADD181R,0.0288X0.0014*%
%ADD182R,0.1497X0.0014*%
%ADD183R,0.1526X0.0014*%
%ADD184R,0.0461X0.0014*%
%ADD185R,0.1540X0.0014*%
%ADD186R,0.0273X0.0014*%
%ADD187R,0.0417X0.0014*%
%ADD188R,0.0979X0.0014*%
%ADD189R,0.0274X0.0014*%
%ADD190R,0.0907X0.0014*%
%ADD191R,0.0446X0.0014*%
%ADD192R,0.0274X0.0014*%
%ADD193R,0.0849X0.0014*%
%ADD194R,0.0806X0.0014*%
%ADD195R,0.0446X0.0014*%
%ADD196R,0.0259X0.0014*%
%ADD197R,0.0777X0.0014*%
%ADD198R,0.0446X0.0014*%
%ADD199R,0.0317X0.0014*%
%ADD200R,0.0259X0.0014*%
%ADD201R,0.0317X0.0014*%
%ADD202R,0.0705X0.0014*%
%ADD203R,0.0259X0.0014*%
%ADD204R,0.0677X0.0014*%
%ADD205R,0.0662X0.0014*%
%ADD206R,0.0633X0.0014*%
%ADD207R,0.0259X0.0014*%
%ADD208R,0.0245X0.0014*%
%ADD209R,0.0331X0.0014*%
%ADD210R,0.0245X0.0014*%
%ADD211R,0.0576X0.0014*%
%ADD212R,0.0432X0.0014*%
%ADD213R,0.0245X0.0014*%
%ADD214R,0.0561X0.0014*%
%ADD215R,0.0216X0.0014*%
%ADD216R,0.0230X0.0014*%
%ADD217R,0.0374X0.0014*%
%ADD218R,0.0518X0.0014*%
%ADD219R,0.0230X0.0014*%
%ADD220R,0.0417X0.0014*%
%ADD221R,0.0518X0.0014*%
%ADD222R,0.0130X0.0014*%
%ADD223R,0.0187X0.0014*%
%ADD224R,0.0201X0.0014*%
%ADD225R,0.0619X0.0014*%
%ADD226R,0.0130X0.0014*%
%ADD227R,0.0691X0.0014*%
%ADD228R,0.0216X0.0014*%
%ADD229R,0.0749X0.0014*%
%ADD230R,0.0763X0.0014*%
%ADD231R,0.0820X0.0014*%
%ADD232R,0.0835X0.0014*%
%ADD233R,0.0201X0.0014*%
%ADD234R,0.0864X0.0014*%
%ADD235R,0.0892X0.0014*%
%ADD236R,0.0907X0.0014*%
%ADD237R,0.0936X0.0014*%
%ADD238R,0.0374X0.0014*%
%ADD239R,0.0950X0.0014*%
%ADD240R,0.0403X0.0014*%
%ADD241R,0.0202X0.0014*%
%ADD242R,0.0964X0.0014*%
%ADD243R,0.0403X0.0014*%
%ADD244R,0.0979X0.0014*%
%ADD245R,0.1022X0.0014*%
%ADD246R,0.0331X0.0014*%
%ADD247R,0.0345X0.0014*%
%ADD248R,0.1051X0.0014*%
%ADD249R,0.0475X0.0014*%
%ADD250R,0.0547X0.0014*%
%ADD251R,0.0489X0.0014*%
%ADD252R,0.0403X0.0014*%
%ADD253R,0.0187X0.0014*%
%ADD254R,0.0345X0.0014*%
%ADD255R,0.0187X0.0014*%
%ADD256R,0.0547X0.0014*%
%ADD257R,0.0389X0.0014*%
%ADD258R,0.0302X0.0014*%
%ADD259R,0.0173X0.0014*%
%ADD260R,0.0619X0.0014*%
%ADD261R,0.0590X0.0014*%
%ADD262R,0.0633X0.0014*%
%ADD263R,0.0173X0.0014*%
%ADD264R,0.0461X0.0014*%
%ADD265R,0.0273X0.0014*%
%ADD266R,0.0302X0.0014*%
%ADD267R,0.0173X0.0014*%
%ADD268R,0.0605X0.0014*%
%ADD269R,0.0173X0.0014*%
%ADD270R,0.0662X0.0014*%
%ADD271R,0.0662X0.0014*%
%ADD272R,0.0158X0.0014*%
%ADD273R,0.0158X0.0014*%
%ADD274R,0.0130X0.0014*%
%ADD275R,0.0115X0.0014*%
%ADD276R,0.0086X0.0014*%
%ADD277R,0.0158X0.0014*%
%ADD278R,0.0676X0.0014*%
%ADD279R,0.0158X0.0014*%
%ADD280R,0.0677X0.0014*%
%ADD281R,0.0230X0.0014*%
%ADD282R,0.0590X0.0014*%
%ADD283R,0.0144X0.0014*%
%ADD284R,0.0705X0.0014*%
%ADD285R,0.0144X0.0014*%
%ADD286R,0.0705X0.0014*%
%ADD287R,0.0734X0.0014*%
%ADD288R,0.0720X0.0014*%
%ADD289R,0.0202X0.0014*%
%ADD290R,0.0734X0.0014*%
%ADD291R,0.0749X0.0014*%
%ADD292R,0.0892X0.0014*%
%ADD293R,0.0763X0.0014*%
%ADD294R,0.0936X0.0014*%
%ADD295R,0.0605X0.0014*%
%ADD296R,0.0763X0.0014*%
%ADD297R,0.1267X0.0014*%
%ADD298R,0.0777X0.0014*%
%ADD299R,0.1267X0.0014*%
%ADD300R,0.0792X0.0014*%
%ADD301R,0.2361X0.0014*%
%ADD302R,0.2346X0.0014*%
%ADD303R,0.0806X0.0014*%
%ADD304R,0.2317X0.0014*%
%ADD305R,0.0619X0.0014*%
%ADD306R,0.2303X0.0014*%
%ADD307R,0.2274X0.0014*%
%ADD308R,0.0820X0.0014*%
%ADD309R,0.2260X0.0014*%
%ADD310R,0.2231X0.0014*%
%ADD311R,0.0130X0.0014*%
%ADD312R,0.0633X0.0014*%
%ADD313R,0.2217X0.0014*%
%ADD314R,0.2188X0.0014*%
%ADD315R,0.2145X0.0014*%
%ADD316R,0.0849X0.0014*%
%ADD317R,0.2130X0.0014*%
%ADD318R,0.2087X0.0014*%
%ADD319R,0.2058X0.0014*%
%ADD320R,0.2030X0.0014*%
%ADD321R,0.1986X0.0014*%
%ADD322R,0.1943X0.0014*%
%ADD323R,0.1900X0.0014*%
%ADD324R,0.0115X0.0014*%
%ADD325R,0.0043X0.0014*%
%ADD326R,0.1857X0.0014*%
%ADD327R,0.0086X0.0014*%
%ADD328R,0.1814X0.0014*%
%ADD329R,0.0849X0.0014*%
%ADD330R,0.1770X0.0014*%
%ADD331R,0.1713X0.0014*%
%ADD332R,0.1670X0.0014*%
%ADD333R,0.1612X0.0014*%
%ADD334R,0.0230X0.0014*%
%ADD335R,0.1555X0.0014*%
%ADD336R,0.1497X0.0014*%
%ADD337R,0.1454X0.0014*%
%ADD338R,0.1382X0.0014*%
%ADD339R,0.0835X0.0014*%
%ADD340R,0.1310X0.0014*%
%ADD341R,0.1223X0.0014*%
%ADD342R,0.1151X0.0014*%
%ADD343R,0.1065X0.0014*%
%ADD344R,0.0820X0.0014*%
%ADD345R,0.0849X0.0014*%
%ADD346R,0.0806X0.0014*%
%ADD347R,0.0878X0.0014*%
%ADD348R,0.0187X0.0014*%
%ADD349R,0.0979X0.0014*%
%ADD350R,0.1367X0.0014*%
%ADD351R,0.0533X0.0014*%
%ADD352R,0.1353X0.0014*%
%ADD353R,0.1339X0.0014*%
%ADD354R,0.1324X0.0014*%
%ADD355R,0.1281X0.0014*%
%ADD356R,0.1252X0.0014*%
%ADD357R,0.1223X0.0014*%
%ADD358R,0.1195X0.0014*%
%ADD359R,0.1180X0.0014*%
%ADD360R,0.0921X0.0014*%
%ADD361R,0.0964X0.0014*%
%ADD362R,0.1094X0.0014*%
%ADD363R,0.1209X0.0014*%
%ADD364R,0.1281X0.0014*%
%ADD365R,0.1008X0.0014*%
%ADD366R,0.1339X0.0014*%
%ADD367R,0.1123X0.0014*%
%ADD368R,0.1238X0.0014*%
%ADD369R,0.1555X0.0014*%
%ADD370R,0.3526X0.0014*%
%ADD371R,0.3411X0.0014*%
%ADD372R,0.3325X0.0014*%
%ADD373R,0.3210X0.0014*%
%ADD374R,0.3095X0.0014*%
%ADD375R,0.2994X0.0014*%
%ADD376R,0.2864X0.0014*%
%ADD377R,0.2720X0.0014*%
%ADD378R,0.2576X0.0014*%
%ADD379R,0.2447X0.0014*%
%ADD380R,0.2317X0.0014*%
%ADD381R,0.2116X0.0014*%
%ADD382R,0.1914X0.0014*%
%ADD383R,0.1742X0.0014*%
%ADD384R,0.1511X0.0014*%
%ADD385R,0.4902X0.0005*%
%ADD386R,0.4911X0.0005*%
%ADD387R,0.4921X0.0005*%
%ADD388R,0.3317X0.0005*%
%ADD389R,0.0763X0.0005*%
%ADD390R,0.0827X0.0005*%
%ADD391R,0.3283X0.0005*%
%ADD392R,0.0694X0.0005*%
%ADD393R,0.0787X0.0005*%
%ADD394R,0.1855X0.0005*%
%ADD395R,0.0172X0.0005*%
%ADD396R,0.0659X0.0005*%
%ADD397R,0.0108X0.0005*%
%ADD398R,0.0118X0.0005*%
%ADD399R,0.0664X0.0005*%
%ADD400R,0.0059X0.0005*%
%ADD401R,0.0138X0.0005*%
%ADD402R,0.0448X0.0005*%
%ADD403R,0.0157X0.0005*%
%ADD404R,0.0108X0.0005*%
%ADD405R,0.0640X0.0005*%
%ADD406R,0.0054X0.0005*%
%ADD407R,0.0148X0.0005*%
%ADD408R,0.0103X0.0005*%
%ADD409R,0.0098X0.0005*%
%ADD410R,0.0620X0.0005*%
%ADD411R,0.0044X0.0005*%
%ADD412R,0.0133X0.0005*%
%ADD413R,0.0094X0.0005*%
%ADD414R,0.0610X0.0005*%
%ADD415R,0.0128X0.0005*%
%ADD416R,0.0453X0.0005*%
%ADD417R,0.0089X0.0005*%
%ADD418R,0.0600X0.0005*%
%ADD419R,0.0039X0.0005*%
%ADD420R,0.0093X0.0005*%
%ADD421R,0.0084X0.0005*%
%ADD422R,0.0591X0.0005*%
%ADD423R,0.0034X0.0005*%
%ADD424R,0.0123X0.0005*%
%ADD425R,0.0458X0.0005*%
%ADD426R,0.0812X0.0005*%
%ADD427R,0.0005X0.0005*%
%ADD428R,0.0950X0.0005*%
%ADD429R,0.0079X0.0005*%
%ADD430R,0.0581X0.0005*%
%ADD431R,0.0118X0.0005*%
%ADD432R,0.0758X0.0005*%
%ADD433R,0.0906X0.0005*%
%ADD434R,0.0074X0.0005*%
%ADD435R,0.0571X0.0005*%
%ADD436R,0.0030X0.0005*%
%ADD437R,0.0728X0.0005*%
%ADD438R,0.0871X0.0005*%
%ADD439R,0.0084X0.0005*%
%ADD440R,0.0069X0.0005*%
%ADD441R,0.0566X0.0005*%
%ADD442R,0.0113X0.0005*%
%ADD443R,0.0463X0.0005*%
%ADD444R,0.0704X0.0005*%
%ADD445R,0.0846X0.0005*%
%ADD446R,0.0113X0.0005*%
%ADD447R,0.0064X0.0005*%
%ADD448R,0.0561X0.0005*%
%ADD449R,0.0030X0.0005*%
%ADD450R,0.0684X0.0005*%
%ADD451R,0.0827X0.0005*%
%ADD452R,0.0059X0.0005*%
%ADD453R,0.0059X0.0005*%
%ADD454R,0.0556X0.0005*%
%ADD455R,0.0084X0.0005*%
%ADD456R,0.0103X0.0005*%
%ADD457R,0.0664X0.0005*%
%ADD458R,0.0807X0.0005*%
%ADD459R,0.0079X0.0005*%
%ADD460R,0.0551X0.0005*%
%ADD461R,0.0468X0.0005*%
%ADD462R,0.0645X0.0005*%
%ADD463R,0.0792X0.0005*%
%ADD464R,0.0089X0.0005*%
%ADD465R,0.0546X0.0005*%
%ADD466R,0.0630X0.0005*%
%ADD467R,0.0773X0.0005*%
%ADD468R,0.0069X0.0005*%
%ADD469R,0.0472X0.0005*%
%ADD470R,0.0615X0.0005*%
%ADD471R,0.0758X0.0005*%
%ADD472R,0.0049X0.0005*%
%ADD473R,0.0103X0.0005*%
%ADD474R,0.0605X0.0005*%
%ADD475R,0.0748X0.0005*%
%ADD476R,0.0541X0.0005*%
%ADD477R,0.0591X0.0005*%
%ADD478R,0.0733X0.0005*%
%ADD479R,0.0477X0.0005*%
%ADD480R,0.0576X0.0005*%
%ADD481R,0.0718X0.0005*%
%ADD482R,0.0566X0.0005*%
%ADD483R,0.0709X0.0005*%
%ADD484R,0.0556X0.0005*%
%ADD485R,0.0699X0.0005*%
%ADD486R,0.0689X0.0005*%
%ADD487R,0.0044X0.0005*%
%ADD488R,0.0482X0.0005*%
%ADD489R,0.0546X0.0005*%
%ADD490R,0.0689X0.0005*%
%ADD491R,0.0679X0.0005*%
%ADD492R,0.0536X0.0005*%
%ADD493R,0.0679X0.0005*%
%ADD494R,0.0655X0.0005*%
%ADD495R,0.0010X0.0005*%
%ADD496R,0.0861X0.0005*%
%ADD497R,0.0487X0.0005*%
%ADD498R,0.0527X0.0005*%
%ADD499R,0.0669X0.0005*%
%ADD500R,0.0108X0.0005*%
%ADD501R,0.0842X0.0005*%
%ADD502R,0.0054X0.0005*%
%ADD503R,0.0517X0.0005*%
%ADD504R,0.0650X0.0005*%
%ADD505R,0.0015X0.0005*%
%ADD506R,0.0822X0.0005*%
%ADD507R,0.0507X0.0005*%
%ADD508R,0.0650X0.0005*%
%ADD509R,0.0645X0.0005*%
%ADD510R,0.0492X0.0005*%
%ADD511R,0.0497X0.0005*%
%ADD512R,0.0640X0.0005*%
%ADD513R,0.0020X0.0005*%
%ADD514R,0.0792X0.0005*%
%ADD515R,0.0492X0.0005*%
%ADD516R,0.0630X0.0005*%
%ADD517R,0.0113X0.0005*%
%ADD518R,0.0025X0.0005*%
%ADD519R,0.0778X0.0005*%
%ADD520R,0.0482X0.0005*%
%ADD521R,0.0625X0.0005*%
%ADD522R,0.0768X0.0005*%
%ADD523R,0.0497X0.0005*%
%ADD524R,0.0472X0.0005*%
%ADD525R,0.0615X0.0005*%
%ADD526R,0.0635X0.0005*%
%ADD527R,0.0468X0.0005*%
%ADD528R,0.0630X0.0005*%
%ADD529R,0.0020X0.0005*%
%ADD530R,0.0502X0.0005*%
%ADD531R,0.0600X0.0005*%
%ADD532R,0.0753X0.0005*%
%ADD533R,0.0448X0.0005*%
%ADD534R,0.0591X0.0005*%
%ADD535R,0.0625X0.0005*%
%ADD536R,0.0748X0.0005*%
%ADD537R,0.0443X0.0005*%
%ADD538R,0.0586X0.0005*%
%ADD539R,0.0743X0.0005*%
%ADD540R,0.0438X0.0005*%
%ADD541R,0.0581X0.0005*%
%ADD542R,0.0167X0.0005*%
%ADD543R,0.0428X0.0005*%
%ADD544R,0.0571X0.0005*%
%ADD545R,0.0005X0.0005*%
%ADD546R,0.0615X0.0005*%
%ADD547R,0.0738X0.0005*%
%ADD548R,0.0187X0.0005*%
%ADD549R,0.0423X0.0005*%
%ADD550R,0.0566X0.0005*%
%ADD551R,0.0010X0.0005*%
%ADD552R,0.0733X0.0005*%
%ADD553R,0.0207X0.0005*%
%ADD554R,0.0512X0.0005*%
%ADD555R,0.0418X0.0005*%
%ADD556R,0.0236X0.0005*%
%ADD557R,0.0133X0.0005*%
%ADD558R,0.0005X0.0005*%
%ADD559R,0.0551X0.0005*%
%ADD560R,0.0221X0.0005*%
%ADD561R,0.0408X0.0005*%
%ADD562R,0.0285X0.0005*%
%ADD563R,0.0551X0.0005*%
%ADD564R,0.0226X0.0005*%
%ADD565R,0.0517X0.0005*%
%ADD566R,0.0404X0.0005*%
%ADD567R,0.0325X0.0005*%
%ADD568R,0.0546X0.0005*%
%ADD569R,0.0399X0.0005*%
%ADD570R,0.0364X0.0005*%
%ADD571R,0.0541X0.0005*%
%ADD572R,0.0394X0.0005*%
%ADD573R,0.0399X0.0005*%
%ADD574R,0.0536X0.0005*%
%ADD575R,0.0522X0.0005*%
%ADD576R,0.0384X0.0005*%
%ADD577R,0.0423X0.0005*%
%ADD578R,0.0527X0.0005*%
%ADD579R,0.0595X0.0005*%
%ADD580R,0.0069X0.0005*%
%ADD581R,0.0379X0.0005*%
%ADD582R,0.0522X0.0005*%
%ADD583R,0.0374X0.0005*%
%ADD584R,0.0477X0.0005*%
%ADD585R,0.0517X0.0005*%
%ADD586R,0.0561X0.0005*%
%ADD587R,0.0369X0.0005*%
%ADD588R,0.0502X0.0005*%
%ADD589R,0.0586X0.0005*%
%ADD590R,0.0074X0.0005*%
%ADD591R,0.0364X0.0005*%
%ADD592R,0.0507X0.0005*%
%ADD593R,0.0531X0.0005*%
%ADD594R,0.0359X0.0005*%
%ADD595R,0.0502X0.0005*%
%ADD596R,0.0581X0.0005*%
%ADD597R,0.0034X0.0005*%
%ADD598R,0.0354X0.0005*%
%ADD599R,0.0497X0.0005*%
%ADD600R,0.0576X0.0005*%
%ADD601R,0.0349X0.0005*%
%ADD602R,0.0586X0.0005*%
%ADD603R,0.0492X0.0005*%
%ADD604R,0.0536X0.0005*%
%ADD605R,0.0345X0.0005*%
%ADD606R,0.0600X0.0005*%
%ADD607R,0.0487X0.0005*%
%ADD608R,0.0094X0.0005*%
%ADD609R,0.0595X0.0005*%
%ADD610R,0.0340X0.0005*%
%ADD611R,0.0482X0.0005*%
%ADD612R,0.0605X0.0005*%
%ADD613R,0.0335X0.0005*%
%ADD614R,0.0635X0.0005*%
%ADD615R,0.0330X0.0005*%
%ADD616R,0.0472X0.0005*%
%ADD617R,0.0143X0.0005*%
%ADD618R,0.0325X0.0005*%
%ADD619R,0.0669X0.0005*%
%ADD620R,0.0467X0.0005*%
%ADD621R,0.0153X0.0005*%
%ADD622R,0.0320X0.0005*%
%ADD623R,0.0684X0.0005*%
%ADD624R,0.0315X0.0005*%
%ADD625R,0.0704X0.0005*%
%ADD626R,0.1880X0.0005*%
%ADD627R,0.0310X0.0005*%
%ADD628R,0.0714X0.0005*%
%ADD629R,0.1900X0.0005*%
%ADD630R,0.0305X0.0005*%
%ADD631R,0.0728X0.0005*%
%ADD632R,0.3514X0.0005*%
%ADD633R,0.0300X0.0005*%
%ADD634R,0.3509X0.0005*%
%ADD635R,0.0300X0.0005*%
%ADD636R,0.0305X0.0005*%
%ADD637R,0.0295X0.0005*%
%ADD638R,0.0280X0.0005*%
%ADD639R,0.3504X0.0005*%
%ADD640R,0.0290X0.0005*%
%ADD641R,0.0266X0.0005*%
%ADD642R,0.3499X0.0005*%
%ADD643R,0.0285X0.0005*%
%ADD644R,0.0251X0.0005*%
%ADD645R,0.0256X0.0005*%
%ADD646R,0.3494X0.0005*%
%ADD647R,0.0281X0.0005*%
%ADD648R,0.0246X0.0005*%
%ADD649R,0.0241X0.0005*%
%ADD650R,0.3489X0.0005*%
%ADD651R,0.0276X0.0005*%
%ADD652R,0.0226X0.0005*%
%ADD653R,0.0231X0.0005*%
%ADD654R,0.3484X0.0005*%
%ADD655R,0.0271X0.0005*%
%ADD656R,0.0221X0.0005*%
%ADD657R,0.3479X0.0005*%
%ADD658R,0.0266X0.0005*%
%ADD659R,0.0212X0.0005*%
%ADD660R,0.0217X0.0005*%
%ADD661R,0.3474X0.0005*%
%ADD662R,0.0261X0.0005*%
%ADD663R,0.0202X0.0005*%
%ADD664R,0.0207X0.0005*%
%ADD665R,0.3469X0.0005*%
%ADD666R,0.0197X0.0005*%
%ADD667R,0.0202X0.0005*%
%ADD668R,0.3465X0.0005*%
%ADD669R,0.0192X0.0005*%
%ADD670R,0.0192X0.0005*%
%ADD671R,0.3460X0.0005*%
%ADD672R,0.0246X0.0005*%
%ADD673R,0.3455X0.0005*%
%ADD674R,0.0182X0.0005*%
%ADD675R,0.0241X0.0005*%
%ADD676R,0.3450X0.0005*%
%ADD677R,0.0236X0.0005*%
%ADD678R,0.0177X0.0005*%
%ADD679R,0.0182X0.0005*%
%ADD680R,0.3445X0.0005*%
%ADD681R,0.0231X0.0005*%
%ADD682R,0.0177X0.0005*%
%ADD683R,0.3440X0.0005*%
%ADD684R,0.3435X0.0005*%
%ADD685R,0.3430X0.0005*%
%ADD686R,0.0172X0.0005*%
%ADD687R,0.0044X0.0005*%
%ADD688R,0.0162X0.0005*%
%ADD689R,0.0162X0.0005*%
%ADD690R,0.0157X0.0005*%
%ADD691R,0.0153X0.0005*%
%ADD692R,0.0153X0.0005*%
%ADD693R,0.0148X0.0005*%
%ADD694R,0.0143X0.0005*%
%ADD695R,0.0138X0.0005*%
%ADD696R,0.0074X0.0005*%
%ADD697R,0.0138X0.0005*%
%ADD698R,0.0216X0.0005*%
%ADD699R,0.0133X0.0005*%
%ADD700R,0.0256X0.0005*%
%ADD701R,0.0290X0.0005*%
%ADD702R,0.0285X0.0005*%
%ADD703R,0.0320X0.0005*%
%ADD704R,0.0320X0.0005*%
%ADD705R,0.0344X0.0005*%
%ADD706R,0.0369X0.0005*%
%ADD707R,0.0369X0.0005*%
%ADD708R,0.0389X0.0005*%
%ADD709R,0.0394X0.0005*%
%ADD710R,0.0413X0.0005*%
%ADD711R,0.0413X0.0005*%
%ADD712R,0.0128X0.0005*%
%ADD713R,0.0433X0.0005*%
%ADD714R,0.0433X0.0005*%
%ADD715R,0.0453X0.0005*%
%ADD716R,0.0487X0.0005*%
%ADD717R,0.0527X0.0005*%
%ADD718R,0.0531X0.0005*%
%ADD719R,0.0123X0.0005*%
%ADD720R,0.0217X0.0005*%
%ADD721R,0.0197X0.0005*%
%ADD722R,0.0182X0.0005*%
%ADD723R,0.0167X0.0005*%
%ADD724R,0.0123X0.0005*%
%ADD725R,0.0162X0.0005*%
%ADD726R,0.0241X0.0005*%
%ADD727R,0.0251X0.0005*%
%ADD728R,0.0266X0.0005*%
%ADD729R,0.0143X0.0005*%
%ADD730R,0.0276X0.0005*%
%ADD731R,0.0295X0.0005*%
%ADD732R,0.0290X0.0005*%
%ADD733R,0.0118X0.0005*%
%ADD734R,0.0310X0.0005*%
%ADD735R,0.0315X0.0005*%
%ADD736R,0.0315X0.0005*%
%ADD737R,0.0128X0.0005*%
%ADD738R,0.0039X0.0005*%
%ADD739R,0.0231X0.0005*%
%ADD740R,0.0340X0.0005*%
%ADD741R,0.0349X0.0005*%
%ADD742R,0.0354X0.0005*%
%ADD743R,0.0374X0.0005*%
%ADD744R,0.0276X0.0005*%
%ADD745R,0.0089X0.0005*%
%ADD746R,0.0408X0.0005*%
%ADD747R,0.0409X0.0005*%
%ADD748R,0.0064X0.0005*%
%ADD749R,0.0281X0.0005*%
%ADD750R,0.0261X0.0005*%
%ADD751R,0.0310X0.0005*%
%ADD752R,0.0305X0.0005*%
%ADD753R,0.0236X0.0005*%
%ADD754R,0.0207X0.0005*%
%ADD755R,0.0187X0.0005*%
%ADD756R,0.0079X0.0005*%
%ADD757R,0.0271X0.0005*%
%ADD758R,0.0010X0.0005*%
%ADD759R,0.0330X0.0005*%
%ADD760R,0.0054X0.0005*%
%ADD761R,0.0271X0.0005*%
%ADD762R,0.0379X0.0005*%
%ADD763R,0.0015X0.0005*%
%ADD764R,0.0349X0.0005*%
%ADD765R,0.0197X0.0005*%
%ADD766R,0.0167X0.0005*%
%ADD767R,0.0723X0.0005*%
%ADD768R,0.0694X0.0005*%
%ADD769R,0.0158X0.0005*%
%ADD770R,0.0556X0.0005*%
%ADD771R,0.0512X0.0005*%
%ADD772R,0.0477X0.0005*%
%ADD773R,0.0463X0.0005*%
%ADD774R,0.0443X0.0005*%
%ADD775R,0.0404X0.0005*%
%ADD776R,0.0384X0.0005*%
%ADD777R,0.0359X0.0005*%
%ADD778R,0.0335X0.0005*%
%ADD779R,0.0335X0.0005*%
%ADD780R,0.0049X0.0005*%
%ADD781R,0.4892X0.0005*%
%ADD782R,0.4882X0.0005*%
%ADD783R,0.4872X0.0005*%
%ADD784R,0.4862X0.0005*%
%ADD785R,0.4852X0.0005*%
%ADD786R,0.4833X0.0005*%
%ADD787R,0.4813X0.0005*%
%ADD788R,0.4783X0.0005*%
D10*
X001089Y000191D02*
X001089Y039562D01*
X040459Y039562D01*
X040459Y000191D01*
X001089Y000191D01*
X002432Y003316D02*
X002434Y003341D01*
X002440Y003365D01*
X002449Y003387D01*
X002462Y003408D01*
X002478Y003427D01*
X002497Y003443D01*
X002518Y003456D01*
X002540Y003465D01*
X002564Y003471D01*
X002589Y003473D01*
X002614Y003471D01*
X002638Y003465D01*
X002660Y003456D01*
X002681Y003443D01*
X002700Y003427D01*
X002716Y003408D01*
X002729Y003387D01*
X002738Y003365D01*
X002744Y003341D01*
X002746Y003316D01*
X002744Y003291D01*
X002738Y003267D01*
X002729Y003245D01*
X002716Y003224D01*
X002700Y003205D01*
X002681Y003189D01*
X002660Y003176D01*
X002638Y003167D01*
X002614Y003161D01*
X002589Y003159D01*
X002564Y003161D01*
X002540Y003167D01*
X002518Y003176D01*
X002497Y003189D01*
X002478Y003205D01*
X002462Y003224D01*
X002449Y003245D01*
X002440Y003267D01*
X002434Y003291D01*
X002432Y003316D01*
X012682Y003316D02*
X012684Y003341D01*
X012690Y003365D01*
X012699Y003387D01*
X012712Y003408D01*
X012728Y003427D01*
X012747Y003443D01*
X012768Y003456D01*
X012790Y003465D01*
X012814Y003471D01*
X012839Y003473D01*
X012864Y003471D01*
X012888Y003465D01*
X012910Y003456D01*
X012931Y003443D01*
X012950Y003427D01*
X012966Y003408D01*
X012979Y003387D01*
X012988Y003365D01*
X012994Y003341D01*
X012996Y003316D01*
X012994Y003291D01*
X012988Y003267D01*
X012979Y003245D01*
X012966Y003224D01*
X012950Y003205D01*
X012931Y003189D01*
X012910Y003176D01*
X012888Y003167D01*
X012864Y003161D01*
X012839Y003159D01*
X012814Y003161D01*
X012790Y003167D01*
X012768Y003176D01*
X012747Y003189D01*
X012728Y003205D01*
X012712Y003224D01*
X012699Y003245D01*
X012690Y003267D01*
X012684Y003291D01*
X012682Y003316D01*
X035948Y011292D02*
X035950Y011334D01*
X035956Y011376D01*
X035966Y011418D01*
X035979Y011458D01*
X035997Y011497D01*
X036018Y011534D01*
X036042Y011568D01*
X036070Y011601D01*
X036100Y011631D01*
X036133Y011657D01*
X036168Y011681D01*
X036206Y011701D01*
X036245Y011717D01*
X036285Y011730D01*
X036327Y011739D01*
X036369Y011744D01*
X036412Y011745D01*
X036454Y011742D01*
X036496Y011735D01*
X036537Y011724D01*
X036577Y011709D01*
X036615Y011691D01*
X036652Y011669D01*
X036686Y011644D01*
X036718Y011616D01*
X036746Y011585D01*
X036772Y011551D01*
X036795Y011515D01*
X036814Y011478D01*
X036830Y011438D01*
X036842Y011397D01*
X036850Y011356D01*
X036854Y011313D01*
X036854Y011271D01*
X036850Y011228D01*
X036842Y011187D01*
X036830Y011146D01*
X036814Y011106D01*
X036795Y011069D01*
X036772Y011033D01*
X036746Y010999D01*
X036718Y010968D01*
X036686Y010940D01*
X036652Y010915D01*
X036615Y010893D01*
X036577Y010875D01*
X036537Y010860D01*
X036496Y010849D01*
X036454Y010842D01*
X036412Y010839D01*
X036369Y010840D01*
X036327Y010845D01*
X036285Y010854D01*
X036245Y010867D01*
X036206Y010883D01*
X036168Y010903D01*
X036133Y010927D01*
X036100Y010953D01*
X036070Y010983D01*
X036042Y011016D01*
X036018Y011050D01*
X035997Y011087D01*
X035979Y011126D01*
X035966Y011166D01*
X035956Y011208D01*
X035950Y011250D01*
X035948Y011292D01*
X037912Y009058D02*
X037914Y009084D01*
X037920Y009110D01*
X037930Y009135D01*
X037943Y009158D01*
X037959Y009178D01*
X037979Y009196D01*
X038001Y009211D01*
X038024Y009223D01*
X038050Y009231D01*
X038076Y009235D01*
X038102Y009235D01*
X038128Y009231D01*
X038154Y009223D01*
X038178Y009211D01*
X038199Y009196D01*
X038219Y009178D01*
X038235Y009158D01*
X038248Y009135D01*
X038258Y009110D01*
X038264Y009084D01*
X038266Y009058D01*
X038264Y009032D01*
X038258Y009006D01*
X038248Y008981D01*
X038235Y008958D01*
X038219Y008938D01*
X038199Y008920D01*
X038177Y008905D01*
X038154Y008893D01*
X038128Y008885D01*
X038102Y008881D01*
X038076Y008881D01*
X038050Y008885D01*
X038024Y008893D01*
X038000Y008905D01*
X037979Y008920D01*
X037959Y008938D01*
X037943Y008958D01*
X037930Y008981D01*
X037920Y009006D01*
X037914Y009032D01*
X037912Y009058D01*
X037912Y007325D02*
X037914Y007351D01*
X037920Y007377D01*
X037930Y007402D01*
X037943Y007425D01*
X037959Y007445D01*
X037979Y007463D01*
X038001Y007478D01*
X038024Y007490D01*
X038050Y007498D01*
X038076Y007502D01*
X038102Y007502D01*
X038128Y007498D01*
X038154Y007490D01*
X038178Y007478D01*
X038199Y007463D01*
X038219Y007445D01*
X038235Y007425D01*
X038248Y007402D01*
X038258Y007377D01*
X038264Y007351D01*
X038266Y007325D01*
X038264Y007299D01*
X038258Y007273D01*
X038248Y007248D01*
X038235Y007225D01*
X038219Y007205D01*
X038199Y007187D01*
X038177Y007172D01*
X038154Y007160D01*
X038128Y007152D01*
X038102Y007148D01*
X038076Y007148D01*
X038050Y007152D01*
X038024Y007160D01*
X038000Y007172D01*
X037979Y007187D01*
X037959Y007205D01*
X037943Y007225D01*
X037930Y007248D01*
X037920Y007273D01*
X037914Y007299D01*
X037912Y007325D01*
X035948Y016466D02*
X035950Y016508D01*
X035956Y016550D01*
X035966Y016592D01*
X035979Y016632D01*
X035997Y016671D01*
X036018Y016708D01*
X036042Y016742D01*
X036070Y016775D01*
X036100Y016805D01*
X036133Y016831D01*
X036168Y016855D01*
X036206Y016875D01*
X036245Y016891D01*
X036285Y016904D01*
X036327Y016913D01*
X036369Y016918D01*
X036412Y016919D01*
X036454Y016916D01*
X036496Y016909D01*
X036537Y016898D01*
X036577Y016883D01*
X036615Y016865D01*
X036652Y016843D01*
X036686Y016818D01*
X036718Y016790D01*
X036746Y016759D01*
X036772Y016725D01*
X036795Y016689D01*
X036814Y016652D01*
X036830Y016612D01*
X036842Y016571D01*
X036850Y016530D01*
X036854Y016487D01*
X036854Y016445D01*
X036850Y016402D01*
X036842Y016361D01*
X036830Y016320D01*
X036814Y016280D01*
X036795Y016243D01*
X036772Y016207D01*
X036746Y016173D01*
X036718Y016142D01*
X036686Y016114D01*
X036652Y016089D01*
X036615Y016067D01*
X036577Y016049D01*
X036537Y016034D01*
X036496Y016023D01*
X036454Y016016D01*
X036412Y016013D01*
X036369Y016014D01*
X036327Y016019D01*
X036285Y016028D01*
X036245Y016041D01*
X036206Y016057D01*
X036168Y016077D01*
X036133Y016101D01*
X036100Y016127D01*
X036070Y016157D01*
X036042Y016190D01*
X036018Y016224D01*
X035997Y016261D01*
X035979Y016300D01*
X035966Y016340D01*
X035956Y016382D01*
X035950Y016424D01*
X035948Y016466D01*
D11*
X040151Y000504D02*
X040151Y039254D01*
X001339Y039254D01*
X001339Y000504D01*
X001401Y000504D02*
X013276Y000504D01*
X018901Y000504D01*
X040151Y000504D01*
D12*
X022246Y007034D02*
X022246Y007501D01*
X022129Y007501D01*
X022013Y007384D01*
X021896Y007501D01*
X021779Y007384D01*
X021779Y007034D01*
X021546Y007034D02*
X021313Y007034D01*
X021430Y007034D02*
X021430Y007501D01*
X021546Y007501D01*
X021430Y007735D02*
X021430Y007851D01*
X021080Y007384D02*
X021080Y007151D01*
X020963Y007034D01*
X020613Y007034D01*
X020380Y007034D02*
X020380Y007501D01*
X020613Y007501D02*
X020963Y007501D01*
X021080Y007384D01*
X020380Y007268D02*
X020146Y007501D01*
X020030Y007501D01*
X019797Y007384D02*
X019797Y007151D01*
X019680Y007034D01*
X019447Y007034D01*
X019330Y007151D01*
X019330Y007384D01*
X019447Y007501D01*
X019680Y007501D01*
X019797Y007384D01*
X019097Y007384D02*
X018980Y007501D01*
X018630Y007501D01*
X018397Y007384D02*
X017930Y007384D01*
X017698Y007384D02*
X017581Y007501D01*
X017231Y007501D01*
X017231Y007735D02*
X017231Y007034D01*
X017581Y007034D01*
X017698Y007151D01*
X017698Y007384D01*
X016998Y007384D02*
X016881Y007501D01*
X016648Y007501D01*
X016531Y007384D01*
X016531Y007268D01*
X016998Y007268D01*
X016998Y007384D02*
X016998Y007151D01*
X016881Y007034D01*
X016648Y007034D01*
X016298Y007034D02*
X015948Y007034D01*
X015831Y007151D01*
X015948Y007268D01*
X016181Y007268D01*
X016298Y007384D01*
X016181Y007501D01*
X015831Y007501D01*
X015598Y007501D02*
X015482Y007501D01*
X015482Y007034D01*
X015598Y007034D02*
X015365Y007034D01*
X015132Y007151D02*
X015015Y007034D01*
X014665Y007034D01*
X014665Y006917D02*
X014665Y007501D01*
X015015Y007501D01*
X015132Y007384D01*
X015132Y007151D01*
X014898Y006801D02*
X014781Y006801D01*
X014665Y006917D01*
X014432Y007034D02*
X014432Y007501D01*
X014082Y007501D01*
X013965Y007384D01*
X013965Y007034D01*
X013732Y007034D02*
X013382Y007034D01*
X013265Y007151D01*
X013382Y007268D01*
X013616Y007268D01*
X013732Y007384D01*
X013616Y007501D01*
X013265Y007501D01*
X015482Y007735D02*
X015482Y007851D01*
X018630Y007151D02*
X018747Y007268D01*
X018980Y007268D01*
X019097Y007384D01*
X019097Y007034D02*
X018747Y007034D01*
X018630Y007151D01*
X022013Y007034D02*
X022013Y007384D01*
X018512Y002555D02*
X018512Y002088D01*
X018746Y002322D02*
X018279Y002322D01*
X013809Y002447D02*
X013341Y002447D01*
D13*
X011016Y008044D02*
X010770Y008044D01*
X010708Y008106D01*
X010708Y008229D01*
X010770Y008291D01*
X010708Y008412D02*
X010708Y008659D01*
X010708Y008536D02*
X011078Y008536D01*
X010955Y008412D01*
X011016Y008291D02*
X011078Y008229D01*
X011078Y008106D01*
X011016Y008044D01*
X010893Y008781D02*
X010893Y009027D01*
X010708Y008966D02*
X011078Y008966D01*
X010893Y008781D01*
X009094Y008876D02*
X009094Y009123D01*
X009033Y009123D01*
X008786Y008876D01*
X008724Y008876D01*
X008724Y008754D02*
X008724Y008507D01*
X008724Y008631D02*
X009094Y008631D01*
X008971Y008507D01*
X009033Y008386D02*
X009094Y008324D01*
X009094Y008201D01*
X009033Y008139D01*
X008786Y008139D01*
X008724Y008201D01*
X008724Y008324D01*
X008786Y008386D01*
X007454Y006840D02*
X007392Y006840D01*
X007331Y006778D01*
X007269Y006840D01*
X007207Y006840D01*
X007145Y006778D01*
X007145Y006655D01*
X007207Y006593D01*
X007145Y006472D02*
X007145Y006225D01*
X007145Y006348D02*
X007516Y006348D01*
X007392Y006225D01*
X007454Y006103D02*
X007516Y006042D01*
X007516Y005918D01*
X007454Y005857D01*
X007207Y005857D01*
X007145Y005918D01*
X007145Y006042D01*
X007207Y006103D01*
X007454Y006593D02*
X007516Y006655D01*
X007516Y006778D01*
X007454Y006840D01*
X007331Y006778D02*
X007331Y006717D01*
X022400Y021202D02*
X022400Y021572D01*
X022585Y021387D01*
X022338Y021387D01*
X022707Y021264D02*
X022768Y021202D01*
X022892Y021202D01*
X022953Y021264D01*
X022953Y021511D01*
X022892Y021572D01*
X022768Y021572D01*
X022707Y021511D01*
X019594Y024201D02*
X019594Y024324D01*
X019533Y024386D01*
X019471Y024507D02*
X019594Y024631D01*
X019224Y024631D01*
X019224Y024754D02*
X019224Y024507D01*
X019286Y024386D02*
X019224Y024324D01*
X019224Y024201D01*
X019286Y024139D01*
X019533Y024139D01*
X019594Y024201D01*
X019533Y024876D02*
X019286Y024876D01*
X019533Y025123D01*
X019286Y025123D01*
X019224Y025061D01*
X019224Y024937D01*
X019286Y024876D01*
X019533Y024876D02*
X019594Y024937D01*
X019594Y025061D01*
X019533Y025123D01*
X018392Y023635D02*
X018453Y023573D01*
X018453Y023326D01*
X018392Y023265D01*
X018268Y023265D01*
X018207Y023326D01*
X018085Y023326D02*
X018023Y023265D01*
X017900Y023265D01*
X017838Y023326D01*
X017838Y023573D01*
X017900Y023635D01*
X018023Y023635D01*
X018085Y023573D01*
X018085Y023511D01*
X018023Y023450D01*
X017838Y023450D01*
X018207Y023573D02*
X018268Y023635D01*
X018392Y023635D01*
X016532Y023443D02*
X016532Y023319D01*
X016470Y023257D01*
X016408Y023257D01*
X016347Y023319D01*
X016347Y023443D01*
X016285Y023504D01*
X016223Y023504D01*
X016162Y023443D01*
X016162Y023319D01*
X016223Y023257D01*
X016285Y023257D01*
X016347Y023319D01*
X016347Y023443D02*
X016408Y023504D01*
X016470Y023504D01*
X016532Y023443D01*
X016470Y023136D02*
X016532Y023074D01*
X016532Y022951D01*
X016470Y022889D01*
X016223Y022889D01*
X016162Y022951D01*
X016162Y023074D01*
X016223Y023136D01*
X016180Y024311D02*
X015933Y024311D01*
X016057Y024311D02*
X016057Y024681D01*
X016180Y024558D01*
X016302Y024619D02*
X016363Y024681D01*
X016487Y024681D01*
X016549Y024619D01*
X016549Y024373D01*
X016487Y024311D01*
X016363Y024311D01*
X016302Y024373D01*
X015812Y024373D02*
X015812Y024434D01*
X015750Y024496D01*
X015627Y024496D01*
X015565Y024434D01*
X015565Y024373D01*
X015627Y024311D01*
X015750Y024311D01*
X015812Y024373D01*
X015750Y024496D02*
X015812Y024558D01*
X015812Y024619D01*
X015750Y024681D01*
X015627Y024681D01*
X015565Y024619D01*
X015565Y024558D01*
X015627Y024496D01*
X013450Y027519D02*
X013327Y027766D01*
X013574Y027766D02*
X013450Y027519D01*
X012837Y027519D02*
X012590Y027519D01*
X012469Y027519D02*
X012407Y027519D01*
X012407Y027581D01*
X012469Y027581D01*
X012469Y027519D01*
X012284Y027519D02*
X012038Y027519D01*
X012161Y027519D02*
X012161Y027889D01*
X012284Y027766D01*
X012714Y027889D02*
X012714Y027519D01*
X012837Y027766D02*
X012714Y027889D01*
X021037Y029388D02*
X021098Y029327D01*
X021345Y029327D01*
X021407Y029388D01*
X021407Y029512D01*
X021345Y029573D01*
X021222Y029695D02*
X021222Y029880D01*
X021160Y029942D01*
X021098Y029942D01*
X021037Y029880D01*
X021037Y029757D01*
X021098Y029695D01*
X021222Y029695D01*
X021345Y029818D01*
X021407Y029942D01*
X021098Y029573D02*
X021037Y029512D01*
X021037Y029388D01*
X022338Y027197D02*
X022585Y027197D01*
X022585Y027012D01*
X022462Y027074D01*
X022400Y027074D01*
X022338Y027012D01*
X022338Y026889D01*
X022400Y026827D01*
X022523Y026827D01*
X022585Y026889D01*
X022707Y026889D02*
X022768Y026827D01*
X022892Y026827D01*
X022953Y026889D01*
X022953Y027136D01*
X022892Y027197D01*
X022768Y027197D01*
X022707Y027136D01*
X023786Y029452D02*
X023724Y029513D01*
X023724Y029637D01*
X023786Y029698D01*
X023786Y029820D02*
X023724Y029820D01*
X023786Y029820D02*
X024033Y030067D01*
X024094Y030067D01*
X024094Y029820D01*
X024033Y029698D02*
X024094Y029637D01*
X024094Y029513D01*
X024033Y029452D01*
X023786Y029452D01*
X029065Y029685D02*
X029127Y029623D01*
X029250Y029623D01*
X029312Y029685D01*
X029312Y029809D02*
X029188Y029870D01*
X029127Y029870D01*
X029065Y029809D01*
X029065Y029685D01*
X029312Y029809D02*
X029312Y029994D01*
X029065Y029994D01*
X029557Y029994D02*
X029557Y029623D01*
X029680Y029623D02*
X029433Y029623D01*
X029680Y029870D02*
X029557Y029994D01*
X029802Y029932D02*
X029863Y029994D01*
X029987Y029994D01*
X030049Y029932D01*
X030049Y029685D01*
X029987Y029623D01*
X029863Y029623D01*
X029802Y029685D01*
D14*
X030722Y036024D02*
X031029Y036024D01*
X030722Y036331D01*
X030722Y036408D01*
X030799Y036484D01*
X030952Y036484D01*
X031029Y036408D01*
X031182Y036408D02*
X031182Y036254D01*
X031259Y036177D01*
X031489Y036177D01*
X031489Y036024D02*
X031489Y036484D01*
X031259Y036484D01*
X031182Y036408D01*
X031336Y036177D02*
X031182Y036024D01*
X035699Y019453D02*
X035622Y019376D01*
X035622Y019300D01*
X035699Y019223D01*
X035852Y019223D01*
X035929Y019300D01*
X035929Y019376D01*
X035852Y019453D01*
X035699Y019453D01*
X035699Y019223D02*
X035622Y019146D01*
X035622Y019069D01*
X035699Y018993D01*
X035852Y018993D01*
X035929Y019069D01*
X035929Y019146D01*
X035852Y019223D01*
X036082Y018993D02*
X036389Y018993D01*
X036236Y018993D02*
X036236Y019453D01*
X036389Y019300D01*
X036543Y019376D02*
X036620Y019453D01*
X036850Y019453D01*
X036850Y018993D01*
X036850Y019146D02*
X036620Y019146D01*
X036543Y019223D01*
X036543Y019376D01*
X036696Y019146D02*
X036543Y018993D01*
X034492Y014939D02*
X034185Y014939D01*
X034109Y014862D01*
X034109Y014709D01*
X034185Y014632D01*
X034109Y014479D02*
X034109Y014172D01*
X034109Y014325D02*
X034569Y014325D01*
X034415Y014172D01*
X034339Y014018D02*
X034262Y013942D01*
X034262Y013711D01*
X034109Y013711D02*
X034569Y013711D01*
X034569Y013942D01*
X034492Y014018D01*
X034339Y014018D01*
X034262Y013865D02*
X034109Y014018D01*
X034415Y014632D02*
X034339Y014709D01*
X034339Y014939D01*
X034492Y014939D02*
X034569Y014862D01*
X034569Y014709D01*
X034492Y014632D01*
X034415Y014632D01*
X018569Y003833D02*
X018569Y003746D01*
X018482Y003659D01*
X018222Y003659D01*
X018222Y003486D02*
X018222Y003833D01*
X018308Y003919D01*
X018482Y003919D01*
X018569Y003833D01*
X018569Y003486D02*
X018482Y003399D01*
X018308Y003399D01*
X018222Y003486D01*
X018053Y003572D02*
X017879Y003399D01*
X017706Y003572D01*
X017706Y003919D01*
X018053Y003919D02*
X018053Y003572D01*
X017022Y003399D02*
X017022Y003919D01*
X016848Y003746D01*
X016675Y003919D01*
X016675Y003399D01*
X016506Y003486D02*
X016419Y003572D01*
X016159Y003572D01*
X016159Y003659D02*
X016159Y003399D01*
X016419Y003399D01*
X016506Y003486D01*
X016419Y003746D02*
X016246Y003746D01*
X016159Y003659D01*
X015990Y003746D02*
X015643Y003399D01*
X015990Y003399D02*
X015643Y003746D01*
X005506Y006899D02*
X005353Y006899D01*
X005429Y006899D02*
X005429Y007359D01*
X005353Y007359D02*
X005506Y007359D01*
X005199Y007283D02*
X005199Y006976D01*
X005122Y006899D01*
X004969Y006899D01*
X004892Y006976D01*
X004739Y006899D02*
X004432Y006899D01*
X004585Y006899D02*
X004585Y007359D01*
X004739Y007206D01*
X004892Y007283D02*
X004969Y007359D01*
X005122Y007359D01*
X005199Y007283D01*
X005122Y010461D02*
X004969Y010461D01*
X004892Y010538D01*
X004739Y010461D02*
X004432Y010768D01*
X004432Y010845D01*
X004509Y010922D01*
X004662Y010922D01*
X004739Y010845D01*
X004892Y010845D02*
X004969Y010922D01*
X005122Y010922D01*
X005199Y010845D01*
X005199Y010538D01*
X005122Y010461D01*
X005353Y010461D02*
X005506Y010461D01*
X005429Y010461D02*
X005429Y010922D01*
X005353Y010922D02*
X005506Y010922D01*
X004739Y010461D02*
X004432Y010461D01*
X003631Y011836D02*
X003631Y012297D01*
X003401Y012297D01*
X003324Y012220D01*
X003324Y012067D01*
X003401Y011990D01*
X003631Y011990D01*
X003478Y011990D02*
X003324Y011836D01*
X003171Y011836D02*
X003171Y011913D01*
X002864Y012220D01*
X002864Y012297D01*
X003171Y012297D01*
X006611Y026899D02*
X006765Y026899D01*
X006841Y026976D01*
X006841Y027129D02*
X006688Y027206D01*
X006611Y027206D01*
X006535Y027129D01*
X006535Y026976D01*
X006611Y026899D01*
X006841Y027129D02*
X006841Y027359D01*
X006535Y027359D01*
X007148Y027359D02*
X007148Y026899D01*
X006995Y026899D02*
X007302Y026899D01*
X007455Y026899D02*
X007609Y027052D01*
X007532Y027052D02*
X007762Y027052D01*
X007762Y026899D02*
X007762Y027359D01*
X007532Y027359D01*
X007455Y027283D01*
X007455Y027129D01*
X007532Y027052D01*
X007302Y027206D02*
X007148Y027359D01*
D15*
X013276Y004192D02*
X013276Y003129D01*
X018901Y003129D01*
X018901Y004192D01*
X013276Y004192D01*
X013276Y003129D02*
X013276Y000504D01*
X018901Y000504D02*
X018901Y003129D01*
D16*
X010588Y008004D02*
X010463Y008004D01*
X010588Y008004D02*
X010588Y009254D01*
X010463Y009254D01*
X009713Y009254D02*
X009588Y009254D01*
X009588Y008004D01*
X009713Y008004D01*
X008589Y008004D02*
X008589Y009254D01*
X008464Y009254D01*
X007714Y009254D02*
X007589Y009254D01*
X007589Y008004D01*
X007714Y008004D01*
X008464Y008004D02*
X008589Y008004D01*
X008588Y007067D02*
X008463Y007067D01*
X008588Y007067D02*
X008588Y005817D01*
X008463Y005817D01*
X007713Y005817D02*
X007588Y005817D01*
X007588Y007067D01*
X007713Y007067D01*
X003776Y010691D02*
X003776Y010816D01*
X003776Y010691D02*
X002526Y010691D01*
X002526Y010816D01*
X002526Y011566D02*
X002526Y011691D01*
X003776Y011691D01*
X003776Y011566D01*
X015089Y022566D02*
X015089Y023816D01*
X015214Y023816D01*
X015964Y023816D02*
X016089Y023816D01*
X016089Y022566D01*
X015964Y022566D01*
X015214Y022566D02*
X015089Y022566D01*
X015464Y024629D02*
X016714Y024629D01*
X016714Y024754D01*
X016714Y025504D02*
X016714Y025629D01*
X015464Y025629D01*
X015464Y025504D01*
X015464Y024754D02*
X015464Y024629D01*
X017464Y023191D02*
X017464Y023066D01*
X017464Y023191D02*
X018714Y023191D01*
X018714Y023066D01*
X018714Y022316D02*
X018714Y022191D01*
X017464Y022191D01*
X017464Y022316D01*
X018089Y024066D02*
X018089Y025316D01*
X018214Y025316D01*
X018964Y025316D02*
X019089Y025316D01*
X019089Y024066D01*
X018964Y024066D01*
X018214Y024066D02*
X018089Y024066D01*
X021964Y022691D02*
X021964Y022566D01*
X021964Y022691D02*
X023214Y022691D01*
X023214Y022566D01*
X023214Y021816D02*
X023214Y021691D01*
X021964Y021691D01*
X021964Y021816D01*
X021964Y025691D02*
X021964Y025816D01*
X021964Y025691D02*
X023214Y025691D01*
X023214Y025816D01*
X023214Y026566D02*
X023214Y026691D01*
X021964Y026691D01*
X021964Y026566D01*
X021714Y029066D02*
X021589Y029066D01*
X021589Y030316D01*
X021714Y030316D01*
X022464Y030316D02*
X022589Y030316D01*
X022714Y030316D01*
X022589Y030316D02*
X022589Y029066D01*
X022714Y029066D01*
X022589Y029066D02*
X022589Y030316D01*
X023464Y030316D02*
X023589Y030316D01*
X023589Y029066D01*
X023464Y029066D01*
X022589Y029066D02*
X022464Y029066D01*
X028964Y030191D02*
X030214Y030191D01*
X030214Y030316D01*
X030214Y031066D02*
X030214Y031191D01*
X028964Y031191D01*
X028964Y031066D01*
X028964Y030316D02*
X028964Y030191D01*
X028964Y035691D02*
X030214Y035691D01*
X030214Y035816D01*
X030214Y036566D02*
X030214Y036691D01*
X028964Y036691D01*
X028964Y036566D01*
X028964Y035816D02*
X028964Y035691D01*
X035745Y018973D02*
X035745Y018848D01*
X035745Y018973D02*
X036995Y018973D01*
X036995Y018848D01*
X036995Y018098D02*
X036995Y017973D01*
X035745Y017973D01*
X035745Y018098D01*
X034089Y014816D02*
X033964Y014816D01*
X034089Y014816D02*
X034089Y013566D01*
X033964Y013566D01*
X033214Y013566D02*
X033089Y013566D01*
X033089Y014816D01*
X033214Y014816D01*
X007651Y027504D02*
X007651Y027629D01*
X007651Y027504D02*
X006401Y027504D01*
X006401Y027629D01*
X006401Y028379D02*
X006401Y028504D01*
X007651Y028504D01*
X007651Y028379D01*
D17*
X004939Y010232D02*
X002579Y010231D01*
X004939Y010232D02*
X004939Y007651D01*
X002579Y007651D01*
X002579Y006669D02*
X004939Y006669D01*
X004939Y004089D01*
X002579Y004089D01*
D18*
X005129Y005379D03*
X005129Y008941D03*
D19*
X031048Y021050D03*
X031048Y021093D03*
X033647Y019881D03*
X033647Y019837D03*
X033647Y019794D03*
X033647Y019751D03*
X033647Y019707D03*
X033647Y019664D03*
X033647Y019621D03*
X033647Y019577D03*
X033647Y019534D03*
X033647Y019491D03*
X033647Y018278D03*
D20*
X034080Y018408D03*
X033214Y018451D03*
X032694Y018451D03*
X032694Y018408D03*
X032694Y018365D03*
X032694Y018321D03*
X032694Y018278D03*
X032694Y018495D03*
X032694Y018538D03*
X032694Y018581D03*
X032694Y018625D03*
X032694Y018668D03*
X032694Y018711D03*
X032694Y018755D03*
X032694Y018798D03*
X032694Y018841D03*
X032694Y018884D03*
X032694Y018928D03*
X032694Y018971D03*
X032694Y019014D03*
X032694Y019058D03*
X032694Y019101D03*
X032694Y019144D03*
X032694Y019188D03*
X033084Y019144D03*
X032347Y019707D03*
X032131Y019188D03*
X032131Y019144D03*
X032131Y019101D03*
X032131Y019058D03*
X032131Y019014D03*
X032131Y018971D03*
X032131Y018668D03*
X032131Y018625D03*
X032131Y018581D03*
X032131Y018538D03*
X032131Y018495D03*
X032131Y018451D03*
X032131Y018408D03*
X032131Y018365D03*
X032131Y018321D03*
X032131Y018278D03*
X031438Y018451D03*
X031438Y018495D03*
X031438Y018538D03*
X031438Y018581D03*
X031481Y018668D03*
X031178Y018668D03*
X031178Y018711D03*
X031178Y018755D03*
X031178Y018798D03*
X031178Y018841D03*
X031178Y018884D03*
X031178Y018928D03*
X031178Y018971D03*
X031178Y019014D03*
X031178Y019058D03*
X031178Y019101D03*
X031178Y019144D03*
X031178Y019188D03*
X031178Y019231D03*
X031178Y019274D03*
X031178Y019318D03*
X031178Y019361D03*
X031481Y019188D03*
X031438Y019101D03*
X031438Y019058D03*
X031438Y019014D03*
X031178Y018625D03*
X031178Y018581D03*
X031178Y018538D03*
X034080Y019361D03*
D21*
X033625Y019231D03*
X034015Y018321D03*
D22*
X033647Y018581D03*
X033300Y018321D03*
X033647Y019188D03*
X033993Y019447D03*
X033300Y019447D03*
D23*
X032261Y019794D03*
X031005Y019837D03*
X031048Y018321D03*
D24*
X031460Y018625D03*
X031503Y018711D03*
X031460Y018971D03*
X031460Y019144D03*
X032109Y018711D03*
X033235Y018408D03*
X033625Y018538D03*
X034058Y018365D03*
X034058Y019404D03*
X033235Y019404D03*
D25*
X033040Y019188D03*
X033257Y018365D03*
D26*
X031070Y018365D03*
X031070Y018408D03*
X030983Y021440D03*
X030983Y021483D03*
X030983Y021526D03*
X030983Y021569D03*
X030983Y021613D03*
X030983Y021656D03*
X030983Y021699D03*
X030983Y021743D03*
X030983Y021786D03*
X030983Y021829D03*
X030983Y021873D03*
X030983Y021916D03*
X030983Y021959D03*
X030983Y022003D03*
X030983Y022046D03*
X030983Y022089D03*
X030983Y022132D03*
X030983Y022176D03*
X030983Y022219D03*
X030983Y022262D03*
X030983Y022306D03*
X030983Y022349D03*
X030983Y022392D03*
X030983Y022436D03*
X030983Y022479D03*
X030983Y022522D03*
X030983Y022566D03*
X030983Y022609D03*
X030983Y022652D03*
X030983Y022695D03*
X030983Y022739D03*
X030983Y022782D03*
X030983Y022825D03*
X030983Y022869D03*
X030983Y022912D03*
X030983Y022955D03*
X030983Y022999D03*
X030983Y023042D03*
X030983Y023085D03*
X030983Y023129D03*
X030983Y023172D03*
X030983Y023215D03*
X030983Y023258D03*
X030983Y023302D03*
X030983Y023345D03*
X030983Y023388D03*
X030983Y023432D03*
X030983Y023475D03*
X030983Y023518D03*
X030983Y023562D03*
X030983Y023605D03*
D27*
X033105Y019101D03*
X033625Y019274D03*
X034101Y019318D03*
X034101Y018451D03*
X033192Y018495D03*
D28*
X030940Y018451D03*
D29*
X033170Y018538D03*
X033170Y018581D03*
X034123Y018538D03*
X034123Y018495D03*
X034123Y019231D03*
X034123Y019274D03*
D30*
X030962Y018495D03*
D31*
X033149Y018625D03*
X033149Y018668D03*
X033149Y018711D03*
X033149Y018755D03*
X034145Y018668D03*
X034145Y018625D03*
X034145Y018581D03*
X034145Y019144D03*
X034145Y019188D03*
D32*
X033647Y019144D03*
X033647Y019101D03*
X033647Y018668D03*
X033647Y018625D03*
D33*
X034166Y018711D03*
X034166Y018755D03*
X034166Y018798D03*
X034166Y018841D03*
X034166Y018884D03*
X034166Y018928D03*
X034166Y018971D03*
X034166Y019014D03*
X034166Y019058D03*
X034166Y019101D03*
D34*
X033668Y018711D03*
D35*
X033647Y018755D03*
D36*
X031806Y018755D03*
X031806Y018798D03*
X031806Y018884D03*
X031806Y018928D03*
D37*
X031828Y018841D03*
X031784Y019231D03*
X033517Y019058D03*
X033517Y019014D03*
X033517Y018971D03*
X033517Y018928D03*
X033517Y018884D03*
X033517Y018841D03*
X033517Y018798D03*
D38*
X032737Y019231D03*
X032737Y019274D03*
X032780Y019318D03*
X031005Y019881D03*
X031005Y019924D03*
X031005Y019967D03*
X031005Y020010D03*
X031005Y021266D03*
X031005Y021310D03*
X031005Y021353D03*
X031005Y021396D03*
D39*
X031806Y019274D03*
D40*
X031828Y019318D03*
X032261Y019751D03*
D41*
X032239Y019837D03*
X032802Y019361D03*
X031026Y021136D03*
X031026Y021180D03*
X031026Y021223D03*
D42*
X031893Y019361D03*
D43*
X032261Y019881D03*
X033603Y019924D03*
X033603Y019967D03*
X033603Y020010D03*
X033603Y021050D03*
X033603Y021093D03*
X033603Y021136D03*
X033603Y021180D03*
X031091Y020920D03*
X031091Y020877D03*
D44*
X031135Y020790D03*
X032261Y019924D03*
X033560Y020920D03*
D45*
X033495Y020747D03*
X032239Y019967D03*
X031200Y020703D03*
D46*
X032261Y020010D03*
D47*
X032347Y020054D03*
X032347Y020097D03*
X032347Y020140D03*
X032347Y020184D03*
X032347Y020227D03*
X032347Y020270D03*
X032347Y020314D03*
X032347Y020357D03*
X032347Y020400D03*
X032347Y020444D03*
X032347Y020487D03*
X032347Y020530D03*
X032347Y020573D03*
D48*
X031330Y020617D03*
X033365Y020617D03*
D49*
X033430Y020660D03*
D50*
X033452Y020703D03*
X031243Y020660D03*
D51*
X031156Y020747D03*
X033538Y020833D03*
X033538Y020877D03*
D52*
X033517Y020790D03*
D53*
X033582Y020963D03*
X033582Y021006D03*
X031113Y020833D03*
D54*
X031070Y020963D03*
X031070Y021006D03*
X033625Y021223D03*
X033625Y021266D03*
X033625Y021310D03*
X033625Y021353D03*
X033625Y021396D03*
X033625Y021440D03*
X033625Y021483D03*
X033625Y021526D03*
X033625Y021569D03*
X033625Y021613D03*
X033625Y021656D03*
X033625Y021699D03*
X033625Y021743D03*
X033625Y021786D03*
X033625Y021829D03*
X033625Y021873D03*
X033625Y021916D03*
X033625Y021959D03*
X033625Y022003D03*
X033625Y022046D03*
X033625Y022089D03*
X033625Y022132D03*
X033625Y022176D03*
X033625Y022219D03*
X033625Y022262D03*
X033625Y022306D03*
X033625Y022349D03*
X033625Y022392D03*
X033625Y022436D03*
X033625Y022479D03*
X033625Y022522D03*
X033625Y022566D03*
X033625Y022609D03*
X033625Y022652D03*
X033625Y022695D03*
X033625Y022739D03*
X033625Y022782D03*
X033625Y022825D03*
X033625Y022869D03*
X033625Y022912D03*
X033625Y022955D03*
X033625Y022999D03*
X033625Y023042D03*
X033625Y023085D03*
X033625Y023129D03*
X033625Y023172D03*
X033625Y023215D03*
X033625Y023258D03*
X033625Y023302D03*
X033625Y023345D03*
X033625Y023388D03*
X033625Y023432D03*
X033625Y023475D03*
X033625Y023518D03*
X033625Y023562D03*
X033625Y023605D03*
X033625Y023648D03*
X033625Y023692D03*
X033625Y023735D03*
X033625Y023778D03*
X033625Y023821D03*
D55*
X019052Y027655D03*
X018776Y028096D03*
X018721Y028371D03*
X018170Y028371D03*
X018225Y027930D03*
X017619Y028096D03*
X017398Y028261D03*
X017012Y027489D03*
X015359Y027985D03*
X015249Y028040D03*
X015083Y028096D03*
X014973Y027655D03*
X014477Y028371D03*
X014091Y027599D03*
X013926Y027544D03*
D56*
X014119Y027820D03*
X014064Y027875D03*
X014009Y028371D03*
X014560Y028316D03*
X014615Y028261D03*
X014890Y027875D03*
X014890Y027710D03*
X015662Y027655D03*
X015938Y028096D03*
X016048Y028040D03*
X016158Y027985D03*
X016489Y028151D03*
X016489Y028206D03*
X016489Y028261D03*
X016489Y028316D03*
X015938Y028316D03*
X015883Y028261D03*
X015552Y028261D03*
X016544Y027765D03*
X016930Y027544D03*
X017150Y027544D03*
X017205Y027599D03*
X017261Y027655D03*
X017316Y027710D03*
X017481Y027930D03*
X017646Y027985D03*
X017646Y028040D03*
X017481Y028206D03*
X017150Y027930D03*
X017095Y027985D03*
X017040Y028040D03*
X017701Y027765D03*
X017701Y027710D03*
X017701Y027655D03*
X017701Y027599D03*
X018087Y027710D03*
X018087Y027875D03*
X018859Y028151D03*
X018859Y028316D03*
D57*
X018886Y028261D03*
X018886Y028206D03*
X019107Y027820D03*
X019162Y027765D03*
X019162Y027710D03*
X018335Y028481D03*
X018060Y027820D03*
X018060Y027765D03*
X017674Y027820D03*
X017674Y027875D03*
X017674Y027930D03*
X017674Y028206D03*
X017674Y028261D03*
X017674Y028316D03*
X017674Y028371D03*
X017674Y028426D03*
X017729Y028481D03*
X017729Y028536D03*
X017674Y028592D03*
X017729Y028647D03*
X017012Y028261D03*
X016957Y028206D03*
X016957Y028151D03*
X017012Y028096D03*
X017343Y027765D03*
X017398Y027820D03*
X016847Y027655D03*
X016847Y027599D03*
X016516Y027599D03*
X016516Y027655D03*
X016516Y027710D03*
X016516Y027820D03*
X016516Y027985D03*
X016516Y028040D03*
X016516Y028096D03*
X016461Y028371D03*
X015855Y028206D03*
X015855Y028151D03*
X015579Y028206D03*
X015579Y027710D03*
X014863Y027765D03*
X014863Y027820D03*
X014642Y027655D03*
X014201Y027765D03*
X013981Y027930D03*
X013926Y027985D03*
X013871Y028040D03*
X013871Y028096D03*
X013871Y028151D03*
X013871Y028206D03*
X013871Y028261D03*
X013926Y028316D03*
X014918Y028261D03*
X014918Y028206D03*
X014973Y028151D03*
X016461Y027544D03*
D58*
X018638Y027599D03*
D59*
X015386Y027599D03*
D60*
X014560Y027599D03*
X016103Y028371D03*
X016544Y027875D03*
X017591Y028151D03*
X018253Y027655D03*
X018418Y027985D03*
X018583Y028040D03*
D61*
X017205Y028316D03*
X016379Y027930D03*
X014284Y027655D03*
D62*
X014422Y027710D03*
X014257Y028426D03*
X015138Y027930D03*
X016516Y028481D03*
D63*
X016627Y028426D03*
X016241Y028426D03*
X017343Y027875D03*
D64*
X015221Y028316D03*
D65*
X018390Y028426D03*
D66*
X007264Y002031D03*
X007264Y002031D03*
X007264Y002021D03*
X007264Y002021D03*
X007264Y002011D03*
X007264Y002011D03*
X007264Y002001D03*
X007264Y002001D03*
X007264Y001991D03*
X007264Y001991D03*
X007264Y001981D03*
X007264Y001981D03*
X007264Y001971D03*
X007264Y001971D03*
X007264Y001961D03*
X007264Y001961D03*
X007264Y001951D03*
X007264Y001951D03*
X007264Y001941D03*
X007264Y001941D03*
X007264Y001931D03*
X007264Y001931D03*
X007264Y001921D03*
X007264Y001921D03*
X007264Y001911D03*
X007264Y001911D03*
X007264Y001901D03*
X007264Y001901D03*
X007264Y001891D03*
X007264Y001891D03*
X007264Y001881D03*
X007264Y001881D03*
X007264Y001871D03*
X007264Y001871D03*
X007264Y001861D03*
X007264Y001861D03*
X007264Y001851D03*
X007264Y001851D03*
X007264Y001841D03*
X007264Y001841D03*
X007264Y001831D03*
X007264Y001831D03*
X007264Y001821D03*
X007264Y001821D03*
X007264Y001811D03*
X007264Y001811D03*
D67*
X006704Y002381D03*
X006704Y002381D03*
X006694Y002371D03*
X006694Y002371D03*
X006684Y002361D03*
X006684Y002361D03*
X006674Y002351D03*
X006674Y002351D03*
X006664Y002341D03*
X006664Y002341D03*
X006654Y002331D03*
X006654Y002331D03*
X006644Y002321D03*
X006644Y002321D03*
X006634Y002311D03*
X006634Y002311D03*
X006624Y002301D03*
X006624Y002301D03*
X006614Y002291D03*
X006614Y002291D03*
X006604Y002281D03*
X006604Y002281D03*
X006594Y002271D03*
X006594Y002271D03*
X006584Y002261D03*
X006584Y002261D03*
X006574Y002251D03*
X006574Y002251D03*
X006564Y002241D03*
X006564Y002241D03*
X006554Y002231D03*
X006554Y002231D03*
X006714Y002391D03*
X006714Y002391D03*
X006724Y002401D03*
X006724Y002401D03*
X006734Y002411D03*
X006734Y002411D03*
X006744Y002421D03*
X006744Y002421D03*
X006754Y002431D03*
X006754Y002431D03*
X006764Y002441D03*
X006764Y002441D03*
X006774Y002451D03*
X006774Y002451D03*
X006784Y002461D03*
X006784Y002461D03*
X006794Y002471D03*
X006794Y002471D03*
X006804Y002481D03*
X006804Y002481D03*
X007054Y002601D03*
X007054Y002601D03*
X007054Y002611D03*
X007054Y002611D03*
X007054Y002621D03*
X007054Y002621D03*
X007084Y002541D03*
X007084Y002541D03*
X007084Y002481D03*
X007084Y002481D03*
X007034Y002801D03*
X007034Y002801D03*
X007034Y002811D03*
X007034Y002811D03*
X007034Y002821D03*
X007034Y002821D03*
X007024Y002901D03*
X007024Y002901D03*
X007024Y002911D03*
X007024Y002911D03*
X007024Y002921D03*
X007024Y002921D03*
X007014Y003001D03*
X007014Y003001D03*
X007014Y003011D03*
X007014Y003011D03*
X007014Y003021D03*
X007014Y003021D03*
X007004Y003101D03*
X007004Y003101D03*
X007004Y003111D03*
X007004Y003111D03*
X007004Y003121D03*
X007004Y003121D03*
X007044Y003151D03*
X007044Y003151D03*
X007054Y003141D03*
X007054Y003141D03*
X007064Y003131D03*
X007064Y003131D03*
X007074Y003121D03*
X007074Y003121D03*
X007084Y003111D03*
X007084Y003111D03*
X007094Y003101D03*
X007094Y003101D03*
X007104Y003091D03*
X007104Y003091D03*
X007114Y003081D03*
X007114Y003081D03*
X007144Y003051D03*
X007144Y003051D03*
X007154Y003041D03*
X007154Y003041D03*
X007164Y003031D03*
X007164Y003031D03*
X007174Y003021D03*
X007174Y003021D03*
X007184Y003011D03*
X007184Y003011D03*
X007194Y003001D03*
X007194Y003001D03*
X007204Y002991D03*
X007204Y002991D03*
X007214Y002981D03*
X007214Y002981D03*
X007224Y002971D03*
X007224Y002971D03*
X007234Y002961D03*
X007234Y002961D03*
X007244Y002951D03*
X007244Y002951D03*
X007284Y002911D03*
X007284Y002911D03*
X007294Y002901D03*
X007294Y002901D03*
X007304Y002891D03*
X007304Y002891D03*
X007314Y002881D03*
X007314Y002881D03*
X007324Y002871D03*
X007324Y002871D03*
X007334Y002861D03*
X007334Y002861D03*
X007344Y002851D03*
X007344Y002851D03*
X007354Y002841D03*
X007354Y002841D03*
X007364Y002831D03*
X007364Y002831D03*
X007374Y002821D03*
X007374Y002821D03*
X007384Y002811D03*
X007384Y002811D03*
X007394Y002801D03*
X007394Y002801D03*
X007404Y002791D03*
X007404Y002791D03*
X007414Y002781D03*
X007414Y002781D03*
X007424Y002771D03*
X007424Y002771D03*
X007434Y002761D03*
X007434Y002761D03*
X007444Y002751D03*
X007444Y002751D03*
X007454Y002741D03*
X007454Y002741D03*
X007484Y002711D03*
X007484Y002711D03*
X007514Y002681D03*
X007514Y002681D03*
X007524Y002671D03*
X007524Y002671D03*
X007534Y002661D03*
X007534Y002661D03*
X007544Y002651D03*
X007544Y002651D03*
X007554Y002641D03*
X007554Y002641D03*
X007564Y002631D03*
X007564Y002631D03*
X007574Y002621D03*
X007574Y002621D03*
X007584Y002611D03*
X007584Y002611D03*
X007594Y002601D03*
X007594Y002601D03*
X007604Y002591D03*
X007604Y002591D03*
X007614Y002581D03*
X007614Y002581D03*
X007624Y002571D03*
X007624Y002571D03*
X007634Y002561D03*
X007634Y002561D03*
X007644Y002551D03*
X007644Y002551D03*
X007654Y002541D03*
X007654Y002541D03*
X007664Y002531D03*
X007664Y002531D03*
X007674Y002521D03*
X007674Y002521D03*
X007684Y002511D03*
X007684Y002511D03*
X007694Y002501D03*
X007694Y002501D03*
X007704Y002491D03*
X007704Y002491D03*
X007714Y002481D03*
X007714Y002481D03*
X007724Y002471D03*
X007724Y002471D03*
X007734Y002461D03*
X007734Y002461D03*
X007744Y002451D03*
X007744Y002451D03*
X007754Y002441D03*
X007754Y002441D03*
X007764Y002431D03*
X007764Y002431D03*
X007774Y002421D03*
X007774Y002421D03*
X007784Y002411D03*
X007784Y002411D03*
X007794Y002401D03*
X007794Y002401D03*
X007804Y002391D03*
X007804Y002391D03*
X007814Y002381D03*
X007814Y002381D03*
X007824Y002371D03*
X007824Y002371D03*
X007834Y002361D03*
X007834Y002361D03*
X007844Y002351D03*
X007844Y002351D03*
X007854Y002341D03*
X007854Y002341D03*
X007864Y002331D03*
X007864Y002331D03*
X007974Y002221D03*
X007974Y002221D03*
X007464Y002511D03*
X007464Y002511D03*
X007464Y002521D03*
X007464Y002521D03*
X007474Y002601D03*
X007474Y002601D03*
X007474Y002611D03*
X007474Y002611D03*
X007474Y002621D03*
X007474Y002621D03*
X007494Y002801D03*
X007494Y002801D03*
X007494Y002811D03*
X007494Y002811D03*
X007494Y002821D03*
X007494Y002821D03*
X007504Y002901D03*
X007504Y002901D03*
X007504Y002911D03*
X007504Y002911D03*
X007504Y002921D03*
X007504Y002921D03*
X007514Y003001D03*
X007514Y003001D03*
X007514Y003011D03*
X007514Y003011D03*
X007514Y003021D03*
X007514Y003021D03*
X007524Y003101D03*
X007524Y003101D03*
X007524Y003111D03*
X007524Y003111D03*
X007524Y003121D03*
X007524Y003121D03*
X007324Y003371D03*
X007324Y003371D03*
X006984Y003281D03*
X006984Y003281D03*
X006934Y003261D03*
X006934Y003261D03*
X006924Y003271D03*
X006924Y003271D03*
X006914Y003281D03*
X006914Y003281D03*
X006904Y003291D03*
X006904Y003291D03*
X006894Y003301D03*
X006894Y003301D03*
X006884Y003311D03*
X006884Y003311D03*
X006874Y003321D03*
X006874Y003321D03*
X006864Y003331D03*
X006864Y003331D03*
X006854Y003341D03*
X006854Y003341D03*
X006844Y003351D03*
X006844Y003351D03*
X006834Y003361D03*
X006834Y003361D03*
X006824Y003371D03*
X006824Y003371D03*
X006814Y003381D03*
X006814Y003381D03*
X006804Y003391D03*
X006804Y003391D03*
X006794Y003401D03*
X006794Y003401D03*
X006784Y003411D03*
X006784Y003411D03*
X006774Y003421D03*
X006774Y003421D03*
X006764Y003431D03*
X006764Y003431D03*
X006754Y003441D03*
X006754Y003441D03*
X006744Y003451D03*
X006744Y003451D03*
X006734Y003461D03*
X006734Y003461D03*
X006724Y003471D03*
X006724Y003471D03*
X006714Y003481D03*
X006714Y003481D03*
X006704Y003491D03*
X006704Y003491D03*
X006694Y003501D03*
X006694Y003501D03*
X006684Y003511D03*
X006684Y003511D03*
X006674Y003521D03*
X006674Y003521D03*
X006664Y003531D03*
X006664Y003531D03*
X006654Y003541D03*
X006654Y003541D03*
X006644Y003551D03*
X006644Y003551D03*
X006634Y003561D03*
X006634Y003561D03*
X006624Y003571D03*
X006624Y003571D03*
X006614Y003581D03*
X006614Y003581D03*
X006604Y003591D03*
X006604Y003591D03*
X006594Y003601D03*
X006594Y003601D03*
X006584Y003611D03*
X006584Y003611D03*
X006574Y003621D03*
X006574Y003621D03*
X006564Y003631D03*
X006564Y003631D03*
X006554Y003641D03*
X006554Y003641D03*
X006994Y003201D03*
X006994Y003201D03*
X007004Y003191D03*
X007004Y003191D03*
X007024Y003171D03*
X007024Y003171D03*
X007034Y003161D03*
X007034Y003161D03*
X007974Y003651D03*
X007974Y003651D03*
D68*
X007579Y003311D03*
X007579Y003311D03*
X007539Y003281D03*
X007539Y003281D03*
X007539Y003271D03*
X007539Y003271D03*
X007539Y003261D03*
X007539Y003261D03*
X007539Y003251D03*
X007539Y003251D03*
X007539Y003241D03*
X007539Y003241D03*
X007529Y003171D03*
X007529Y003171D03*
X007529Y003161D03*
X007529Y003161D03*
X007529Y003151D03*
X007529Y003151D03*
X007529Y003141D03*
X007529Y003141D03*
X007529Y003131D03*
X007529Y003131D03*
X007519Y003091D03*
X007519Y003091D03*
X007519Y003081D03*
X007519Y003081D03*
X007519Y003071D03*
X007519Y003071D03*
X007519Y003061D03*
X007519Y003061D03*
X007519Y003051D03*
X007519Y003051D03*
X007519Y003041D03*
X007519Y003041D03*
X007519Y003031D03*
X007519Y003031D03*
X007509Y002991D03*
X007509Y002991D03*
X007509Y002981D03*
X007509Y002981D03*
X007509Y002971D03*
X007509Y002971D03*
X007509Y002961D03*
X007509Y002961D03*
X007509Y002951D03*
X007509Y002951D03*
X007509Y002941D03*
X007509Y002941D03*
X007509Y002931D03*
X007509Y002931D03*
X007499Y002891D03*
X007499Y002891D03*
X007499Y002881D03*
X007499Y002881D03*
X007499Y002871D03*
X007499Y002871D03*
X007499Y002861D03*
X007499Y002861D03*
X007499Y002851D03*
X007499Y002851D03*
X007499Y002841D03*
X007499Y002841D03*
X007499Y002831D03*
X007499Y002831D03*
X007489Y002791D03*
X007489Y002791D03*
X007489Y002781D03*
X007489Y002781D03*
X007489Y002771D03*
X007489Y002771D03*
X007489Y002761D03*
X007489Y002761D03*
X007489Y002751D03*
X007489Y002751D03*
X007489Y002741D03*
X007489Y002741D03*
X007479Y002681D03*
X007479Y002681D03*
X007479Y002671D03*
X007479Y002671D03*
X007479Y002661D03*
X007479Y002661D03*
X007479Y002651D03*
X007479Y002651D03*
X007479Y002641D03*
X007479Y002641D03*
X007479Y002631D03*
X007479Y002631D03*
X007469Y002591D03*
X007469Y002591D03*
X007469Y002581D03*
X007469Y002581D03*
X007469Y002571D03*
X007469Y002571D03*
X007469Y002561D03*
X007469Y002561D03*
X007469Y002551D03*
X007469Y002551D03*
X007469Y002541D03*
X007469Y002541D03*
X007469Y002531D03*
X007469Y002531D03*
X007059Y002581D03*
X007059Y002581D03*
X007059Y002591D03*
X007059Y002591D03*
X007049Y002631D03*
X007049Y002631D03*
X007049Y002641D03*
X007049Y002641D03*
X007049Y002651D03*
X007049Y002651D03*
X007049Y002661D03*
X007049Y002661D03*
X007049Y002671D03*
X007049Y002671D03*
X007049Y002681D03*
X007049Y002681D03*
X007049Y002691D03*
X007049Y002691D03*
X007039Y002741D03*
X007039Y002741D03*
X007039Y002751D03*
X007039Y002751D03*
X007039Y002761D03*
X007039Y002761D03*
X007039Y002771D03*
X007039Y002771D03*
X007039Y002781D03*
X007039Y002781D03*
X007039Y002791D03*
X007039Y002791D03*
X007029Y002831D03*
X007029Y002831D03*
X007029Y002841D03*
X007029Y002841D03*
X007029Y002851D03*
X007029Y002851D03*
X007029Y002861D03*
X007029Y002861D03*
X007029Y002871D03*
X007029Y002871D03*
X007029Y002881D03*
X007029Y002881D03*
X007029Y002891D03*
X007029Y002891D03*
X007019Y002931D03*
X007019Y002931D03*
X007019Y002941D03*
X007019Y002941D03*
X007019Y002951D03*
X007019Y002951D03*
X007019Y002961D03*
X007019Y002961D03*
X007019Y002971D03*
X007019Y002971D03*
X007019Y002981D03*
X007019Y002981D03*
X007019Y002991D03*
X007019Y002991D03*
X007009Y003031D03*
X007009Y003031D03*
X007009Y003041D03*
X007009Y003041D03*
X007009Y003051D03*
X007009Y003051D03*
X007009Y003061D03*
X007009Y003061D03*
X007009Y003071D03*
X007009Y003071D03*
X007009Y003081D03*
X007009Y003081D03*
X007009Y003091D03*
X007009Y003091D03*
X006999Y003131D03*
X006999Y003131D03*
X006999Y003141D03*
X006999Y003141D03*
X006999Y003151D03*
X006999Y003151D03*
X006999Y003161D03*
X006999Y003161D03*
X006949Y003191D03*
X006949Y003191D03*
X006949Y003201D03*
X006949Y003201D03*
X006949Y003211D03*
X006949Y003211D03*
X006949Y003221D03*
X006949Y003221D03*
X006989Y003231D03*
X006989Y003231D03*
X006989Y003261D03*
X006989Y003261D03*
X006989Y003271D03*
X006989Y003271D03*
X007539Y003341D03*
X007539Y003341D03*
X006549Y003651D03*
X006549Y003651D03*
X006549Y002221D03*
X006549Y002221D03*
D69*
X006819Y002491D03*
X006819Y002491D03*
X006829Y002501D03*
X006829Y002501D03*
X006839Y002511D03*
X006839Y002511D03*
X006849Y002521D03*
X006849Y002521D03*
X006859Y002531D03*
X006859Y002531D03*
X006869Y002541D03*
X006869Y002541D03*
X006879Y002551D03*
X006879Y002551D03*
X006889Y002561D03*
X006889Y002561D03*
X006899Y002571D03*
X006899Y002571D03*
X006909Y002581D03*
X006909Y002581D03*
X006919Y002591D03*
X006919Y002591D03*
X006929Y002601D03*
X006929Y002601D03*
X006939Y002611D03*
X006939Y002611D03*
X006949Y002621D03*
X006949Y002621D03*
X006959Y002631D03*
X006959Y002631D03*
X006969Y002641D03*
X006969Y002641D03*
X006979Y002651D03*
X006979Y002651D03*
X006989Y002661D03*
X006989Y002661D03*
X006999Y002671D03*
X006999Y002671D03*
X007009Y002681D03*
X007009Y002681D03*
X007019Y002691D03*
X007019Y002691D03*
X007039Y002711D03*
X007039Y002711D03*
X007049Y002721D03*
X007049Y002721D03*
X007069Y002741D03*
X007069Y002741D03*
X007079Y002751D03*
X007079Y002751D03*
X007089Y002761D03*
X007089Y002761D03*
X007099Y002771D03*
X007099Y002771D03*
X007109Y002781D03*
X007109Y002781D03*
X007119Y002791D03*
X007119Y002791D03*
X007129Y002801D03*
X007129Y002801D03*
X007139Y002811D03*
X007139Y002811D03*
X007149Y002821D03*
X007149Y002821D03*
X007159Y002831D03*
X007159Y002831D03*
X007169Y002841D03*
X007169Y002841D03*
X007179Y002851D03*
X007179Y002851D03*
X007189Y002861D03*
X007189Y002861D03*
X007199Y002871D03*
X007199Y002871D03*
X007209Y002881D03*
X007209Y002881D03*
X007219Y002891D03*
X007219Y002891D03*
X007229Y002901D03*
X007229Y002901D03*
X007239Y002911D03*
X007239Y002911D03*
X007259Y002931D03*
X007259Y002931D03*
X007279Y002951D03*
X007279Y002951D03*
X007289Y002961D03*
X007289Y002961D03*
X007299Y002971D03*
X007299Y002971D03*
X007309Y002981D03*
X007309Y002981D03*
X007319Y002991D03*
X007319Y002991D03*
X007329Y003001D03*
X007329Y003001D03*
X007339Y003011D03*
X007339Y003011D03*
X007349Y003021D03*
X007349Y003021D03*
X007359Y003031D03*
X007359Y003031D03*
X007369Y003041D03*
X007369Y003041D03*
X007379Y003051D03*
X007379Y003051D03*
X007389Y003061D03*
X007389Y003061D03*
X007399Y003071D03*
X007399Y003071D03*
X007409Y003081D03*
X007409Y003081D03*
X007419Y003091D03*
X007419Y003091D03*
X007429Y003101D03*
X007429Y003101D03*
X007439Y003111D03*
X007439Y003111D03*
X007449Y003121D03*
X007449Y003121D03*
X007459Y003131D03*
X007459Y003131D03*
X007469Y003141D03*
X007469Y003141D03*
X007479Y003151D03*
X007479Y003151D03*
X007489Y003161D03*
X007489Y003161D03*
X007499Y003171D03*
X007499Y003171D03*
X007519Y003191D03*
X007519Y003191D03*
X007529Y003201D03*
X007529Y003201D03*
X007539Y003211D03*
X007539Y003211D03*
X007569Y003241D03*
X007569Y003241D03*
X007579Y003251D03*
X007579Y003251D03*
X007589Y003261D03*
X007589Y003261D03*
X007599Y003271D03*
X007599Y003271D03*
X007609Y003281D03*
X007609Y003281D03*
X007619Y003291D03*
X007619Y003291D03*
X007629Y003301D03*
X007629Y003301D03*
X007639Y003311D03*
X007639Y003311D03*
X007649Y003321D03*
X007649Y003321D03*
X007659Y003331D03*
X007659Y003331D03*
X007669Y003341D03*
X007669Y003341D03*
X007679Y003351D03*
X007679Y003351D03*
X007689Y003361D03*
X007689Y003361D03*
X007699Y003371D03*
X007699Y003371D03*
X007709Y003381D03*
X007709Y003381D03*
X007719Y003391D03*
X007719Y003391D03*
X007729Y003401D03*
X007729Y003401D03*
X007739Y003411D03*
X007739Y003411D03*
X007749Y003421D03*
X007749Y003421D03*
X007759Y003431D03*
X007759Y003431D03*
X007769Y003441D03*
X007769Y003441D03*
X007779Y003451D03*
X007779Y003451D03*
X007789Y003461D03*
X007789Y003461D03*
X007799Y003471D03*
X007799Y003471D03*
X007809Y003481D03*
X007809Y003481D03*
X007819Y003491D03*
X007819Y003491D03*
X007829Y003501D03*
X007829Y003501D03*
X007839Y003511D03*
X007839Y003511D03*
X007849Y003521D03*
X007849Y003521D03*
X007859Y003531D03*
X007859Y003531D03*
X007869Y003541D03*
X007869Y003541D03*
X007879Y003551D03*
X007879Y003551D03*
X007889Y003561D03*
X007889Y003561D03*
X007899Y003571D03*
X007899Y003571D03*
X007909Y003581D03*
X007909Y003581D03*
X007919Y003591D03*
X007919Y003591D03*
X007929Y003601D03*
X007929Y003601D03*
X007939Y003611D03*
X007939Y003611D03*
X007949Y003621D03*
X007949Y003621D03*
X007959Y003631D03*
X007959Y003631D03*
X007969Y003641D03*
X007969Y003641D03*
X007529Y003351D03*
X007529Y003351D03*
X007479Y003341D03*
X007479Y003341D03*
X006989Y003211D03*
X006989Y003211D03*
X006959Y003231D03*
X006959Y003231D03*
X007089Y002581D03*
X007089Y002581D03*
X007039Y002541D03*
X007039Y002541D03*
X007029Y002521D03*
X007029Y002521D03*
X007029Y002511D03*
X007029Y002511D03*
X007029Y002501D03*
X007029Y002501D03*
X007029Y002491D03*
X007029Y002491D03*
X007039Y002481D03*
X007039Y002481D03*
X007139Y002491D03*
X007139Y002491D03*
X007149Y002511D03*
X007149Y002511D03*
X007139Y002521D03*
X007139Y002521D03*
X007139Y002531D03*
X007139Y002531D03*
X007489Y002701D03*
X007489Y002701D03*
X007479Y002721D03*
X007479Y002721D03*
X007879Y002321D03*
X007879Y002321D03*
X007889Y002311D03*
X007889Y002311D03*
X007899Y002301D03*
X007899Y002301D03*
X007909Y002291D03*
X007909Y002291D03*
X007919Y002281D03*
X007919Y002281D03*
X007929Y002271D03*
X007929Y002271D03*
X007939Y002261D03*
X007939Y002261D03*
X007949Y002251D03*
X007949Y002251D03*
X007959Y002241D03*
X007959Y002241D03*
X007969Y002231D03*
X007969Y002231D03*
D70*
X007414Y002441D03*
X007414Y002441D03*
X007414Y002451D03*
X007414Y002451D03*
X007414Y002461D03*
X007414Y002461D03*
X007414Y002471D03*
X007414Y002471D03*
X007414Y002481D03*
X007414Y002481D03*
X007494Y002691D03*
X007494Y002691D03*
X007474Y002731D03*
X007474Y002731D03*
X007264Y002941D03*
X007264Y002941D03*
X007054Y002731D03*
X007054Y002731D03*
X007034Y002701D03*
X007034Y002701D03*
X007034Y002531D03*
X007034Y002531D03*
X007084Y002491D03*
X007084Y002491D03*
X007124Y002471D03*
X007124Y002471D03*
X007134Y002481D03*
X007134Y002481D03*
X007134Y002541D03*
X007134Y002541D03*
X007084Y002441D03*
X007084Y002441D03*
X006984Y003221D03*
X006984Y003221D03*
X007474Y003351D03*
X007474Y003351D03*
X007474Y003381D03*
X007474Y003381D03*
X007474Y003391D03*
X007474Y003391D03*
X007554Y003231D03*
X007554Y003231D03*
X007544Y003221D03*
X007544Y003221D03*
X007514Y003181D03*
X007514Y003181D03*
D71*
X007494Y003361D03*
X007494Y003361D03*
X006974Y003311D03*
X006974Y003311D03*
X006984Y003181D03*
X006984Y003181D03*
X007084Y002571D03*
X007084Y002571D03*
X007084Y002451D03*
X007084Y002451D03*
D72*
X007089Y002461D03*
X007089Y002461D03*
X007089Y002561D03*
X007089Y002561D03*
D73*
X007089Y002531D03*
X007089Y002531D03*
X007119Y002551D03*
X007119Y002551D03*
X007049Y002551D03*
X007049Y002551D03*
X007049Y002471D03*
X007049Y002471D03*
X007419Y002491D03*
X007419Y002491D03*
X007259Y002921D03*
X007259Y002921D03*
X006969Y003241D03*
X006969Y003241D03*
D74*
X007294Y002501D03*
X007294Y002501D03*
D75*
X007084Y002501D03*
X007084Y002501D03*
X007084Y002511D03*
X007084Y002511D03*
X007084Y002521D03*
X007084Y002521D03*
X006974Y003171D03*
X006974Y003171D03*
X006964Y003251D03*
X006964Y003251D03*
X006974Y003341D03*
X006974Y003341D03*
X006984Y003351D03*
X006984Y003351D03*
X007034Y003361D03*
X007034Y003361D03*
D76*
X007219Y003061D03*
X007219Y003061D03*
D77*
X007214Y003071D03*
X007214Y003071D03*
D78*
X007224Y003081D03*
X007224Y003081D03*
X007224Y003091D03*
X007224Y003091D03*
D79*
X007269Y003291D03*
X007269Y003291D03*
D80*
X007264Y003301D03*
X007264Y003301D03*
D81*
X007259Y003321D03*
X007259Y003321D03*
D82*
X007244Y003331D03*
X007244Y003331D03*
D83*
X007254Y003361D03*
X007254Y003361D03*
D84*
X007124Y003371D03*
X007124Y003371D03*
X007424Y003371D03*
X007424Y003371D03*
D85*
X007279Y003381D03*
X007279Y003381D03*
D86*
X018459Y008220D03*
D87*
X018459Y008234D03*
D88*
X018459Y008248D03*
D89*
X018481Y008263D03*
D90*
X018481Y008277D03*
D91*
X018481Y008292D03*
D92*
X018488Y008306D03*
D93*
X018495Y008320D03*
D94*
X018488Y008335D03*
D95*
X019474Y008349D03*
X020841Y011343D03*
D96*
X017538Y008781D03*
X017653Y008349D03*
X016948Y012351D03*
D97*
X019416Y010523D03*
X019430Y010508D03*
X020884Y011300D03*
X019589Y008364D03*
X017128Y008435D03*
X016796Y009112D03*
D98*
X017531Y008364D03*
X018797Y009616D03*
D99*
X019560Y010350D03*
X019517Y010393D03*
X019229Y011501D03*
X016768Y009126D03*
X019675Y008378D03*
D100*
X017415Y008378D03*
D101*
X016890Y008493D03*
X017955Y010307D03*
X019682Y010191D03*
X019740Y010120D03*
X019769Y010076D03*
X020071Y010940D03*
X020057Y010954D03*
X020042Y010983D03*
X019754Y008392D03*
X015854Y011919D03*
D102*
X017343Y008392D03*
X020366Y011674D03*
D103*
X020438Y012264D03*
X019186Y011573D03*
X019934Y009846D03*
X019834Y008407D03*
D104*
X019229Y010753D03*
X019200Y010782D03*
X019344Y011329D03*
X018509Y011069D03*
X018437Y011141D03*
X017271Y008407D03*
D105*
X016530Y008608D03*
X016588Y009227D03*
X018934Y009371D03*
X019970Y009788D03*
X020546Y010263D03*
X020517Y010307D03*
X020474Y010364D03*
X020445Y010407D03*
X020416Y010451D03*
X020402Y010479D03*
X020373Y010508D03*
X020345Y010551D03*
X020618Y010163D03*
X020632Y010148D03*
X020704Y010048D03*
X020733Y010004D03*
X020776Y009932D03*
X019898Y008421D03*
D106*
X019308Y010652D03*
X019294Y010666D03*
X019308Y011386D03*
X018272Y011314D03*
X018243Y011343D03*
X017869Y010508D03*
X016257Y010623D03*
X016228Y012106D03*
X017192Y008421D03*
X020129Y012351D03*
D107*
X020524Y012235D03*
X019171Y011602D03*
X018092Y011559D03*
X016149Y010580D03*
X015443Y011631D03*
X015472Y011660D03*
X016451Y008637D03*
X019963Y008435D03*
X019977Y009760D03*
X020596Y010191D03*
X020568Y010235D03*
X020496Y010335D03*
X020467Y010379D03*
X020668Y010091D03*
X020827Y009832D03*
D108*
X020028Y008450D03*
X019164Y011616D03*
X015422Y011616D03*
D109*
X017926Y010350D03*
X017926Y010321D03*
X019466Y010465D03*
X017063Y008450D03*
D110*
X016336Y008680D03*
X015314Y011516D03*
X015328Y011530D03*
X015357Y011559D03*
X019157Y011631D03*
X020611Y012207D03*
X019992Y009731D03*
X019992Y009716D03*
X020078Y008464D03*
D111*
X019452Y010479D03*
X019236Y011487D03*
X020244Y012322D03*
X016070Y012034D03*
X016041Y012019D03*
X017005Y008464D03*
D112*
X015220Y011429D03*
X015292Y011501D03*
X019999Y009702D03*
X020848Y009774D03*
X020143Y008479D03*
X020647Y012192D03*
D113*
X019582Y010321D03*
X019610Y010278D03*
X016948Y008479D03*
X015954Y011976D03*
X016012Y012005D03*
D114*
X015148Y011343D03*
X015120Y011314D03*
X015105Y011300D03*
X015091Y011271D03*
X016444Y009328D03*
X016084Y008795D03*
X016026Y008824D03*
X015969Y008853D03*
X019135Y011660D03*
X020719Y012163D03*
X020863Y009731D03*
X020863Y009716D03*
X020201Y008493D03*
D115*
X020237Y008507D03*
X020021Y009645D03*
X020021Y009659D03*
X019013Y010004D03*
X018999Y010048D03*
X018078Y011602D03*
X016408Y009357D03*
X015947Y008867D03*
X015012Y011156D03*
X015040Y011199D03*
X015055Y011228D03*
D116*
X015803Y011890D03*
X018135Y011487D03*
X019762Y010091D03*
X019834Y010004D03*
X020093Y010911D03*
X016840Y008507D03*
D117*
X016372Y009385D03*
X015868Y008910D03*
X015796Y008954D03*
X014961Y011069D03*
X018891Y010278D03*
X018905Y010249D03*
X018919Y010206D03*
X018963Y010134D03*
X018991Y010062D03*
X019020Y009990D03*
X019020Y009961D03*
X019035Y009918D03*
X019049Y009846D03*
X019063Y009774D03*
X019063Y009745D03*
X020028Y009630D03*
X020287Y008522D03*
X020819Y012120D03*
D118*
X020129Y010854D03*
X020157Y010825D03*
X019884Y009918D03*
X019913Y009889D03*
X016789Y008522D03*
X015753Y011861D03*
D119*
X015659Y009040D03*
X018826Y010379D03*
X020337Y008536D03*
D120*
X019898Y009904D03*
X019884Y009932D03*
X019870Y009947D03*
X020143Y010839D03*
X020129Y010868D03*
X020114Y010882D03*
X020287Y011775D03*
X019193Y011559D03*
X018920Y009400D03*
X016746Y008536D03*
X015739Y011847D03*
X015782Y011876D03*
D121*
X014925Y010998D03*
X014911Y010969D03*
X015688Y009026D03*
X015746Y008982D03*
X018078Y011616D03*
X018768Y010465D03*
X018797Y010422D03*
X018812Y010393D03*
X018840Y010350D03*
X019056Y009817D03*
X020380Y008551D03*
D122*
X020229Y010710D03*
X016703Y008551D03*
X016631Y009198D03*
D123*
X016357Y009400D03*
X016329Y009429D03*
X015465Y009184D03*
X016070Y010508D03*
X014846Y010810D03*
X018660Y010623D03*
X018732Y010523D03*
X020215Y011847D03*
X020891Y012091D03*
X020431Y008565D03*
D124*
X019963Y009803D03*
X020366Y010523D03*
X020323Y010580D03*
X020294Y010623D03*
X020280Y010652D03*
X020798Y009904D03*
X020812Y009875D03*
X017977Y010436D03*
X016609Y009213D03*
X016609Y008579D03*
X016653Y008565D03*
X017761Y008637D03*
X015573Y011732D03*
X015530Y011703D03*
D125*
X014839Y010796D03*
X014825Y010738D03*
X014825Y010724D03*
X014810Y010695D03*
X014810Y010666D03*
X014810Y010652D03*
X014796Y010623D03*
X014796Y010595D03*
X014796Y010580D03*
X015256Y009371D03*
X015271Y009357D03*
X015300Y009328D03*
X015328Y009299D03*
X015343Y009285D03*
X015386Y009256D03*
X015415Y009227D03*
X015429Y009213D03*
X015501Y009155D03*
X016307Y009443D03*
X018380Y009731D03*
X018711Y010551D03*
X018682Y010595D03*
X018639Y010652D03*
X018624Y010666D03*
X018610Y010695D03*
X018581Y010724D03*
X019114Y011703D03*
X020956Y012063D03*
X020049Y009573D03*
X020481Y008579D03*
D126*
X020517Y008594D03*
X020589Y008623D03*
X020057Y009558D03*
X018358Y009745D03*
X018617Y010681D03*
X018502Y010825D03*
X019179Y011257D03*
X018070Y011645D03*
X016271Y009486D03*
X015220Y009414D03*
X015148Y009486D03*
X015120Y009529D03*
X015091Y009558D03*
X015048Y009630D03*
X014932Y009817D03*
X014803Y010206D03*
X014789Y010278D03*
X014789Y010321D03*
X014789Y010350D03*
X014789Y010422D03*
X014789Y010465D03*
X014789Y010494D03*
X014789Y010537D03*
X014789Y010566D03*
D127*
X015544Y011717D03*
X016566Y008594D03*
X020308Y010609D03*
X020755Y009961D03*
X020783Y009918D03*
X020956Y011213D03*
D128*
X021050Y011098D03*
X019179Y011242D03*
X018963Y010810D03*
X018574Y010738D03*
X018545Y010767D03*
X018531Y010796D03*
X020560Y008608D03*
X020632Y008637D03*
X015235Y009400D03*
X015192Y009443D03*
X015163Y009472D03*
X015148Y009501D03*
X015076Y009587D03*
X015004Y009688D03*
X014947Y009788D03*
X014904Y009875D03*
X014875Y009947D03*
X014861Y009976D03*
X014803Y010191D03*
X014789Y010263D03*
X014789Y010292D03*
X014789Y010307D03*
X014789Y010335D03*
X014789Y010364D03*
X014789Y010407D03*
X014789Y010436D03*
X014789Y010451D03*
X014789Y010479D03*
X014789Y010508D03*
X014789Y010523D03*
X014789Y010551D03*
D129*
X016084Y009731D03*
X017236Y010292D03*
X017322Y010163D03*
X017365Y010091D03*
X017394Y010048D03*
X017408Y010019D03*
X017437Y009976D03*
X017451Y009947D03*
X017466Y009932D03*
X017480Y009904D03*
X017509Y009860D03*
X017523Y009832D03*
X017538Y009803D03*
X017552Y009788D03*
X017581Y009731D03*
X017595Y009716D03*
X017610Y009688D03*
X017624Y009659D03*
X017653Y009616D03*
X017667Y009587D03*
X017667Y009573D03*
X017696Y009544D03*
X017725Y009472D03*
X017739Y009443D03*
X017754Y009429D03*
X017768Y009400D03*
X017797Y009328D03*
X017811Y009299D03*
X017826Y009285D03*
X017840Y009256D03*
X017912Y009083D03*
X017840Y008608D03*
X018200Y009875D03*
X019092Y011746D03*
X020057Y011415D03*
X020186Y011055D03*
X020186Y011876D03*
X021280Y011890D03*
X021136Y008867D03*
X021107Y008853D03*
X021050Y008824D03*
D130*
X020870Y009702D03*
X021014Y011141D03*
X018970Y010105D03*
X018999Y010033D03*
X017790Y008623D03*
X016422Y009342D03*
X015918Y008882D03*
X014983Y011113D03*
D131*
X015508Y011688D03*
X016804Y011141D03*
X018099Y011544D03*
X017998Y010278D03*
X016487Y008623D03*
X019970Y009774D03*
X020589Y010206D03*
X020560Y010249D03*
X020488Y010350D03*
X020402Y010465D03*
X020661Y010105D03*
X020690Y010062D03*
X020704Y010033D03*
X020733Y009990D03*
X020805Y009889D03*
D132*
X020884Y009616D03*
X020668Y008651D03*
X018308Y009788D03*
X019387Y010839D03*
X019373Y010868D03*
X019344Y010911D03*
X019287Y011012D03*
X019287Y011026D03*
X019272Y011055D03*
X019243Y011098D03*
X019229Y011127D03*
X019215Y011156D03*
X019215Y011170D03*
X019646Y011228D03*
X021014Y012034D03*
X021043Y012019D03*
X018063Y011660D03*
X015026Y009659D03*
X015055Y009616D03*
X014983Y009731D03*
X014925Y009832D03*
X014911Y009860D03*
X014882Y009932D03*
X014853Y010004D03*
X014839Y010048D03*
X014825Y010076D03*
X014825Y010091D03*
X014810Y010148D03*
X014810Y010163D03*
X014781Y010379D03*
D133*
X015904Y011948D03*
X015933Y011962D03*
X019215Y011530D03*
X020021Y011012D03*
X019603Y010292D03*
X019646Y010235D03*
X019661Y010220D03*
X019704Y010163D03*
X019718Y010148D03*
X017732Y008651D03*
D134*
X016415Y008651D03*
X018934Y009357D03*
X020258Y011804D03*
X015407Y011602D03*
D135*
X016228Y009529D03*
X018272Y009817D03*
X019380Y010854D03*
X019697Y011185D03*
X019740Y011141D03*
X020201Y011861D03*
X021064Y012005D03*
X019107Y011717D03*
X020704Y008666D03*
D136*
X019445Y010494D03*
X019243Y011473D03*
X017703Y008666D03*
D137*
X016372Y008666D03*
X017998Y010422D03*
X019985Y009745D03*
X020834Y009817D03*
X020978Y011185D03*
D138*
X019711Y011170D03*
X019682Y011199D03*
X019308Y010983D03*
X019323Y010954D03*
X019193Y011199D03*
X018099Y010191D03*
X016789Y011156D03*
X016026Y010451D03*
X016214Y009544D03*
X016242Y009515D03*
X020057Y009544D03*
X020891Y009587D03*
X020747Y008680D03*
D139*
X017674Y008680D03*
D140*
X018236Y009846D03*
X020064Y009529D03*
X020783Y008695D03*
X021071Y011069D03*
D141*
X020352Y011688D03*
X018711Y010854D03*
X018668Y010897D03*
X016825Y011113D03*
X016437Y012192D03*
X017660Y008695D03*
D142*
X016523Y009270D03*
X016307Y008695D03*
X015371Y011573D03*
D143*
X016019Y010436D03*
X016192Y009573D03*
X018250Y009832D03*
X019790Y011084D03*
X020884Y009573D03*
X020812Y008709D03*
X018063Y011674D03*
X021100Y011991D03*
D144*
X020805Y011386D03*
X017639Y008709D03*
D145*
X016271Y008709D03*
D146*
X016156Y009616D03*
X016142Y009645D03*
X016127Y009659D03*
X018214Y009860D03*
X020071Y009501D03*
X020848Y008723D03*
X020906Y008752D03*
X021179Y011948D03*
X021151Y011962D03*
D147*
X017617Y008723D03*
D148*
X016501Y009285D03*
X016242Y008723D03*
X018013Y010407D03*
X018085Y011588D03*
X020244Y011818D03*
X020992Y011170D03*
X020848Y009760D03*
X015278Y011487D03*
X015249Y011458D03*
X015235Y011444D03*
D149*
X016012Y010422D03*
X015998Y010393D03*
X016170Y009601D03*
X017898Y009054D03*
X018114Y010177D03*
X020891Y009558D03*
X020877Y008738D03*
D150*
X017595Y008738D03*
X016732Y012293D03*
D151*
X015199Y011401D03*
X015156Y011357D03*
X016134Y008766D03*
X016206Y008738D03*
X018034Y010249D03*
X018941Y009342D03*
D152*
X018783Y009645D03*
X017574Y008752D03*
X016782Y012307D03*
D153*
X015213Y011415D03*
X015170Y011372D03*
X016106Y010551D03*
X016106Y008781D03*
X016178Y008752D03*
X020683Y012178D03*
X020999Y011156D03*
D154*
X021201Y011933D03*
X021028Y008810D03*
X020942Y008766D03*
X018063Y011688D03*
X016120Y009673D03*
D155*
X017559Y008766D03*
D156*
X017905Y009069D03*
X016106Y009688D03*
X020899Y009544D03*
X020999Y008795D03*
X020971Y008781D03*
D157*
X017523Y008795D03*
D158*
X017509Y008810D03*
D159*
X019049Y009702D03*
X018042Y010393D03*
X016098Y010537D03*
X015105Y011285D03*
X015076Y011257D03*
X015048Y011213D03*
X015134Y011329D03*
X015998Y008838D03*
X016055Y008810D03*
X020013Y009673D03*
D160*
X017487Y008824D03*
D161*
X017811Y009313D03*
X017797Y009342D03*
X017768Y009385D03*
X017754Y009414D03*
X017739Y009457D03*
X017725Y009486D03*
X017696Y009529D03*
X017682Y009558D03*
X017653Y009601D03*
X017624Y009673D03*
X017595Y009702D03*
X017581Y009745D03*
X017538Y009817D03*
X017451Y009961D03*
X017379Y010062D03*
X017336Y010134D03*
X017307Y010177D03*
X017293Y010206D03*
X017264Y010249D03*
X016098Y009702D03*
X020071Y009486D03*
X020891Y009529D03*
X021079Y008838D03*
X020057Y011401D03*
X021251Y011904D03*
X021323Y011861D03*
D162*
X017473Y008838D03*
D163*
X017459Y008853D03*
D164*
X017444Y008867D03*
X017588Y010623D03*
X020539Y011559D03*
D165*
X020057Y011357D03*
X020085Y011285D03*
X020114Y011213D03*
X020157Y011113D03*
X020085Y009457D03*
X021165Y008882D03*
X016026Y009846D03*
D166*
X017430Y008882D03*
D167*
X017876Y009184D03*
X017862Y009213D03*
X018121Y010163D03*
X017372Y010076D03*
X017329Y010148D03*
X017300Y010191D03*
X017271Y010235D03*
X017257Y010263D03*
X017228Y010307D03*
X017214Y010335D03*
X017185Y010364D03*
X015976Y010307D03*
X016048Y009788D03*
X016062Y009760D03*
X020078Y009472D03*
X020899Y009515D03*
X021186Y008896D03*
X020165Y011084D03*
X020150Y011127D03*
X020136Y011156D03*
X020136Y011170D03*
X020078Y011300D03*
X020064Y011343D03*
X020064Y011386D03*
X021302Y011876D03*
D168*
X017423Y008896D03*
D169*
X018049Y010235D03*
X018984Y010076D03*
X019056Y009716D03*
X019128Y011674D03*
X015890Y008896D03*
X015069Y011242D03*
D170*
X015976Y010321D03*
X016034Y009817D03*
X016062Y009774D03*
X016077Y009745D03*
X017214Y010321D03*
X017200Y010350D03*
X017401Y010033D03*
X017473Y009918D03*
X017516Y009846D03*
X017559Y009774D03*
X017833Y009270D03*
X017847Y009241D03*
X017862Y009198D03*
X017876Y009170D03*
X017905Y009098D03*
X018193Y009889D03*
X020179Y011069D03*
X020150Y011141D03*
X020093Y011257D03*
X021215Y008910D03*
D171*
X020575Y011429D03*
X020575Y011473D03*
X020575Y011501D03*
X017408Y008910D03*
D172*
X017898Y009112D03*
X018963Y009285D03*
X017178Y010379D03*
X017164Y010407D03*
X017135Y010451D03*
X016012Y009875D03*
X016012Y009860D03*
X016026Y009832D03*
X020085Y011271D03*
X020057Y011372D03*
X020157Y011098D03*
X021410Y011804D03*
X021309Y008968D03*
X021266Y008939D03*
X021237Y008925D03*
D173*
X017394Y008925D03*
D174*
X015839Y008925D03*
X015767Y008968D03*
X014976Y011098D03*
X018934Y010191D03*
X019006Y010019D03*
X020877Y009688D03*
D175*
X017379Y008939D03*
D176*
X016386Y009371D03*
X015811Y008939D03*
X015724Y008997D03*
X016084Y010523D03*
X015019Y011170D03*
X014990Y011127D03*
X014961Y011084D03*
X014947Y011055D03*
X014933Y011026D03*
X018876Y010292D03*
X018891Y010263D03*
X018905Y010235D03*
X018919Y010220D03*
X018948Y010163D03*
X018948Y010148D03*
X018963Y010120D03*
X018977Y010091D03*
X019020Y009976D03*
X019020Y009947D03*
X019035Y009932D03*
X019035Y009904D03*
X019049Y009875D03*
X019049Y009860D03*
X019049Y009832D03*
X019063Y009788D03*
X019063Y009760D03*
X019063Y009731D03*
X018948Y009328D03*
X020791Y012135D03*
D177*
X021431Y011789D03*
X021474Y011760D03*
X019085Y011760D03*
X018049Y011717D03*
X017113Y010494D03*
X017128Y010465D03*
X015962Y010249D03*
X015962Y010206D03*
X015962Y010033D03*
X015976Y009961D03*
X016005Y009889D03*
X020899Y009486D03*
X021287Y008954D03*
X021330Y008982D03*
X021402Y009026D03*
D178*
X017372Y008954D03*
D179*
X017358Y008968D03*
D180*
X017343Y008982D03*
D181*
X018178Y009904D03*
X018135Y010148D03*
X017128Y010479D03*
X015962Y010235D03*
X015962Y010220D03*
X015962Y010191D03*
X015976Y009976D03*
X015990Y009932D03*
X020078Y009443D03*
X020899Y009501D03*
X021374Y009011D03*
X021359Y008997D03*
X021460Y011775D03*
D182*
X017329Y008997D03*
D183*
X017315Y009011D03*
D184*
X018452Y009688D03*
X019056Y009803D03*
X018869Y010307D03*
X018855Y010335D03*
X018840Y010364D03*
X018812Y010407D03*
X018783Y010451D03*
X018063Y010220D03*
X020035Y009616D03*
X021028Y011127D03*
X020855Y012106D03*
X015703Y009011D03*
X015616Y009069D03*
X015559Y009112D03*
X014882Y010911D03*
X014897Y010940D03*
X014897Y010954D03*
X014911Y010983D03*
X014925Y011012D03*
D185*
X017307Y009026D03*
D186*
X015983Y009947D03*
X015954Y010048D03*
X015954Y010076D03*
X015954Y010091D03*
X015954Y010120D03*
X015954Y010148D03*
X015954Y010163D03*
X017106Y010508D03*
X017106Y010523D03*
X020085Y009429D03*
X021424Y009040D03*
X021482Y009083D03*
X021525Y009112D03*
X021122Y011012D03*
X021554Y011703D03*
X021496Y011746D03*
D187*
X019639Y011242D03*
X018517Y010810D03*
X018344Y009760D03*
X017869Y009040D03*
X016286Y009472D03*
X016257Y009501D03*
X016041Y010479D03*
X015033Y009645D03*
X014990Y009716D03*
X014961Y009760D03*
X014889Y009904D03*
X014846Y010019D03*
X014817Y010120D03*
X015105Y009544D03*
X015134Y009515D03*
X015206Y009429D03*
D188*
X017012Y009040D03*
X016681Y012279D03*
D189*
X015969Y009990D03*
X021438Y009054D03*
X021539Y009126D03*
X021539Y011717D03*
D190*
X016948Y009054D03*
X016516Y012221D03*
D191*
X014889Y010926D03*
X014846Y010825D03*
X014817Y010710D03*
X015537Y009126D03*
X015638Y009054D03*
X018416Y009702D03*
X018704Y010566D03*
X021035Y011113D03*
D192*
X021510Y011732D03*
X021467Y009069D03*
X015969Y010004D03*
X015969Y010019D03*
D193*
X016904Y009069D03*
X018632Y010940D03*
X018589Y010983D03*
X016401Y012178D03*
D194*
X016293Y012135D03*
X019315Y011372D03*
X019272Y010695D03*
X018884Y009472D03*
X016868Y009083D03*
D195*
X015595Y009083D03*
X015523Y009141D03*
X014832Y010767D03*
X014861Y010839D03*
X014861Y010868D03*
X014875Y010882D03*
X018070Y011631D03*
X018689Y010580D03*
X018747Y010508D03*
X018761Y010479D03*
X018790Y010436D03*
X018401Y009716D03*
X020042Y009587D03*
X020877Y009645D03*
X020877Y009659D03*
D196*
X020093Y009414D03*
X021503Y009098D03*
X021604Y009170D03*
X021575Y011688D03*
D197*
X019272Y011429D03*
X019344Y010609D03*
X016825Y009098D03*
D198*
X016343Y009414D03*
X015580Y009098D03*
X015479Y009170D03*
X015451Y009198D03*
X015364Y009270D03*
X016055Y010494D03*
X014875Y010897D03*
X014861Y010854D03*
X014832Y010782D03*
X018718Y010537D03*
X018747Y010494D03*
X019121Y011688D03*
X020042Y009601D03*
D199*
X020121Y011185D03*
X017890Y009126D03*
X017243Y010278D03*
X017171Y010393D03*
D200*
X021561Y009141D03*
D201*
X020121Y011199D03*
X021345Y011847D03*
X017890Y009155D03*
X017890Y009141D03*
D202*
X018905Y009429D03*
X019625Y010263D03*
X020013Y011026D03*
X020906Y011271D03*
X020301Y012307D03*
X019222Y011516D03*
X018142Y011458D03*
X015983Y011991D03*
X016732Y009141D03*
D203*
X018164Y009932D03*
X020165Y011890D03*
X021590Y011674D03*
X020899Y009472D03*
X021575Y009155D03*
X021618Y009184D03*
X021647Y009213D03*
D204*
X019798Y010048D03*
X016703Y009155D03*
D205*
X016681Y009170D03*
X019200Y011544D03*
X020107Y010897D03*
X020352Y012293D03*
D206*
X020395Y012279D03*
X020179Y010796D03*
X019920Y009875D03*
X017977Y010292D03*
X016653Y009184D03*
X016178Y010595D03*
X015674Y011804D03*
D207*
X017099Y010537D03*
X021633Y009198D03*
D208*
X021669Y009227D03*
X019078Y011775D03*
D209*
X017279Y010220D03*
X017351Y010120D03*
X017423Y010004D03*
X017495Y009875D03*
X017567Y009760D03*
X017639Y009645D03*
X017710Y009515D03*
X017710Y009501D03*
X017782Y009371D03*
X017782Y009357D03*
X017854Y009227D03*
X015983Y010335D03*
D210*
X021136Y010998D03*
X021626Y011645D03*
X021712Y009270D03*
X021683Y009241D03*
D211*
X020827Y009846D03*
X020640Y010134D03*
X020539Y010278D03*
X020510Y010321D03*
X020438Y010422D03*
X020568Y012221D03*
X016566Y009241D03*
X015458Y011645D03*
D212*
X014825Y010753D03*
X014810Y010681D03*
X014796Y010638D03*
X014796Y010609D03*
X015285Y009342D03*
X015314Y009313D03*
X015400Y009241D03*
X016293Y009457D03*
X018538Y010782D03*
X018596Y010710D03*
X018653Y010638D03*
X018668Y010609D03*
X019618Y011257D03*
X020927Y012077D03*
X020884Y009630D03*
D213*
X021697Y009256D03*
X021640Y011631D03*
X021611Y011660D03*
X018042Y011732D03*
X017092Y010551D03*
D214*
X018013Y010263D03*
X016545Y009256D03*
X015393Y011588D03*
D215*
X017092Y010566D03*
X018142Y009961D03*
X018963Y009270D03*
X021899Y009457D03*
X021928Y009486D03*
X021985Y009558D03*
X021784Y011501D03*
X021741Y011544D03*
X021712Y011573D03*
D216*
X021676Y011602D03*
X021877Y009429D03*
X021849Y009400D03*
X021820Y009371D03*
X021805Y009357D03*
X021777Y009328D03*
X021748Y009299D03*
X021734Y009285D03*
X020093Y009400D03*
X018149Y009947D03*
D217*
X018955Y009299D03*
X020064Y009515D03*
X019819Y011055D03*
X019776Y011098D03*
X019747Y011127D03*
X019099Y011732D03*
X016005Y010407D03*
X016178Y009587D03*
D218*
X016480Y009299D03*
X015184Y011386D03*
X019042Y009688D03*
X020006Y009688D03*
D219*
X020899Y009457D03*
X021762Y009313D03*
X021791Y009342D03*
X021834Y009385D03*
X021863Y009414D03*
D220*
X018948Y009313D03*
X018085Y010206D03*
X018560Y010753D03*
X018948Y010825D03*
X015249Y009385D03*
X015177Y009457D03*
X015062Y009601D03*
X014918Y009846D03*
X014817Y010134D03*
D221*
X016465Y009313D03*
X020855Y009745D03*
D222*
X020100Y009357D03*
X022259Y010724D03*
X022259Y010738D03*
X022259Y010767D03*
X022230Y010839D03*
X022187Y010940D03*
X022187Y010954D03*
X022158Y011012D03*
X020935Y011703D03*
D223*
X020963Y011660D03*
X021870Y011415D03*
X021899Y011386D03*
X021913Y011372D03*
X021971Y011300D03*
X022158Y009832D03*
X022144Y009803D03*
X022129Y009788D03*
X022115Y009760D03*
X022072Y009688D03*
X022057Y009659D03*
X020906Y009429D03*
X020100Y009371D03*
X018128Y009976D03*
D224*
X019071Y011789D03*
X021158Y010969D03*
X021820Y011473D03*
X022065Y009673D03*
X022036Y009630D03*
X022021Y009601D03*
X021964Y009529D03*
X020093Y009385D03*
D225*
X019956Y009817D03*
X020287Y010638D03*
X020258Y010681D03*
X020272Y011789D03*
X018919Y009385D03*
X015652Y011789D03*
X015609Y011760D03*
D226*
X020906Y009414D03*
X022288Y010609D03*
X022273Y010681D03*
X022244Y010782D03*
X022201Y010926D03*
X022173Y010969D03*
D227*
X020294Y011760D03*
X020035Y010998D03*
X019675Y010206D03*
X018912Y009414D03*
X016206Y010609D03*
D228*
X018042Y011746D03*
X020906Y009443D03*
X021885Y009443D03*
X021913Y009472D03*
X021942Y009501D03*
X021971Y009544D03*
X021769Y011516D03*
X021755Y011530D03*
X021726Y011559D03*
D229*
X019258Y011458D03*
X018178Y011415D03*
X016811Y011127D03*
X018898Y009443D03*
D230*
X018891Y009457D03*
X019380Y010566D03*
X018185Y011401D03*
X017898Y010494D03*
X016156Y012077D03*
X020186Y012336D03*
D231*
X020071Y012365D03*
X019323Y011357D03*
X019265Y010710D03*
X018401Y011185D03*
X018373Y011213D03*
X018329Y011257D03*
X018301Y011285D03*
X018876Y009486D03*
X016329Y012149D03*
D232*
X016365Y012163D03*
X017847Y010523D03*
X018452Y011127D03*
X018481Y011098D03*
X018495Y011084D03*
X018524Y011055D03*
X018553Y011026D03*
X018567Y011012D03*
X019215Y010767D03*
X019359Y011314D03*
X018869Y009501D03*
D233*
X021805Y011487D03*
X021849Y011444D03*
X022093Y009716D03*
X022021Y009616D03*
X021993Y009573D03*
X021949Y009515D03*
D234*
X019387Y011271D03*
X018696Y010868D03*
X018682Y010882D03*
X018653Y010911D03*
X018711Y010839D03*
X018855Y009515D03*
D235*
X018855Y009529D03*
D236*
X018848Y009544D03*
D237*
X018833Y009558D03*
X020791Y011401D03*
D238*
X021129Y011976D03*
X019805Y011069D03*
X019762Y011113D03*
X016206Y009558D03*
D239*
X018826Y009573D03*
X019934Y012394D03*
D240*
X019186Y011228D03*
X019258Y011084D03*
X019330Y010940D03*
X019402Y010810D03*
X021057Y011084D03*
X015084Y009573D03*
X014940Y009803D03*
X014796Y010220D03*
X014796Y010235D03*
D241*
X021834Y011458D03*
X022050Y009645D03*
X022007Y009587D03*
D242*
X018819Y009587D03*
X016832Y011098D03*
D243*
X016034Y010465D03*
X014781Y010393D03*
X014810Y010177D03*
X014825Y010105D03*
X014839Y010062D03*
X014839Y010033D03*
X014853Y009990D03*
X014882Y009918D03*
X014897Y009889D03*
X014954Y009774D03*
X014969Y009745D03*
X014997Y009702D03*
X019200Y011185D03*
X019229Y011141D03*
X019243Y011113D03*
X019272Y011041D03*
X019301Y010998D03*
X019315Y010969D03*
X019344Y010926D03*
X019359Y010897D03*
X019661Y011213D03*
X020884Y009601D03*
D244*
X018812Y009601D03*
X017761Y010566D03*
D245*
X018790Y009630D03*
D246*
X017639Y009630D03*
X017495Y009889D03*
X017423Y009990D03*
X017351Y010105D03*
X015983Y010350D03*
X021093Y011041D03*
D247*
X016149Y009630D03*
D248*
X018776Y009659D03*
D249*
X018934Y010177D03*
X018862Y010321D03*
X020229Y011832D03*
X020877Y009673D03*
D250*
X019027Y009673D03*
X018092Y011573D03*
X016134Y010566D03*
X015343Y011544D03*
D251*
X015026Y011185D03*
X014997Y011141D03*
X018481Y009673D03*
X020755Y012149D03*
D252*
X020985Y012048D03*
X019186Y011213D03*
X019258Y011069D03*
X019402Y010825D03*
X018322Y009774D03*
X015012Y009673D03*
X014868Y009961D03*
X014796Y010249D03*
D253*
X021928Y011357D03*
X022129Y009774D03*
X022115Y009745D03*
X022086Y009702D03*
D254*
X021086Y011055D03*
X021230Y011919D03*
X015990Y010379D03*
X015990Y010364D03*
X016091Y009716D03*
D255*
X022101Y009731D03*
X022173Y009860D03*
D256*
X020841Y009803D03*
X020841Y009788D03*
D257*
X019726Y011156D03*
X019366Y010882D03*
X018286Y009803D03*
D258*
X017149Y010436D03*
X015969Y010292D03*
X015969Y010263D03*
X015998Y009904D03*
X016041Y009803D03*
X018056Y011703D03*
X020071Y011314D03*
X020100Y011242D03*
X020100Y011228D03*
X021107Y011026D03*
X021395Y011818D03*
D259*
X021949Y011329D03*
X021978Y011285D03*
X022007Y011257D03*
X022036Y011213D03*
X022237Y010033D03*
X022223Y009990D03*
X022194Y009918D03*
X022180Y009889D03*
X022165Y009846D03*
X022151Y009817D03*
X020150Y011904D03*
X018121Y009990D03*
D260*
X019941Y009832D03*
X020229Y010724D03*
X015623Y011775D03*
D261*
X015494Y011674D03*
X020316Y010595D03*
X020431Y010436D03*
X020532Y010292D03*
X020575Y010220D03*
X020647Y010120D03*
X020676Y010076D03*
X020719Y010019D03*
X020747Y009976D03*
X020819Y009860D03*
X020963Y011199D03*
D262*
X020942Y011228D03*
X020193Y010767D03*
X020165Y010810D03*
X019934Y009860D03*
X017962Y010451D03*
X015688Y011818D03*
D263*
X018164Y010120D03*
X020956Y011674D03*
X021172Y010954D03*
X021935Y011343D03*
X021964Y011314D03*
X022252Y010076D03*
X022237Y010019D03*
X022223Y009976D03*
X022194Y009904D03*
X022180Y009875D03*
D264*
X019042Y009889D03*
X014940Y011041D03*
D265*
X015954Y010177D03*
X015954Y010134D03*
X015954Y010105D03*
X015954Y010062D03*
X018171Y009918D03*
D266*
X017149Y010422D03*
X015969Y010278D03*
X015998Y009918D03*
X020071Y011329D03*
X021366Y011832D03*
D267*
X021993Y011271D03*
X022209Y009947D03*
X022209Y009932D03*
D268*
X020769Y009947D03*
X020265Y010666D03*
X019186Y011588D03*
X018106Y011530D03*
X020481Y012250D03*
X015587Y011746D03*
D269*
X022209Y009961D03*
D270*
X020078Y010926D03*
X019805Y010033D03*
X019834Y009990D03*
X019862Y009961D03*
X015832Y011904D03*
D271*
X019819Y010019D03*
X019848Y009976D03*
X020927Y011242D03*
D272*
X022014Y011242D03*
X022043Y011199D03*
X022259Y010120D03*
X022259Y010091D03*
X022230Y010004D03*
D273*
X022244Y010048D03*
X022273Y010148D03*
X022273Y010163D03*
X022273Y010191D03*
X022288Y010220D03*
X022288Y010235D03*
X022288Y010263D03*
X022072Y011156D03*
X022029Y011228D03*
X018114Y010004D03*
D274*
X018099Y010019D03*
X022173Y010983D03*
X022201Y010911D03*
X022216Y010882D03*
X022216Y010868D03*
X022244Y010810D03*
X022244Y010796D03*
X022273Y010695D03*
X022273Y010666D03*
X022288Y010623D03*
X022288Y010595D03*
X022288Y010580D03*
D275*
X018092Y010033D03*
D276*
X018078Y010048D03*
D277*
X018042Y011760D03*
X022057Y011185D03*
X022101Y011113D03*
X022288Y010249D03*
X022273Y010177D03*
X022273Y010134D03*
X022244Y010062D03*
D278*
X020920Y011257D03*
X020057Y010969D03*
X019697Y010177D03*
X019754Y010105D03*
X019783Y010062D03*
X017941Y010465D03*
X015882Y011933D03*
D279*
X022259Y010105D03*
D280*
X019726Y010134D03*
X018142Y011473D03*
D281*
X018149Y010134D03*
X021662Y011616D03*
D282*
X020359Y010537D03*
X020388Y010494D03*
X020460Y010393D03*
X020604Y010177D03*
D283*
X020942Y011688D03*
X022079Y011141D03*
X022122Y011069D03*
X022137Y011041D03*
X022266Y010710D03*
X022280Y010638D03*
X022295Y010566D03*
X022295Y010537D03*
X022295Y010494D03*
X022295Y010465D03*
X022295Y010422D03*
X022295Y010393D03*
X022295Y010350D03*
X022295Y010321D03*
X022295Y010278D03*
X022280Y010206D03*
D284*
X019999Y011041D03*
X019639Y010249D03*
D285*
X019071Y011804D03*
X021187Y010940D03*
X022065Y011170D03*
X022093Y011127D03*
X022108Y011098D03*
X022122Y011084D03*
X022137Y011055D03*
X022151Y011026D03*
X022280Y010652D03*
X022295Y010551D03*
X022295Y010523D03*
X022295Y010508D03*
X022295Y010479D03*
X022295Y010451D03*
X022295Y010436D03*
X022295Y010407D03*
X022295Y010379D03*
X022295Y010364D03*
X022295Y010335D03*
X022295Y010307D03*
X022295Y010292D03*
D286*
X019596Y010307D03*
X019567Y010335D03*
D287*
X019510Y010407D03*
X019481Y010436D03*
X019481Y010451D03*
X017926Y010379D03*
X017926Y010364D03*
X017926Y010335D03*
D288*
X017919Y010479D03*
X018149Y011444D03*
X019531Y010379D03*
X019546Y010364D03*
X020309Y011746D03*
D289*
X021863Y011429D03*
X017660Y010393D03*
D290*
X018157Y011429D03*
X019495Y010422D03*
X020891Y011285D03*
D291*
X019402Y010537D03*
X016091Y012048D03*
D292*
X017818Y010537D03*
D293*
X018200Y011386D03*
X019265Y011444D03*
X019394Y010551D03*
X020316Y011732D03*
D294*
X020373Y011660D03*
X017797Y010551D03*
X016602Y012250D03*
D295*
X020337Y010566D03*
D296*
X019366Y010580D03*
X016127Y012063D03*
D297*
X017617Y010595D03*
X017617Y010580D03*
X020524Y011588D03*
D298*
X020870Y011314D03*
X019287Y011415D03*
X019330Y010623D03*
X019359Y010595D03*
X018207Y011372D03*
X016192Y012091D03*
D299*
X017617Y010609D03*
D300*
X018257Y011329D03*
X018229Y011357D03*
X019294Y011401D03*
X019323Y010638D03*
X020330Y011717D03*
X016257Y012120D03*
D301*
X017056Y010638D03*
D302*
X017048Y010652D03*
X017048Y010666D03*
D303*
X019287Y010681D03*
D304*
X017048Y010681D03*
D305*
X018114Y011516D03*
X020215Y010738D03*
X020244Y010695D03*
D306*
X017041Y010695D03*
D307*
X017041Y010710D03*
D308*
X018315Y011271D03*
X018344Y011242D03*
X018387Y011199D03*
X018416Y011170D03*
X019236Y010738D03*
X019251Y010724D03*
X019337Y011343D03*
D309*
X017034Y010724D03*
D310*
X017034Y010738D03*
D311*
X022158Y010998D03*
X022230Y010854D03*
X022230Y010825D03*
X022259Y010753D03*
D312*
X020208Y010753D03*
X020179Y010782D03*
X018121Y011501D03*
X015717Y011832D03*
D313*
X017027Y010753D03*
D314*
X017027Y010767D03*
D315*
X017020Y010782D03*
D316*
X018617Y010954D03*
X019193Y010796D03*
X019366Y011300D03*
X020345Y011703D03*
X018459Y012682D03*
D317*
X017012Y010796D03*
D318*
X017005Y010810D03*
D319*
X017005Y010825D03*
D320*
X016991Y010839D03*
D321*
X016984Y010854D03*
D322*
X016976Y010868D03*
D323*
X016969Y010882D03*
D324*
X021201Y010926D03*
X022209Y010897D03*
D325*
X021237Y010897D03*
D326*
X016962Y010897D03*
D327*
X021215Y010911D03*
D328*
X016955Y010911D03*
D329*
X018574Y010998D03*
X018603Y010969D03*
X018646Y010926D03*
X020834Y011357D03*
D330*
X016948Y010926D03*
D331*
X016933Y010940D03*
D332*
X016926Y010954D03*
D333*
X016912Y010969D03*
D334*
X021143Y010983D03*
X021690Y011588D03*
D335*
X016912Y010983D03*
D336*
X016897Y010998D03*
D337*
X016890Y011012D03*
X017322Y012423D03*
D338*
X016883Y011026D03*
D339*
X018466Y011113D03*
X018538Y011041D03*
D340*
X016876Y011041D03*
D341*
X016861Y011055D03*
X018459Y012667D03*
D342*
X017012Y012365D03*
X016854Y011069D03*
D343*
X016840Y011084D03*
X016840Y012322D03*
D344*
X018286Y011300D03*
X018358Y011228D03*
X018430Y011156D03*
D345*
X019380Y011285D03*
D346*
X020855Y011329D03*
D347*
X020819Y011372D03*
X019999Y012379D03*
X016473Y012207D03*
D348*
X021885Y011401D03*
D349*
X020769Y011415D03*
D350*
X020575Y011444D03*
X020575Y011458D03*
X020575Y011487D03*
D351*
X019150Y011645D03*
X015264Y011473D03*
D352*
X020568Y011516D03*
D353*
X020560Y011530D03*
D354*
X020553Y011544D03*
D355*
X020532Y011573D03*
D356*
X020517Y011602D03*
D357*
X020503Y011616D03*
D358*
X020503Y011631D03*
D359*
X020496Y011645D03*
D360*
X016552Y012235D03*
D361*
X016645Y012264D03*
D362*
X016897Y012336D03*
D363*
X017084Y012379D03*
D364*
X017149Y012394D03*
D365*
X019862Y012408D03*
D366*
X017221Y012408D03*
D367*
X019762Y012423D03*
D368*
X019661Y012437D03*
D369*
X017430Y012437D03*
D370*
X018459Y012451D03*
D371*
X018459Y012466D03*
D372*
X018459Y012480D03*
D373*
X018459Y012494D03*
D374*
X018459Y012509D03*
D375*
X018452Y012523D03*
D376*
X018459Y012538D03*
D377*
X018459Y012552D03*
D378*
X018459Y012566D03*
D379*
X018452Y012581D03*
D380*
X018459Y012595D03*
D381*
X018459Y012610D03*
D382*
X018459Y012624D03*
D383*
X018459Y012638D03*
D384*
X018459Y012653D03*
D385*
X031630Y007191D03*
D386*
X031630Y007196D03*
D387*
X031630Y007201D03*
X031630Y007206D03*
X031630Y007211D03*
X031630Y007216D03*
X031630Y007221D03*
X031630Y007226D03*
X031630Y007231D03*
X031630Y007236D03*
X031630Y007241D03*
X031630Y007246D03*
X031630Y007251D03*
X031630Y007255D03*
X031630Y007260D03*
X031630Y007265D03*
X031630Y007270D03*
X031630Y007275D03*
X031630Y007280D03*
X031630Y007285D03*
D388*
X032433Y007290D03*
D389*
X030466Y007442D03*
X030462Y007438D03*
X030388Y007290D03*
D390*
X029583Y007290D03*
D391*
X032450Y007295D03*
D392*
X030388Y007295D03*
D393*
X029563Y007295D03*
D394*
X033163Y007310D03*
X033163Y007315D03*
X033163Y007319D03*
X033163Y007324D03*
X033163Y007305D03*
X033163Y007300D03*
D395*
X033232Y007472D03*
X033631Y007689D03*
X033636Y007693D03*
X033641Y007698D03*
X032829Y007693D03*
X032824Y007698D03*
X032819Y007703D03*
X032814Y007708D03*
X032184Y007930D03*
X031741Y007935D03*
X031982Y007300D03*
X032189Y008663D03*
X031746Y008663D03*
X031121Y008663D03*
X030673Y008663D03*
X030048Y008663D03*
X029714Y008446D03*
X029605Y008663D03*
X030673Y007935D03*
X032829Y008530D03*
X033636Y008530D03*
X033641Y008525D03*
D396*
X032565Y007413D03*
X031507Y007398D03*
X031507Y007393D03*
X031507Y007388D03*
X031507Y007383D03*
X031507Y007379D03*
X031507Y007374D03*
X031507Y007369D03*
X031507Y007364D03*
X031507Y007359D03*
X031507Y007354D03*
X031507Y007349D03*
X031507Y007344D03*
X031507Y007339D03*
X031507Y007334D03*
X031507Y007329D03*
X031507Y007324D03*
X031507Y007319D03*
X031507Y007315D03*
X031507Y007310D03*
X031507Y007305D03*
X031507Y007300D03*
X030390Y007566D03*
D397*
X030006Y007388D03*
X030001Y007379D03*
X030001Y007374D03*
X030001Y007369D03*
X029878Y007447D03*
X030188Y008058D03*
X030188Y008063D03*
X030203Y008082D03*
X029982Y008323D03*
X030198Y008520D03*
X030188Y008535D03*
X030179Y008550D03*
X030533Y008530D03*
X030538Y008535D03*
X030538Y008540D03*
X030543Y008545D03*
X030789Y008181D03*
X030538Y008058D03*
X030533Y008063D03*
X031059Y007566D03*
X031059Y007561D03*
X031064Y007305D03*
X031064Y007300D03*
X031246Y008043D03*
X031256Y008058D03*
X031261Y008063D03*
X031601Y008067D03*
X031606Y008058D03*
X031596Y008520D03*
X031601Y008525D03*
X031601Y008530D03*
X031606Y008535D03*
X031271Y008515D03*
X031261Y008530D03*
X031256Y008540D03*
X031251Y008545D03*
X032324Y008540D03*
X032334Y008525D03*
X032334Y008067D03*
X032324Y008053D03*
X032319Y008048D03*
X032934Y008210D03*
X033304Y008210D03*
X032122Y007374D03*
X032122Y007369D03*
X031960Y007418D03*
X031950Y007393D03*
X031950Y007388D03*
X031950Y007383D03*
X031950Y007379D03*
X031950Y007374D03*
X031950Y007369D03*
X031950Y007364D03*
X031950Y007359D03*
X029829Y008771D03*
X029470Y008540D03*
X029465Y008535D03*
X029460Y008525D03*
X029460Y008067D03*
X029465Y008063D03*
X029465Y008058D03*
X029470Y008053D03*
X029475Y008048D03*
D398*
X029657Y008368D03*
X030149Y008584D03*
X030799Y008171D03*
X031232Y008023D03*
X031625Y008033D03*
X031970Y008505D03*
X031970Y008569D03*
X031232Y008569D03*
X030887Y007566D03*
X030774Y007487D03*
X030887Y007300D03*
X032659Y007999D03*
X032659Y008004D03*
X032659Y008008D03*
X032659Y008013D03*
X032659Y008018D03*
X032659Y008200D03*
X032659Y008205D03*
X032659Y008210D03*
X032659Y008215D03*
X032659Y008220D03*
D399*
X033232Y008663D03*
X030388Y007300D03*
D400*
X029913Y007300D03*
X030996Y008181D03*
D401*
X031173Y007969D03*
X031168Y007964D03*
X030617Y007974D03*
X030105Y007969D03*
X029957Y008151D03*
X029982Y008338D03*
X029952Y008432D03*
X030115Y008619D03*
X029691Y008432D03*
X029686Y008427D03*
X029554Y008629D03*
X029681Y008166D03*
X029686Y008161D03*
X029539Y007979D03*
X029544Y007974D03*
X029854Y007551D03*
X029750Y007305D03*
X029750Y007300D03*
X030612Y008619D03*
X030617Y008624D03*
X031173Y008629D03*
X031178Y008624D03*
X031689Y007969D03*
X032245Y007969D03*
X032250Y007974D03*
X032723Y007826D03*
X032723Y007821D03*
X032733Y007807D03*
X032738Y007802D03*
X032944Y007999D03*
X033141Y008008D03*
X033038Y008299D03*
X032743Y008427D03*
X032733Y008412D03*
X032723Y008397D03*
X032723Y008392D03*
X033510Y008008D03*
X033756Y007851D03*
X033742Y007826D03*
X033742Y007821D03*
X033737Y007816D03*
X033756Y008368D03*
X033742Y008397D03*
X033737Y008402D03*
X033732Y008412D03*
X031965Y007315D03*
D402*
X031967Y007876D03*
X029827Y007876D03*
X029394Y007310D03*
X029394Y007305D03*
X029394Y007300D03*
D403*
X029829Y007826D03*
X029829Y008048D03*
X029942Y008141D03*
X029982Y008348D03*
X030075Y008648D03*
X030656Y007944D03*
X031138Y007944D03*
X031138Y008653D03*
X031729Y008653D03*
X031965Y008220D03*
X031724Y007944D03*
X032211Y007944D03*
X032782Y007743D03*
X032787Y007738D03*
X032787Y008486D03*
X032792Y008491D03*
X032797Y008496D03*
X032802Y008501D03*
X033495Y007999D03*
X033687Y007748D03*
X033682Y007743D03*
X033678Y007738D03*
X033673Y007733D03*
X033692Y008466D03*
X033682Y008481D03*
X033678Y008486D03*
X033673Y008491D03*
X033668Y008496D03*
X031975Y007305D03*
X029588Y008653D03*
D404*
X030193Y008530D03*
X030523Y008515D03*
X030794Y008176D03*
X030193Y008067D03*
X029849Y007526D03*
X029750Y007344D03*
X030892Y007305D03*
X030892Y007561D03*
X031867Y007556D03*
X031965Y007423D03*
X032339Y008520D03*
X031621Y008555D03*
D405*
X031497Y007433D03*
X031497Y007428D03*
X030390Y007305D03*
X030390Y007561D03*
D406*
X029905Y007305D03*
X029748Y007423D03*
X030919Y007364D03*
X030919Y007359D03*
X030919Y007502D03*
X030919Y007506D03*
X031032Y007482D03*
X031032Y007477D03*
X031091Y007388D03*
X030895Y008018D03*
X030895Y008028D03*
X030895Y008038D03*
X030895Y008048D03*
X030895Y008063D03*
X030895Y008072D03*
X030895Y008560D03*
X030895Y008574D03*
X030895Y008579D03*
X030895Y008584D03*
X031967Y008599D03*
X031967Y008476D03*
X032017Y007556D03*
X032012Y007551D03*
X031997Y007526D03*
X031992Y007516D03*
X031864Y007511D03*
X034059Y008855D03*
X029207Y008860D03*
X029202Y008855D03*
D407*
X029573Y008643D03*
X029982Y008343D03*
X030090Y008638D03*
X030636Y008638D03*
X030971Y008432D03*
X031153Y008643D03*
X031153Y007954D03*
X030641Y007954D03*
X030523Y008127D03*
X030085Y007954D03*
X029701Y008146D03*
X029563Y007959D03*
X029893Y007457D03*
X031704Y007959D03*
X031709Y007954D03*
X031970Y007994D03*
X031970Y007999D03*
X031970Y008004D03*
X031970Y008008D03*
X031970Y008013D03*
X031970Y008018D03*
X031970Y008023D03*
X031970Y008028D03*
X031970Y008033D03*
X031970Y008038D03*
X031970Y008043D03*
X031970Y008048D03*
X031970Y008053D03*
X031970Y008058D03*
X031970Y008063D03*
X031970Y008067D03*
X031970Y008072D03*
X031970Y008077D03*
X031970Y008082D03*
X031970Y008087D03*
X031970Y008092D03*
X031970Y008097D03*
X031970Y008102D03*
X031970Y008107D03*
X031970Y008112D03*
X031970Y008117D03*
X031970Y008122D03*
X031970Y008127D03*
X031970Y008131D03*
X031970Y008136D03*
X031970Y008141D03*
X031970Y008146D03*
X031970Y008151D03*
X031970Y008156D03*
X031970Y008161D03*
X031970Y008166D03*
X031970Y008171D03*
X031970Y008176D03*
X031970Y008181D03*
X031970Y008186D03*
X031970Y008191D03*
X031970Y008195D03*
X031970Y008200D03*
X031970Y008205D03*
X031970Y008210D03*
X031970Y008215D03*
X032226Y007954D03*
X032747Y007787D03*
X032752Y007777D03*
X032757Y007772D03*
X032762Y007767D03*
X032752Y008441D03*
X032757Y008446D03*
X032762Y008451D03*
X032762Y008456D03*
X032767Y008461D03*
X032231Y008638D03*
X031704Y008638D03*
X031699Y008633D03*
X031970Y007310D03*
X033500Y008220D03*
X033722Y008427D03*
X033712Y008441D03*
X033707Y008446D03*
X033717Y007787D03*
X033712Y007777D03*
X033707Y007772D03*
D408*
X033409Y007915D03*
X033296Y008013D03*
X033409Y008304D03*
X032927Y008013D03*
X032346Y008087D03*
X032341Y008082D03*
X032341Y008077D03*
X032356Y008491D03*
X032346Y008505D03*
X032346Y008510D03*
X032341Y008515D03*
X031967Y008496D03*
X031967Y008579D03*
X031593Y008515D03*
X031589Y008510D03*
X031589Y008505D03*
X031584Y008501D03*
X031584Y008097D03*
X031589Y008087D03*
X031593Y008077D03*
X031598Y008072D03*
X031603Y008063D03*
X031283Y008102D03*
X031278Y008092D03*
X031278Y008087D03*
X031264Y008067D03*
X031057Y007556D03*
X031067Y007310D03*
X031982Y007457D03*
X032120Y007398D03*
X032120Y007393D03*
X032120Y007388D03*
X032120Y007383D03*
X032120Y007379D03*
X032120Y007364D03*
X030526Y008077D03*
X030511Y008102D03*
X030215Y008102D03*
X030211Y008097D03*
X030211Y008092D03*
X030206Y008087D03*
X030201Y008077D03*
X030196Y008072D03*
X030220Y008481D03*
X030215Y008491D03*
X030211Y008501D03*
X030206Y008505D03*
X030206Y008510D03*
X030201Y008515D03*
X030196Y008525D03*
X030526Y008520D03*
X029463Y008530D03*
X029458Y008520D03*
X029443Y008496D03*
X029443Y008097D03*
X029458Y008072D03*
X029851Y007521D03*
X029851Y007516D03*
X030004Y007383D03*
X029999Y007364D03*
X029999Y007359D03*
D409*
X029849Y007511D03*
X030218Y008107D03*
X030218Y008112D03*
X030223Y008117D03*
X030223Y008122D03*
X030228Y008127D03*
X030228Y008131D03*
X030233Y008141D03*
X030508Y008107D03*
X030513Y008097D03*
X030518Y008087D03*
X030489Y008441D03*
X030494Y008456D03*
X030498Y008466D03*
X030498Y008471D03*
X030503Y008476D03*
X030503Y008481D03*
X030508Y008486D03*
X030508Y008491D03*
X030513Y008496D03*
X030238Y008441D03*
X030233Y008451D03*
X030233Y008456D03*
X030228Y008461D03*
X030228Y008466D03*
X030223Y008476D03*
X030218Y008486D03*
X030213Y008496D03*
X029982Y008318D03*
X029450Y008510D03*
X029445Y008501D03*
X029440Y008491D03*
X029435Y008486D03*
X029435Y008481D03*
X029431Y008476D03*
X029431Y008471D03*
X029426Y008461D03*
X029421Y008446D03*
X029421Y008146D03*
X029426Y008131D03*
X029431Y008122D03*
X029435Y008112D03*
X029435Y008107D03*
X029440Y008102D03*
X029445Y008092D03*
X030774Y007502D03*
X030897Y007556D03*
X031050Y007541D03*
X031055Y007546D03*
X031055Y007551D03*
X031069Y007319D03*
X031069Y007315D03*
X030897Y007310D03*
X030774Y007364D03*
X031281Y008097D03*
X031286Y008107D03*
X031291Y008112D03*
X031291Y008117D03*
X031296Y008122D03*
X031296Y008127D03*
X031301Y008136D03*
X031306Y008146D03*
X031566Y008131D03*
X031571Y008122D03*
X031571Y008117D03*
X031576Y008112D03*
X031576Y008107D03*
X031581Y008102D03*
X031586Y008092D03*
X031591Y008082D03*
X031561Y008451D03*
X031566Y008461D03*
X031571Y008471D03*
X031571Y008476D03*
X031576Y008481D03*
X031576Y008486D03*
X031581Y008491D03*
X031581Y008496D03*
X031970Y008491D03*
X031970Y008584D03*
X032354Y008496D03*
X032359Y008486D03*
X032359Y008481D03*
X032364Y008476D03*
X032364Y008471D03*
X032369Y008466D03*
X032369Y008461D03*
X032373Y008451D03*
X032373Y008141D03*
X032369Y008131D03*
X032369Y008127D03*
X032364Y008122D03*
X032364Y008117D03*
X032359Y008112D03*
X032359Y008107D03*
X032354Y008102D03*
X032349Y008092D03*
X031867Y007546D03*
X031980Y007462D03*
X032127Y007487D03*
X032122Y007403D03*
X032122Y007359D03*
X033038Y007915D03*
D410*
X033235Y007546D03*
X031488Y007462D03*
X030390Y007310D03*
D411*
X029901Y007310D03*
X029896Y007315D03*
X029748Y007433D03*
X029748Y007438D03*
X029192Y007708D03*
X029192Y007713D03*
X029192Y007718D03*
X029192Y007723D03*
X029192Y007728D03*
X029192Y007733D03*
X029192Y007738D03*
X029192Y007743D03*
X029192Y007748D03*
X029192Y007753D03*
X029192Y007757D03*
X029192Y007762D03*
X029192Y007767D03*
X029192Y007772D03*
X029192Y007777D03*
X029192Y007782D03*
X029192Y007787D03*
X029192Y007792D03*
X029192Y007797D03*
X029192Y007802D03*
X029192Y007807D03*
X029192Y007812D03*
X029192Y007816D03*
X029192Y007821D03*
X029192Y007826D03*
X029192Y007831D03*
X029192Y007836D03*
X029192Y007841D03*
X029192Y007846D03*
X029192Y007851D03*
X029192Y007856D03*
X029192Y007861D03*
X029192Y007866D03*
X029192Y007871D03*
X029192Y007876D03*
X029192Y007880D03*
X029192Y007885D03*
X029192Y007890D03*
X029192Y007895D03*
X029192Y007900D03*
X029192Y007905D03*
X029192Y007910D03*
X029192Y007915D03*
X029192Y007920D03*
X029192Y007925D03*
X029192Y007930D03*
X029192Y007935D03*
X029192Y007940D03*
X029192Y007944D03*
X029192Y007949D03*
X029192Y007954D03*
X029192Y007959D03*
X029192Y007964D03*
X029192Y007969D03*
X029192Y007974D03*
X029192Y007979D03*
X029192Y007984D03*
X029192Y007989D03*
X029192Y007994D03*
X029192Y007999D03*
X029192Y008004D03*
X029192Y008008D03*
X029192Y008013D03*
X029192Y008018D03*
X029192Y008023D03*
X029192Y008028D03*
X029192Y008033D03*
X029192Y008038D03*
X029192Y008043D03*
X029192Y008048D03*
X029192Y008053D03*
X029192Y008058D03*
X029192Y008063D03*
X029192Y008067D03*
X029192Y008072D03*
X029192Y008077D03*
X029192Y008082D03*
X029192Y008087D03*
X029192Y008092D03*
X029192Y008097D03*
X029192Y008102D03*
X029192Y008107D03*
X029192Y008112D03*
X029192Y008117D03*
X029192Y008122D03*
X029192Y008127D03*
X029192Y008131D03*
X029192Y008136D03*
X029192Y008141D03*
X029192Y008146D03*
X029192Y008151D03*
X029192Y008156D03*
X029192Y008161D03*
X029192Y008166D03*
X029192Y008171D03*
X029192Y008176D03*
X029192Y008181D03*
X029192Y008186D03*
X029192Y008191D03*
X029192Y008195D03*
X029192Y008200D03*
X029192Y008205D03*
X029192Y008210D03*
X029192Y008215D03*
X029192Y008220D03*
X029192Y008225D03*
X029192Y008230D03*
X029192Y008235D03*
X029192Y008240D03*
X029192Y008245D03*
X029192Y008250D03*
X029192Y008254D03*
X029192Y008259D03*
X029192Y008264D03*
X029192Y008269D03*
X029192Y008274D03*
X029192Y008279D03*
X029192Y008284D03*
X029192Y008289D03*
X029192Y008294D03*
X029192Y008299D03*
X029192Y008304D03*
X029192Y008309D03*
X029192Y008314D03*
X029192Y008318D03*
X029192Y008323D03*
X029192Y008328D03*
X029192Y008333D03*
X029192Y008338D03*
X029192Y008343D03*
X029192Y008348D03*
X029192Y008353D03*
X029192Y008358D03*
X029192Y008363D03*
X029192Y008368D03*
X029192Y008373D03*
X029192Y008378D03*
X029192Y008382D03*
X029192Y008387D03*
X029192Y008392D03*
X029192Y008397D03*
X029192Y008402D03*
X029192Y008407D03*
X029192Y008412D03*
X029192Y008417D03*
X029192Y008422D03*
X029192Y008427D03*
X029192Y008432D03*
X029192Y008437D03*
X029192Y008441D03*
X029192Y008446D03*
X029192Y008451D03*
X029192Y008456D03*
X029192Y008461D03*
X029192Y008466D03*
X029192Y008471D03*
X029192Y008476D03*
X029192Y008481D03*
X029192Y008486D03*
X029192Y008491D03*
X029192Y008496D03*
X029192Y008501D03*
X029192Y008505D03*
X029192Y008510D03*
X029192Y008515D03*
X029192Y008520D03*
X029192Y008525D03*
X029192Y008530D03*
X029192Y008535D03*
X029192Y008540D03*
X029192Y008545D03*
X029192Y008550D03*
X029192Y008555D03*
X029192Y008560D03*
X029192Y008565D03*
X029192Y008569D03*
X029192Y008574D03*
X029192Y008579D03*
X029192Y008584D03*
X029192Y008589D03*
X029192Y008594D03*
X029192Y008599D03*
X029192Y008604D03*
X029192Y008609D03*
X029192Y008614D03*
X029192Y008619D03*
X029192Y008624D03*
X029192Y008629D03*
X029192Y008633D03*
X029192Y008638D03*
X029192Y008643D03*
X029192Y008648D03*
X029192Y008653D03*
X029192Y008658D03*
X029192Y008663D03*
X029192Y008668D03*
X029192Y008673D03*
X029192Y008678D03*
X029192Y008683D03*
X029192Y008688D03*
X029192Y008692D03*
X029192Y008697D03*
X029192Y008702D03*
X029192Y008707D03*
X029192Y008712D03*
X029192Y008717D03*
X029192Y008722D03*
X029192Y008727D03*
X029192Y008732D03*
X029192Y008737D03*
X029192Y008742D03*
X029192Y008747D03*
X029192Y008752D03*
X029192Y008756D03*
X029192Y008761D03*
X029192Y008766D03*
X029192Y008771D03*
X029192Y008776D03*
X029192Y008781D03*
X029192Y008786D03*
X029192Y008791D03*
X029192Y008796D03*
X029192Y008801D03*
X029192Y008806D03*
X029192Y008811D03*
X029192Y008816D03*
X029192Y008820D03*
X029192Y008825D03*
X029192Y008830D03*
X029192Y008835D03*
X029197Y008845D03*
X030924Y007482D03*
X030924Y007477D03*
X030924Y007472D03*
X030924Y007467D03*
X030924Y007398D03*
X030924Y007393D03*
X030924Y007388D03*
X030924Y007383D03*
X031027Y007462D03*
X031864Y007502D03*
X033306Y008033D03*
X034064Y008845D03*
D412*
X033754Y008373D03*
X033759Y008363D03*
X033769Y008343D03*
X033774Y008333D03*
X033513Y008210D03*
X033311Y007999D03*
X033409Y007920D03*
X033754Y007846D03*
X033759Y007856D03*
X033769Y007876D03*
X033774Y007885D03*
X033040Y007920D03*
X032711Y007851D03*
X032711Y007846D03*
X032706Y007856D03*
X032701Y007866D03*
X032263Y007984D03*
X032258Y007979D03*
X032701Y008353D03*
X032706Y008363D03*
X032711Y008373D03*
X032253Y008619D03*
X032248Y008624D03*
X031967Y008550D03*
X031967Y008545D03*
X031967Y008540D03*
X031967Y008535D03*
X031967Y008530D03*
X031967Y008525D03*
X031687Y008624D03*
X031677Y008614D03*
X031662Y007994D03*
X031667Y007989D03*
X031672Y007984D03*
X031677Y007979D03*
X031185Y007979D03*
X031180Y007974D03*
X030900Y008087D03*
X030604Y007984D03*
X030521Y008122D03*
X030127Y007989D03*
X030117Y007979D03*
X029955Y008427D03*
X029674Y008176D03*
X029526Y007989D03*
X029536Y008614D03*
X029541Y008619D03*
X029546Y008624D03*
X030594Y008604D03*
X030599Y008609D03*
X030604Y008614D03*
X031185Y008619D03*
X031195Y008609D03*
X030776Y007398D03*
X029748Y007310D03*
X031963Y007319D03*
D413*
X031982Y007467D03*
X032125Y007477D03*
X032125Y007482D03*
X032125Y007492D03*
X032125Y007497D03*
X032125Y007502D03*
X032125Y007408D03*
X032125Y007354D03*
X032371Y008136D03*
X032376Y008146D03*
X032376Y008151D03*
X032391Y008195D03*
X032391Y008200D03*
X032396Y008220D03*
X032396Y008373D03*
X032391Y008392D03*
X032391Y008397D03*
X032376Y008441D03*
X032376Y008446D03*
X032371Y008456D03*
X032937Y008205D03*
X033306Y008205D03*
X031559Y008156D03*
X031559Y008151D03*
X031559Y008146D03*
X031554Y008161D03*
X031554Y008166D03*
X031554Y008171D03*
X031549Y008181D03*
X031549Y008186D03*
X031544Y008205D03*
X031539Y008363D03*
X031544Y008387D03*
X031544Y008392D03*
X031549Y008407D03*
X031549Y008412D03*
X031554Y008422D03*
X031554Y008427D03*
X031554Y008432D03*
X031559Y008437D03*
X031559Y008441D03*
X031559Y008446D03*
X031328Y008363D03*
X031328Y008358D03*
X031313Y008422D03*
X031328Y008235D03*
X031313Y008176D03*
X031313Y008171D03*
X031313Y008166D03*
X031308Y008161D03*
X031308Y008156D03*
X031308Y008151D03*
X031303Y008141D03*
X031298Y008131D03*
X030900Y007551D03*
X030900Y007315D03*
X030230Y008136D03*
X030245Y008171D03*
X030245Y008176D03*
X030245Y008181D03*
X030250Y008191D03*
X030250Y008195D03*
X030255Y008215D03*
X030255Y008378D03*
X030250Y008397D03*
X030250Y008402D03*
X030245Y008412D03*
X030245Y008417D03*
X030245Y008422D03*
X030225Y008471D03*
X030476Y008402D03*
X030476Y008397D03*
X030004Y007502D03*
X030004Y007497D03*
X029999Y007487D03*
X029876Y007442D03*
X029851Y007497D03*
X029851Y007502D03*
X029851Y007506D03*
X029999Y007354D03*
X029433Y008117D03*
X029428Y008127D03*
X029423Y008136D03*
X029423Y008141D03*
X029418Y008151D03*
X029418Y008156D03*
X029413Y008161D03*
X029413Y008166D03*
X029413Y008171D03*
X029408Y008181D03*
X029408Y008186D03*
X029408Y008191D03*
X029408Y008407D03*
X029408Y008412D03*
X029413Y008422D03*
X029413Y008427D03*
X029413Y008432D03*
X029418Y008437D03*
X029418Y008441D03*
X029423Y008451D03*
X029423Y008456D03*
X029428Y008466D03*
D414*
X030390Y007315D03*
X031483Y007477D03*
X031483Y007482D03*
X032541Y007442D03*
D415*
X032703Y007861D03*
X032698Y007871D03*
X032698Y007876D03*
X032693Y007880D03*
X032693Y007885D03*
X032688Y007895D03*
X032688Y007900D03*
X032679Y007925D03*
X032679Y008294D03*
X032688Y008318D03*
X032688Y008323D03*
X032693Y008333D03*
X032693Y008338D03*
X032698Y008343D03*
X032698Y008348D03*
X032703Y008358D03*
X032708Y008368D03*
X032939Y008220D03*
X033146Y008205D03*
X033308Y008220D03*
X033515Y008205D03*
X033515Y008013D03*
X033776Y007895D03*
X033776Y007890D03*
X033771Y007880D03*
X033781Y007900D03*
X033781Y007905D03*
X033786Y007915D03*
X033786Y007920D03*
X033791Y007930D03*
X033791Y007935D03*
X033791Y008289D03*
X033786Y008299D03*
X033786Y008304D03*
X033781Y008314D03*
X033781Y008318D03*
X033776Y008323D03*
X033776Y008328D03*
X033771Y008338D03*
X033146Y008013D03*
X032265Y007989D03*
X031970Y008515D03*
X031970Y008520D03*
X031970Y008555D03*
X031970Y008560D03*
X032260Y008614D03*
X032265Y008609D03*
X032270Y008604D03*
X032280Y008594D03*
X031670Y008609D03*
X031665Y008604D03*
X031660Y008599D03*
X031655Y008594D03*
X031202Y008604D03*
X031212Y008004D03*
X031202Y007994D03*
X031197Y007989D03*
X031192Y007984D03*
X030592Y007994D03*
X030587Y007999D03*
X030134Y008599D03*
X030129Y008604D03*
X030119Y008614D03*
X029962Y008422D03*
X029967Y008412D03*
X029982Y008333D03*
X029967Y008166D03*
X029962Y008161D03*
X029672Y008181D03*
X029672Y008186D03*
X029667Y008191D03*
X029667Y008195D03*
X029657Y008220D03*
X029667Y008397D03*
X029672Y008407D03*
X029677Y008412D03*
X029519Y008599D03*
X029524Y008604D03*
X029529Y008609D03*
X029519Y007999D03*
X029524Y007994D03*
X029854Y007546D03*
X029750Y007319D03*
X029750Y007315D03*
X031960Y007324D03*
X031985Y007442D03*
D416*
X033235Y007506D03*
X029396Y007319D03*
X029396Y007315D03*
D417*
X029854Y007487D03*
X029854Y007492D03*
X029873Y007438D03*
X030001Y007492D03*
X030247Y008186D03*
X030252Y008200D03*
X030252Y008205D03*
X030252Y008210D03*
X030257Y008220D03*
X030257Y008225D03*
X030257Y008230D03*
X030257Y008235D03*
X030257Y008240D03*
X030257Y008245D03*
X030257Y008250D03*
X030262Y008254D03*
X030262Y008259D03*
X030262Y008264D03*
X030262Y008269D03*
X030262Y008274D03*
X030262Y008279D03*
X030262Y008284D03*
X030262Y008289D03*
X030262Y008294D03*
X030262Y008299D03*
X030262Y008304D03*
X030262Y008309D03*
X030262Y008314D03*
X030262Y008318D03*
X030262Y008323D03*
X030262Y008328D03*
X030262Y008333D03*
X030262Y008338D03*
X030257Y008348D03*
X030257Y008353D03*
X030257Y008358D03*
X030257Y008363D03*
X030257Y008368D03*
X030257Y008373D03*
X030252Y008382D03*
X030252Y008387D03*
X030252Y008392D03*
X030247Y008407D03*
X030469Y008368D03*
X030469Y008363D03*
X030469Y008358D03*
X030469Y008353D03*
X030469Y008348D03*
X030469Y008343D03*
X030469Y008338D03*
X030469Y008254D03*
X030469Y008250D03*
X030469Y008245D03*
X030469Y008240D03*
X030469Y008235D03*
X030469Y008230D03*
X030469Y008225D03*
X030484Y008427D03*
X030991Y008171D03*
X031320Y008195D03*
X031320Y008200D03*
X031330Y008240D03*
X031330Y008245D03*
X031330Y008250D03*
X031330Y008254D03*
X031330Y008259D03*
X031330Y008264D03*
X031330Y008269D03*
X031330Y008274D03*
X031330Y008279D03*
X031330Y008284D03*
X031330Y008289D03*
X031330Y008309D03*
X031330Y008314D03*
X031330Y008318D03*
X031330Y008323D03*
X031330Y008328D03*
X031330Y008333D03*
X031330Y008338D03*
X031330Y008343D03*
X031330Y008348D03*
X031330Y008353D03*
X031320Y008397D03*
X031320Y008402D03*
X031537Y008358D03*
X031537Y008353D03*
X031537Y008348D03*
X031537Y008343D03*
X031537Y008338D03*
X031537Y008333D03*
X031537Y008328D03*
X031537Y008323D03*
X031537Y008318D03*
X031537Y008314D03*
X031537Y008309D03*
X031537Y008304D03*
X031537Y008299D03*
X031537Y008294D03*
X031537Y008289D03*
X031537Y008284D03*
X031537Y008279D03*
X031537Y008274D03*
X031537Y008269D03*
X031537Y008264D03*
X031537Y008259D03*
X031537Y008254D03*
X031537Y008250D03*
X031537Y008245D03*
X031537Y008240D03*
X031542Y008230D03*
X031542Y008225D03*
X031542Y008220D03*
X031542Y008215D03*
X031542Y008210D03*
X031547Y008200D03*
X031547Y008195D03*
X031547Y008191D03*
X031552Y008176D03*
X031542Y008368D03*
X031542Y008373D03*
X031542Y008378D03*
X031542Y008382D03*
X031547Y008397D03*
X031547Y008402D03*
X031552Y008417D03*
X031970Y008486D03*
X032393Y008387D03*
X032393Y008382D03*
X032393Y008378D03*
X032393Y008215D03*
X032393Y008210D03*
X032393Y008205D03*
X032383Y008171D03*
X032930Y008018D03*
X032127Y007511D03*
X032127Y007506D03*
X032127Y007472D03*
X032127Y007349D03*
X031074Y007334D03*
X030902Y007319D03*
X030902Y007546D03*
X031050Y007536D03*
X031050Y007531D03*
X029982Y008314D03*
X029829Y008545D03*
X029411Y008417D03*
X029401Y008378D03*
X029401Y008373D03*
X029401Y008368D03*
X029401Y008363D03*
X029401Y008358D03*
X029401Y008240D03*
X029401Y008235D03*
X029401Y008230D03*
X029401Y008225D03*
X029401Y008220D03*
X029401Y008215D03*
X029411Y008176D03*
D418*
X030390Y007319D03*
X031478Y007492D03*
X031478Y007497D03*
D419*
X031099Y007413D03*
X031099Y007408D03*
X031025Y007452D03*
X031025Y007457D03*
X030927Y007457D03*
X030927Y007452D03*
X030927Y007447D03*
X030927Y007442D03*
X030927Y007438D03*
X030927Y007433D03*
X030927Y007428D03*
X030927Y007423D03*
X030927Y007418D03*
X030927Y007413D03*
X030927Y007408D03*
X030927Y007403D03*
X030927Y007462D03*
X030774Y007521D03*
X030774Y007344D03*
X029893Y007319D03*
X029869Y007383D03*
X029869Y007388D03*
X029750Y007442D03*
X029982Y008289D03*
X030813Y008417D03*
X031867Y007497D03*
X032939Y008038D03*
D420*
X032381Y008156D03*
X032381Y008161D03*
X032381Y008166D03*
X032381Y008427D03*
X032381Y008432D03*
X032381Y008437D03*
X031564Y008456D03*
X031318Y008412D03*
X031318Y008407D03*
X031318Y008191D03*
X031318Y008186D03*
X031318Y008181D03*
X031564Y008141D03*
X031564Y008136D03*
X031072Y007329D03*
X031072Y007324D03*
X030235Y008146D03*
X030235Y008151D03*
X030235Y008446D03*
X030481Y008422D03*
X030481Y008417D03*
X030481Y008412D03*
X030491Y008446D03*
X030491Y008451D03*
X029399Y008353D03*
X029399Y008245D03*
D421*
X030904Y007324D03*
X032401Y008264D03*
X032401Y008328D03*
X032401Y008333D03*
D422*
X031473Y007511D03*
X030390Y007324D03*
D423*
X029999Y007339D03*
X029891Y007324D03*
X029886Y007329D03*
X029871Y007369D03*
X029871Y007374D03*
X029871Y007379D03*
X029748Y007447D03*
X029748Y007452D03*
X031023Y007447D03*
X031101Y007423D03*
X031101Y007418D03*
X031864Y007492D03*
X030998Y008191D03*
X032947Y008186D03*
X033316Y008186D03*
D424*
X033149Y008200D03*
X033158Y008033D03*
X033149Y008018D03*
X033527Y008028D03*
X033527Y008033D03*
X033532Y008048D03*
X033527Y008186D03*
X033798Y008254D03*
X033798Y008259D03*
X033798Y008264D03*
X033798Y008269D03*
X033788Y008294D03*
X033783Y008309D03*
X033808Y008225D03*
X033808Y008220D03*
X033808Y008215D03*
X033808Y008004D03*
X033808Y007999D03*
X033798Y007964D03*
X033798Y007959D03*
X033798Y007954D03*
X033798Y007949D03*
X033788Y007925D03*
X033783Y007910D03*
X032691Y007890D03*
X032681Y007915D03*
X032681Y007920D03*
X032676Y007930D03*
X032676Y007935D03*
X032676Y007940D03*
X032671Y007944D03*
X032671Y007949D03*
X032671Y007954D03*
X032666Y007964D03*
X032666Y007969D03*
X032666Y007974D03*
X032651Y008077D03*
X032666Y008250D03*
X032666Y008254D03*
X032671Y008264D03*
X032671Y008269D03*
X032671Y008274D03*
X032676Y008279D03*
X032676Y008284D03*
X032676Y008289D03*
X032681Y008299D03*
X032681Y008304D03*
X032691Y008328D03*
X032287Y008008D03*
X032282Y008004D03*
X032277Y007999D03*
X032273Y007994D03*
X031864Y007566D03*
X031987Y007447D03*
X031977Y007438D03*
X031958Y007329D03*
X031657Y007999D03*
X031648Y008008D03*
X031643Y008013D03*
X031638Y008018D03*
X031967Y008510D03*
X031967Y008565D03*
X031269Y008501D03*
X031224Y008579D03*
X031219Y008584D03*
X031214Y008589D03*
X031205Y008599D03*
X030589Y008599D03*
X030585Y008594D03*
X030580Y008589D03*
X030575Y008584D03*
X030147Y008589D03*
X030142Y008594D03*
X029964Y008417D03*
X029969Y008407D03*
X029974Y008397D03*
X029984Y008220D03*
X029974Y008181D03*
X029974Y008176D03*
X029969Y008171D03*
X030142Y008004D03*
X030147Y008008D03*
X030137Y007999D03*
X030132Y007994D03*
X030516Y008117D03*
X030575Y008013D03*
X030580Y008008D03*
X030777Y007482D03*
X030777Y007393D03*
X030777Y007388D03*
X030777Y007383D03*
X029886Y007452D03*
X029851Y007536D03*
X029851Y007541D03*
X029748Y007324D03*
X029507Y008008D03*
X029502Y008013D03*
X029664Y008200D03*
X029654Y008225D03*
X029654Y008230D03*
X029654Y008235D03*
X029654Y008240D03*
X029650Y008245D03*
X029650Y008250D03*
X029650Y008254D03*
X029650Y008259D03*
X029650Y008264D03*
X029650Y008269D03*
X029650Y008274D03*
X029650Y008304D03*
X029650Y008318D03*
X029650Y008323D03*
X029650Y008328D03*
X029650Y008333D03*
X029650Y008338D03*
X029650Y008343D03*
X029654Y008353D03*
X029654Y008358D03*
X029654Y008363D03*
X029664Y008387D03*
X029664Y008392D03*
X029669Y008402D03*
X029507Y008584D03*
D425*
X029399Y007334D03*
X029399Y007329D03*
X029399Y007324D03*
X031967Y008717D03*
X033862Y007447D03*
D426*
X033685Y007329D03*
D427*
X033272Y007329D03*
X033198Y007329D03*
X033030Y007910D03*
X033400Y007910D03*
X031997Y007910D03*
X031918Y007989D03*
X031116Y007467D03*
X031008Y007398D03*
X030772Y007575D03*
X030870Y008008D03*
X030919Y008008D03*
X029822Y008136D03*
X029905Y007487D03*
X029915Y007487D03*
D428*
X032711Y007329D03*
D429*
X032132Y007516D03*
X031867Y007531D03*
X031079Y007349D03*
X031045Y007516D03*
X031045Y007521D03*
X030907Y007536D03*
X030907Y007541D03*
X030907Y007329D03*
X032939Y008200D03*
X033308Y008200D03*
D430*
X030390Y007329D03*
D431*
X029750Y007334D03*
X029750Y007329D03*
X029499Y008018D03*
X029494Y008023D03*
X029647Y008279D03*
X029647Y008284D03*
X029647Y008289D03*
X029647Y008294D03*
X029647Y008299D03*
X029647Y008309D03*
X029647Y008314D03*
X029652Y008348D03*
X029485Y008560D03*
X029494Y008574D03*
X029499Y008579D03*
X029972Y008402D03*
X029977Y008392D03*
X029977Y008387D03*
X029977Y008382D03*
X029977Y008191D03*
X029977Y008186D03*
X030154Y008018D03*
X030159Y008023D03*
X030164Y008028D03*
X030169Y008033D03*
X030562Y008023D03*
X030567Y008018D03*
X030562Y008569D03*
X030567Y008574D03*
X030164Y008569D03*
X030159Y008574D03*
X030154Y008579D03*
X031227Y008574D03*
X031237Y008565D03*
X031635Y008574D03*
X031640Y008579D03*
X031645Y008584D03*
X031630Y008028D03*
X031635Y008023D03*
X031227Y008018D03*
X031222Y008013D03*
X031217Y008008D03*
X031985Y007452D03*
X031955Y007339D03*
X031955Y007334D03*
X032295Y008018D03*
X032305Y008028D03*
X032654Y008033D03*
X032654Y008028D03*
X032654Y008023D03*
X032654Y008038D03*
X032654Y008043D03*
X032654Y008048D03*
X032654Y008053D03*
X032654Y008058D03*
X032654Y008063D03*
X032654Y008072D03*
X032654Y008151D03*
X032654Y008156D03*
X032654Y008161D03*
X032654Y008166D03*
X032654Y008171D03*
X032654Y008176D03*
X032654Y008181D03*
X032654Y008186D03*
X032654Y008191D03*
X032654Y008195D03*
X032664Y008235D03*
X032664Y008240D03*
X032664Y008245D03*
X032669Y008259D03*
X032664Y007984D03*
X032664Y007979D03*
X032669Y007959D03*
X033156Y008028D03*
X033161Y008038D03*
X033161Y008043D03*
X033166Y008053D03*
X033166Y008058D03*
X033166Y008063D03*
X033166Y008161D03*
X033166Y008166D03*
X033161Y008176D03*
X033161Y008181D03*
X033156Y008186D03*
X033156Y008191D03*
X033304Y008215D03*
X033304Y008004D03*
X033530Y008038D03*
X033530Y008043D03*
X033535Y008053D03*
X033535Y008058D03*
X033535Y008063D03*
X033540Y008072D03*
X033540Y008077D03*
X033540Y008082D03*
X033540Y008087D03*
X033540Y008092D03*
X033540Y008097D03*
X033540Y008102D03*
X033540Y008107D03*
X033540Y008112D03*
X033540Y008117D03*
X033540Y008122D03*
X033540Y008127D03*
X033540Y008131D03*
X033540Y008136D03*
X033540Y008141D03*
X033540Y008146D03*
X033535Y008156D03*
X033535Y008161D03*
X033535Y008166D03*
X033535Y008171D03*
X033530Y008176D03*
X033530Y008181D03*
X033810Y008191D03*
X033810Y008195D03*
X033810Y008200D03*
X033810Y008205D03*
X033810Y008210D03*
X033815Y008186D03*
X033815Y008181D03*
X033815Y008176D03*
X033815Y008171D03*
X033815Y008166D03*
X033815Y008161D03*
X033815Y008156D03*
X033815Y008151D03*
X033815Y008146D03*
X033815Y008141D03*
X033815Y008136D03*
X033815Y008082D03*
X033815Y008077D03*
X033815Y008072D03*
X033815Y008067D03*
X033815Y008063D03*
X033815Y008058D03*
X033815Y008053D03*
X033815Y008048D03*
X033815Y008043D03*
X033815Y008038D03*
X033815Y008033D03*
X033810Y008028D03*
X033810Y008023D03*
X033810Y008018D03*
X033810Y008013D03*
X033810Y008008D03*
X033801Y007969D03*
X032295Y008579D03*
X032290Y008584D03*
X032285Y008589D03*
D432*
X033712Y007334D03*
D433*
X032688Y007334D03*
D434*
X032135Y007462D03*
X032031Y007566D03*
X031982Y007487D03*
X031982Y007482D03*
X031864Y007526D03*
X031082Y007359D03*
X031082Y007354D03*
X031042Y007506D03*
X031042Y007511D03*
X030909Y007531D03*
X030909Y007334D03*
X030900Y007821D03*
X030993Y008176D03*
X030821Y008427D03*
X031967Y008481D03*
X031967Y008594D03*
X033237Y008752D03*
X029871Y007428D03*
D435*
X030385Y007526D03*
X030390Y007334D03*
X031463Y007546D03*
D436*
X031104Y007428D03*
X031020Y007438D03*
X031020Y007442D03*
X031867Y007487D03*
X033412Y008309D03*
X029982Y008284D03*
X029750Y007457D03*
X029873Y007364D03*
X029873Y007359D03*
X029873Y007354D03*
X029883Y007339D03*
X029883Y007334D03*
D437*
X033727Y007339D03*
D438*
X032671Y007339D03*
D439*
X032130Y007413D03*
X032130Y007467D03*
X031982Y007472D03*
X031982Y007477D03*
X031864Y007536D03*
X031972Y007821D03*
X031539Y008235D03*
X031333Y008294D03*
X031333Y008299D03*
X031333Y008304D03*
X031047Y007526D03*
X031077Y007344D03*
X031077Y007339D03*
X030466Y008259D03*
X030466Y008264D03*
X030466Y008269D03*
X030466Y008323D03*
X030466Y008328D03*
X030466Y008333D03*
X030260Y008343D03*
X030004Y007511D03*
X030004Y007506D03*
X029871Y007433D03*
D440*
X030912Y007526D03*
X030912Y007339D03*
X030897Y008082D03*
D441*
X031461Y007556D03*
X031461Y007551D03*
X030388Y007521D03*
X030388Y007339D03*
X033232Y007531D03*
D442*
X033163Y008048D03*
X033168Y008067D03*
X033168Y008072D03*
X033168Y008077D03*
X033168Y008082D03*
X033168Y008087D03*
X033168Y008092D03*
X033168Y008136D03*
X033168Y008141D03*
X033168Y008146D03*
X033168Y008151D03*
X033168Y008156D03*
X033163Y008171D03*
X032927Y008008D03*
X032651Y008067D03*
X032651Y008082D03*
X032651Y008087D03*
X032651Y008092D03*
X032651Y008097D03*
X032651Y008102D03*
X032651Y008107D03*
X032651Y008112D03*
X032651Y008117D03*
X032651Y008122D03*
X032651Y008127D03*
X032651Y008131D03*
X032651Y008136D03*
X032651Y008141D03*
X032651Y008146D03*
X032307Y008033D03*
X032322Y008545D03*
X032307Y008565D03*
X031633Y008569D03*
X031628Y008565D03*
X031618Y008550D03*
X031613Y008545D03*
X031274Y008505D03*
X031259Y008535D03*
X031249Y008550D03*
X031244Y008555D03*
X031239Y008560D03*
X030900Y008771D03*
X030555Y008560D03*
X030545Y008550D03*
X030176Y008555D03*
X030171Y008560D03*
X030166Y008565D03*
X029979Y008378D03*
X030176Y008043D03*
X030171Y008038D03*
X030545Y008048D03*
X030555Y008033D03*
X031234Y008028D03*
X031239Y008033D03*
X031244Y008038D03*
X031249Y008048D03*
X031254Y008053D03*
X031613Y008048D03*
X031618Y008043D03*
X031864Y007561D03*
X031972Y007433D03*
X031958Y007413D03*
X030776Y007379D03*
X030776Y007374D03*
X030776Y007492D03*
X029748Y007339D03*
X029487Y008033D03*
X029482Y008038D03*
X029477Y008043D03*
X029472Y008545D03*
X029477Y008550D03*
X029482Y008555D03*
X029487Y008565D03*
X033537Y008151D03*
X033537Y008067D03*
X033818Y008087D03*
X033818Y008092D03*
X033818Y008097D03*
X033818Y008102D03*
X033818Y008107D03*
X033818Y008112D03*
X033818Y008117D03*
X033818Y008122D03*
X033818Y008127D03*
X033818Y008131D03*
D443*
X032467Y007566D03*
X029401Y007349D03*
X029401Y007344D03*
X029401Y007339D03*
D444*
X033739Y007344D03*
D445*
X032659Y007344D03*
D446*
X031953Y007349D03*
X031953Y007354D03*
X031953Y007344D03*
X031953Y007398D03*
X031953Y007403D03*
X032302Y008569D03*
X033173Y008122D03*
X033173Y008117D03*
X033173Y008102D03*
X030560Y008028D03*
X030511Y008112D03*
X030181Y008048D03*
X030181Y008545D03*
X029492Y008569D03*
D447*
X029212Y008865D03*
X029832Y008038D03*
X029866Y007418D03*
X029748Y007408D03*
X029999Y007344D03*
X030914Y007344D03*
X031087Y007369D03*
X031087Y007374D03*
X031037Y007492D03*
X031037Y007497D03*
X030914Y007521D03*
X031864Y007516D03*
X031987Y007502D03*
X031987Y007497D03*
X032022Y007561D03*
X032942Y008195D03*
X034049Y008865D03*
D448*
X032516Y007477D03*
X031458Y007561D03*
X030390Y007344D03*
D449*
X029878Y007349D03*
X029878Y007344D03*
D450*
X033749Y007349D03*
D451*
X032649Y007349D03*
D452*
X031990Y007506D03*
X031990Y007511D03*
X030917Y007516D03*
X030917Y007511D03*
X030917Y007354D03*
X030917Y007349D03*
X030892Y008013D03*
X030892Y008023D03*
X030892Y008033D03*
X030892Y008043D03*
X030892Y008053D03*
X030892Y008058D03*
X030892Y008067D03*
X030892Y008077D03*
X030892Y008515D03*
X030892Y008520D03*
X030892Y008525D03*
X030892Y008530D03*
X030892Y008535D03*
X030892Y008540D03*
X030892Y008545D03*
X030892Y008550D03*
X030892Y008555D03*
X030892Y008565D03*
X030892Y008569D03*
D453*
X029982Y008299D03*
X030006Y007521D03*
X029750Y007418D03*
X029750Y007413D03*
X030774Y007349D03*
X030774Y007516D03*
X031035Y007487D03*
X031089Y007383D03*
X031089Y007379D03*
X032934Y008028D03*
X033304Y008028D03*
D454*
X030388Y007349D03*
D455*
X029999Y007349D03*
X031967Y008589D03*
D456*
X032337Y008072D03*
X031864Y007551D03*
X031274Y008082D03*
X031274Y008510D03*
X030890Y008510D03*
X030831Y008432D03*
X030521Y008510D03*
X030521Y008082D03*
X029748Y007354D03*
X029748Y007349D03*
X029453Y008077D03*
X029453Y008082D03*
X029453Y008515D03*
D457*
X033759Y007354D03*
D458*
X032639Y007354D03*
X030439Y007418D03*
D459*
X030774Y007354D03*
X030774Y007511D03*
D460*
X030390Y007354D03*
X030897Y008688D03*
D461*
X031967Y007880D03*
X033232Y008712D03*
X029827Y007880D03*
X029403Y007359D03*
X029403Y007354D03*
D462*
X033769Y007359D03*
D463*
X032632Y007359D03*
D464*
X032398Y008225D03*
X032398Y008230D03*
X032398Y008235D03*
X032398Y008240D03*
X032398Y008245D03*
X032398Y008250D03*
X032398Y008254D03*
X032403Y008259D03*
X032403Y008269D03*
X032403Y008274D03*
X032403Y008279D03*
X032403Y008284D03*
X032403Y008289D03*
X032403Y008294D03*
X032403Y008299D03*
X032403Y008304D03*
X032403Y008309D03*
X032403Y008314D03*
X032403Y008318D03*
X032403Y008323D03*
X032398Y008338D03*
X032398Y008343D03*
X032398Y008348D03*
X032398Y008353D03*
X032398Y008358D03*
X032398Y008363D03*
X032398Y008368D03*
X031315Y008417D03*
X030479Y008407D03*
X030464Y008318D03*
X030464Y008314D03*
X030464Y008309D03*
X030464Y008304D03*
X030464Y008299D03*
X030464Y008294D03*
X030464Y008289D03*
X030464Y008284D03*
X030464Y008279D03*
X030464Y008274D03*
X030774Y007506D03*
X030774Y007359D03*
X029396Y008250D03*
X029396Y008254D03*
X029396Y008259D03*
X029396Y008264D03*
X029396Y008269D03*
X029396Y008274D03*
X029396Y008279D03*
X029396Y008284D03*
X029396Y008289D03*
X029396Y008294D03*
X029396Y008299D03*
X029396Y008304D03*
X029396Y008309D03*
X029396Y008314D03*
X029396Y008318D03*
X029396Y008323D03*
X029396Y008328D03*
X029396Y008333D03*
X029396Y008338D03*
X029396Y008343D03*
X029396Y008348D03*
X033299Y008018D03*
D465*
X033232Y007526D03*
X031967Y007905D03*
X030383Y007492D03*
X030383Y007487D03*
X030383Y007482D03*
X030388Y007369D03*
X030388Y007364D03*
X030388Y007359D03*
X029827Y007905D03*
X029443Y007566D03*
D466*
X033776Y007364D03*
D467*
X032622Y007364D03*
D468*
X031985Y007492D03*
X031867Y007521D03*
X031084Y007364D03*
X029869Y007423D03*
X029982Y008304D03*
D469*
X029406Y007374D03*
X029406Y007369D03*
X029406Y007364D03*
D470*
X033783Y007369D03*
D471*
X032615Y007369D03*
D472*
X032009Y007546D03*
X032004Y007541D03*
X031999Y007536D03*
X031999Y007531D03*
X031994Y007521D03*
X031867Y007506D03*
X031094Y007398D03*
X031094Y007393D03*
X031030Y007467D03*
X031030Y007472D03*
X030922Y007487D03*
X030922Y007492D03*
X030922Y007497D03*
X030922Y007379D03*
X030922Y007374D03*
X030922Y007369D03*
X029869Y007403D03*
X029750Y007428D03*
X029982Y008294D03*
X029194Y008840D03*
X029199Y008850D03*
X032944Y008191D03*
X032934Y008033D03*
X033313Y008191D03*
X034061Y008850D03*
D473*
X033040Y008304D03*
X032351Y008501D03*
X032332Y008530D03*
X032351Y008097D03*
X031269Y008077D03*
X031269Y008520D03*
X030516Y008505D03*
X030516Y008501D03*
X030516Y008092D03*
X030530Y008067D03*
X030776Y007369D03*
X029448Y008087D03*
X029448Y008505D03*
D474*
X031480Y007487D03*
X033788Y007374D03*
D475*
X032610Y007374D03*
D476*
X030897Y007905D03*
X030385Y007388D03*
X030385Y007383D03*
X030385Y007379D03*
X030385Y007374D03*
X029440Y007551D03*
X029440Y007556D03*
X029440Y007561D03*
X029829Y008692D03*
X030897Y008692D03*
D477*
X033796Y007379D03*
D478*
X032602Y007379D03*
D479*
X031967Y008712D03*
X029408Y007388D03*
X029408Y007383D03*
X029408Y007379D03*
D480*
X033803Y007383D03*
D481*
X032595Y007383D03*
D482*
X033808Y007388D03*
D483*
X032590Y007388D03*
D484*
X031456Y007566D03*
X031967Y008688D03*
X033232Y008692D03*
X033813Y007393D03*
D485*
X032585Y007393D03*
D486*
X030390Y007570D03*
X030306Y007393D03*
D487*
X029866Y007398D03*
X029866Y007393D03*
X031096Y007403D03*
X030998Y008186D03*
D488*
X030897Y007885D03*
X030897Y008712D03*
X029411Y007398D03*
X029411Y007393D03*
D489*
X033818Y007398D03*
D490*
X032580Y007398D03*
D491*
X030311Y007398D03*
D492*
X031967Y008692D03*
X033823Y007403D03*
D493*
X032575Y007403D03*
D494*
X033232Y007556D03*
X031505Y007408D03*
X031505Y007403D03*
D495*
X031114Y007457D03*
X031114Y007462D03*
X031010Y007408D03*
X031010Y007403D03*
X030902Y008008D03*
X031970Y008604D03*
X032954Y008176D03*
X033323Y008176D03*
X029982Y008274D03*
X029942Y007487D03*
D496*
X030412Y007403D03*
D497*
X029827Y007885D03*
X029413Y007413D03*
X029413Y007408D03*
X029413Y007403D03*
D498*
X029433Y007511D03*
X029433Y007516D03*
X029827Y008697D03*
X033828Y007408D03*
D499*
X032570Y007408D03*
D500*
X031955Y007408D03*
X031611Y008053D03*
X031266Y008072D03*
X031266Y008525D03*
X031611Y008540D03*
X032329Y008535D03*
X032329Y008063D03*
X032329Y008058D03*
X030774Y007497D03*
X030528Y008072D03*
X030184Y008053D03*
X030184Y008540D03*
X030528Y008525D03*
D501*
X030422Y007408D03*
X029590Y007575D03*
D502*
X029866Y007413D03*
X029866Y007408D03*
D503*
X033833Y007413D03*
D504*
X033235Y008668D03*
X031502Y007413D03*
D505*
X031864Y007477D03*
X031111Y007452D03*
X031013Y007418D03*
X031013Y007413D03*
X030998Y008200D03*
X029748Y007482D03*
X029748Y007477D03*
X032947Y008048D03*
X033316Y008048D03*
D506*
X030432Y007413D03*
D507*
X029423Y007457D03*
X029423Y007462D03*
X029423Y007467D03*
X033838Y007418D03*
D508*
X032560Y007418D03*
D509*
X031500Y007423D03*
X031500Y007418D03*
D510*
X033235Y008707D03*
X029416Y007428D03*
X029416Y007423D03*
X029416Y007418D03*
D511*
X033842Y007423D03*
D512*
X032556Y007423D03*
D513*
X031015Y007423D03*
X029982Y008279D03*
D514*
X029566Y007570D03*
X030447Y007423D03*
D515*
X033845Y007428D03*
D516*
X032551Y007428D03*
D517*
X031967Y007428D03*
X031623Y008038D03*
X031623Y008560D03*
X031967Y008574D03*
X031967Y008501D03*
X031967Y008771D03*
X032312Y008560D03*
X032312Y008555D03*
X032317Y008550D03*
X032317Y008043D03*
X032312Y008038D03*
X033296Y008008D03*
X030983Y008166D03*
X030550Y008043D03*
X030550Y008038D03*
X030540Y008053D03*
X030550Y008555D03*
X029851Y007531D03*
D518*
X029748Y007467D03*
X029748Y007462D03*
X031018Y007433D03*
X031018Y007428D03*
X031106Y007433D03*
X031106Y007438D03*
X031864Y007482D03*
X030998Y008195D03*
X030811Y008412D03*
X032952Y008181D03*
X032942Y008043D03*
X033040Y008309D03*
X033321Y008181D03*
X033311Y008043D03*
X033237Y007467D03*
D519*
X030454Y007428D03*
D520*
X033850Y007433D03*
D521*
X032548Y007433D03*
D522*
X030459Y007433D03*
D523*
X029418Y007438D03*
X029418Y007433D03*
X029827Y008707D03*
X030900Y008707D03*
X031967Y008707D03*
X031967Y007890D03*
D524*
X033855Y007438D03*
D525*
X032543Y007438D03*
D526*
X031495Y007438D03*
D527*
X033857Y007442D03*
D528*
X033235Y008673D03*
X031493Y007447D03*
X031493Y007442D03*
D529*
X031109Y007447D03*
X031109Y007442D03*
X029750Y007472D03*
D530*
X029421Y007452D03*
X029421Y007447D03*
X029421Y007442D03*
X029829Y007890D03*
X030897Y007890D03*
D531*
X032536Y007447D03*
D532*
X030466Y007447D03*
D533*
X033867Y007452D03*
D534*
X032531Y007452D03*
D535*
X031490Y007457D03*
X031490Y007452D03*
X030388Y007556D03*
D536*
X030469Y007452D03*
D537*
X033870Y007457D03*
D538*
X032528Y007457D03*
D539*
X033232Y008638D03*
X030471Y007462D03*
X030471Y007457D03*
X030388Y007575D03*
D540*
X031141Y008427D03*
X033232Y008717D03*
X033872Y007462D03*
D541*
X032526Y007462D03*
X033235Y008688D03*
D542*
X033407Y008294D03*
X033643Y008520D03*
X033653Y008510D03*
X033658Y008505D03*
X033038Y008294D03*
X032816Y008515D03*
X032821Y008520D03*
X032826Y008525D03*
X031970Y007826D03*
X031734Y007940D03*
X031123Y007935D03*
X030902Y008092D03*
X031128Y008658D03*
X030060Y008658D03*
X029982Y008353D03*
X029593Y007940D03*
X029603Y007935D03*
X029864Y007566D03*
X029903Y007462D03*
X033653Y007708D03*
D543*
X033877Y007467D03*
D544*
X032521Y007467D03*
D545*
X033232Y007585D03*
X033281Y008752D03*
X031864Y007467D03*
X030890Y008008D03*
X030880Y008008D03*
X029748Y007492D03*
D546*
X030388Y007551D03*
X031485Y007472D03*
X031485Y007467D03*
X033232Y008678D03*
D547*
X030474Y007467D03*
D548*
X030031Y007925D03*
X029923Y008136D03*
X029982Y008363D03*
X029829Y008766D03*
X030538Y008141D03*
X030902Y008097D03*
X031104Y007925D03*
X031763Y007925D03*
X032172Y007925D03*
X032856Y007669D03*
X033594Y007659D03*
X033407Y008289D03*
X033599Y008560D03*
X032866Y008560D03*
X031099Y008673D03*
X030897Y008766D03*
X029622Y007925D03*
X029913Y007467D03*
D549*
X029829Y008727D03*
X033879Y007472D03*
D550*
X032519Y007472D03*
D551*
X031867Y007472D03*
X029750Y007487D03*
D552*
X030471Y007472D03*
D553*
X029918Y007472D03*
X029829Y008058D03*
X030016Y008678D03*
X031084Y008678D03*
X031242Y008471D03*
X031783Y008678D03*
X033407Y008284D03*
X033564Y008584D03*
X033559Y007634D03*
D554*
X032492Y007516D03*
X033235Y008702D03*
X029829Y008702D03*
X029426Y007477D03*
X029426Y007472D03*
D555*
X033882Y007477D03*
D556*
X033525Y007615D03*
X033235Y007477D03*
X032939Y007615D03*
X032944Y008609D03*
X031232Y008461D03*
X031064Y008387D03*
X031035Y008373D03*
X031000Y008358D03*
X030991Y008353D03*
X030956Y008338D03*
X030936Y008328D03*
X030912Y008318D03*
X030902Y008314D03*
X030868Y008299D03*
X030858Y008294D03*
X030823Y008279D03*
X030813Y008274D03*
X030779Y008259D03*
X030759Y008250D03*
X030725Y008235D03*
X030557Y008161D03*
D557*
X030122Y007984D03*
X029679Y008171D03*
X029531Y007984D03*
X029679Y008417D03*
X029827Y008540D03*
X030772Y007477D03*
X033764Y007861D03*
X033764Y007866D03*
X033764Y008353D03*
X033764Y008358D03*
D558*
X030924Y007910D03*
X030663Y007477D03*
D559*
X030385Y007497D03*
X030385Y007502D03*
X030385Y007506D03*
X030380Y007477D03*
D560*
X029925Y007477D03*
X029999Y008683D03*
X033035Y008279D03*
X032922Y007625D03*
D561*
X033887Y007482D03*
D562*
X033235Y007482D03*
X032989Y007595D03*
X030907Y008127D03*
X030577Y008181D03*
D563*
X032511Y007482D03*
D564*
X033540Y008599D03*
X030553Y008156D03*
X029829Y008063D03*
X029928Y007482D03*
D565*
X029827Y007895D03*
X029428Y007492D03*
X029428Y007487D03*
X029428Y007482D03*
X031967Y007895D03*
D566*
X033889Y007487D03*
D567*
X033235Y007487D03*
X033407Y008225D03*
X033038Y008225D03*
X033446Y008633D03*
X029824Y008486D03*
D568*
X032509Y007487D03*
D569*
X033892Y007492D03*
D570*
X033235Y007492D03*
X029824Y008122D03*
X029824Y008461D03*
D571*
X032506Y007492D03*
D572*
X033894Y007497D03*
D573*
X033232Y007497D03*
D574*
X032504Y007497D03*
D575*
X033235Y007521D03*
X029431Y007506D03*
X029431Y007502D03*
X029431Y007497D03*
D576*
X033899Y007502D03*
D577*
X033235Y007502D03*
X031970Y008727D03*
X030897Y008727D03*
D578*
X032499Y007502D03*
D579*
X031475Y007506D03*
X031475Y007502D03*
X033232Y008683D03*
D580*
X031040Y007502D03*
D581*
X031967Y008737D03*
X033901Y007506D03*
D582*
X032496Y007506D03*
D583*
X033904Y007511D03*
D584*
X033232Y007511D03*
X032474Y007551D03*
D585*
X032494Y007511D03*
X030900Y007895D03*
D586*
X030385Y007516D03*
X030385Y007511D03*
D587*
X033906Y007516D03*
D588*
X033235Y007516D03*
D589*
X031470Y007521D03*
X031470Y007516D03*
X030388Y007536D03*
D590*
X030004Y007516D03*
X033301Y008023D03*
D591*
X033909Y007521D03*
D592*
X032489Y007521D03*
D593*
X029829Y007900D03*
X029435Y007531D03*
X029435Y007526D03*
X029435Y007521D03*
D594*
X029822Y008466D03*
X030900Y008742D03*
X031967Y008742D03*
X033040Y007585D03*
X033424Y007585D03*
X033911Y007526D03*
D595*
X032487Y007526D03*
D596*
X031468Y007531D03*
X031468Y007526D03*
D597*
X030009Y007526D03*
D598*
X033914Y007531D03*
D599*
X032484Y007531D03*
D600*
X031465Y007536D03*
X031465Y007541D03*
X030388Y007531D03*
D601*
X033916Y007536D03*
D602*
X033232Y007536D03*
D603*
X032482Y007536D03*
D604*
X033232Y008697D03*
X029438Y007546D03*
X029438Y007541D03*
X029438Y007536D03*
D605*
X033919Y007541D03*
D606*
X033235Y007541D03*
D607*
X032479Y007541D03*
D608*
X031864Y007541D03*
X031569Y008127D03*
X031323Y008205D03*
X031323Y008210D03*
X031323Y008387D03*
X031323Y008392D03*
X031569Y008466D03*
X032386Y008422D03*
X032386Y008417D03*
X032386Y008412D03*
X032386Y008181D03*
X032386Y008176D03*
X030496Y008461D03*
X030486Y008437D03*
X030486Y008432D03*
X030471Y008373D03*
X030471Y008220D03*
X030240Y008166D03*
X030240Y008161D03*
X030240Y008156D03*
X030240Y008427D03*
X030240Y008432D03*
X030240Y008437D03*
X029403Y008387D03*
X029403Y008382D03*
X029403Y008210D03*
X029403Y008205D03*
D609*
X030388Y007541D03*
D610*
X029822Y008476D03*
X033921Y007546D03*
D611*
X032477Y007546D03*
D612*
X030388Y007546D03*
D613*
X029824Y008481D03*
X033924Y007551D03*
D614*
X033232Y007551D03*
D615*
X033926Y007556D03*
X029827Y008102D03*
D616*
X032472Y007556D03*
D617*
X032750Y007782D03*
X032745Y007792D03*
X032740Y007797D03*
X032730Y007812D03*
X033129Y008220D03*
X032750Y008437D03*
X032745Y008432D03*
X032740Y008422D03*
X032735Y008417D03*
X032730Y008407D03*
X032243Y008629D03*
X031697Y007964D03*
X031264Y008496D03*
X031165Y008633D03*
X031160Y008638D03*
X030890Y008505D03*
X030629Y008633D03*
X030102Y008629D03*
X030097Y008633D03*
X029945Y008437D03*
X029694Y008437D03*
X029561Y008633D03*
X029566Y008638D03*
X029689Y008156D03*
X029694Y008151D03*
X029551Y007969D03*
X029556Y007964D03*
X029950Y008146D03*
X030097Y007964D03*
X030092Y007959D03*
X029856Y007556D03*
X030629Y007964D03*
X030634Y007959D03*
X031160Y007959D03*
X033714Y007782D03*
X033719Y007792D03*
X033729Y007802D03*
X033729Y007807D03*
X033734Y007812D03*
X033744Y008392D03*
X033734Y008407D03*
X033729Y008417D03*
X033719Y008432D03*
X033714Y008437D03*
D618*
X033929Y007561D03*
D619*
X033235Y007561D03*
D620*
X032469Y007561D03*
X030900Y007880D03*
D621*
X030649Y007949D03*
X030078Y007949D03*
X029861Y007561D03*
X029940Y008441D03*
X029704Y008441D03*
X029581Y008648D03*
X030083Y008643D03*
X030649Y008648D03*
X031259Y008491D03*
X031712Y008643D03*
X031721Y008648D03*
X032214Y008648D03*
X032223Y008643D03*
X032779Y008476D03*
X032784Y008481D03*
X033124Y007999D03*
X032765Y007762D03*
X032218Y007949D03*
X031716Y007949D03*
X033690Y007753D03*
X033695Y007757D03*
X033700Y007762D03*
X033705Y008451D03*
X033700Y008456D03*
X033695Y008461D03*
X033690Y008471D03*
X033685Y008476D03*
D622*
X033931Y007566D03*
D623*
X033232Y007566D03*
X033232Y008658D03*
D624*
X033934Y007570D03*
D625*
X033232Y007570D03*
D626*
X031753Y007570D03*
D627*
X030909Y008141D03*
X030904Y008146D03*
X031205Y008432D03*
X029827Y008092D03*
X033040Y007984D03*
X033936Y007575D03*
D628*
X033232Y007575D03*
X033232Y008648D03*
D629*
X031739Y007575D03*
D630*
X033038Y008240D03*
X033235Y008737D03*
X033938Y007580D03*
D631*
X033235Y007580D03*
D632*
X030927Y007580D03*
D633*
X033040Y007979D03*
X033941Y007590D03*
X033941Y007585D03*
D634*
X030924Y007590D03*
X030924Y007585D03*
D635*
X030895Y008161D03*
X031091Y008412D03*
X029827Y008087D03*
X033409Y007979D03*
X033459Y007590D03*
X033468Y008629D03*
D636*
X033008Y007590D03*
X031970Y008752D03*
X030897Y008752D03*
X030681Y008200D03*
X030897Y008156D03*
X030902Y008151D03*
X030912Y008136D03*
X029824Y008496D03*
X029829Y008752D03*
D637*
X033943Y007595D03*
D638*
X033478Y007595D03*
D639*
X030922Y007595D03*
D640*
X033946Y007600D03*
D641*
X033491Y007600D03*
X032974Y007600D03*
X033038Y007959D03*
X033038Y008259D03*
X033407Y008259D03*
X030907Y008437D03*
X030902Y008446D03*
X029824Y008510D03*
D642*
X030919Y007600D03*
D643*
X033948Y007605D03*
D644*
X033965Y007654D03*
X033503Y007605D03*
X030713Y008225D03*
D645*
X030897Y007836D03*
X032964Y007605D03*
X033963Y007644D03*
X033963Y007649D03*
D646*
X030917Y007605D03*
D647*
X033951Y007615D03*
X033951Y007610D03*
D648*
X033515Y007610D03*
X033407Y008269D03*
X033510Y008614D03*
X033038Y008269D03*
X031970Y008432D03*
X031227Y008456D03*
X030907Y008112D03*
X030720Y008230D03*
X030562Y008166D03*
X030740Y007910D03*
X031055Y007910D03*
X029829Y008067D03*
X029672Y007910D03*
D649*
X029984Y007910D03*
X031810Y007910D03*
X032125Y007910D03*
X031967Y008437D03*
X033040Y007949D03*
X032952Y007610D03*
X033523Y008609D03*
D650*
X030914Y007615D03*
X030914Y007610D03*
D651*
X030700Y008215D03*
X030887Y008466D03*
X033953Y007620D03*
D652*
X033978Y007693D03*
X033535Y007620D03*
X032925Y008599D03*
X032137Y008683D03*
X031970Y008441D03*
X031069Y008683D03*
X029657Y008683D03*
D653*
X030727Y008683D03*
X030900Y008761D03*
X030885Y008486D03*
X030968Y008343D03*
X030924Y008323D03*
X030890Y008309D03*
X030836Y008284D03*
X030801Y008269D03*
X030791Y008264D03*
X030747Y008245D03*
X030737Y008240D03*
X031013Y008363D03*
X031023Y008368D03*
X031800Y008683D03*
X031967Y008761D03*
X032937Y008604D03*
X033532Y008604D03*
X033409Y007944D03*
X032932Y007620D03*
D654*
X030912Y007620D03*
D655*
X030890Y008461D03*
X033956Y007625D03*
D656*
X033980Y007698D03*
X033980Y007703D03*
X033542Y007625D03*
D657*
X030909Y007625D03*
D658*
X033958Y007634D03*
X033958Y007629D03*
D659*
X033552Y007629D03*
X032907Y007634D03*
X032907Y008589D03*
X033557Y008589D03*
X031077Y007915D03*
X030900Y007831D03*
X030904Y008102D03*
X029827Y008525D03*
X029650Y007915D03*
D660*
X029829Y007831D03*
X030006Y007915D03*
X030548Y008151D03*
X031237Y008466D03*
X031788Y007915D03*
X032915Y007629D03*
X033038Y007940D03*
X033412Y007940D03*
X033407Y008279D03*
X033550Y008594D03*
X032915Y008594D03*
D661*
X030907Y007634D03*
X030907Y007629D03*
D662*
X030904Y008117D03*
X031077Y008397D03*
X030885Y008476D03*
X032966Y008619D03*
X033961Y007639D03*
D663*
X033567Y007639D03*
X033409Y007935D03*
X032883Y007649D03*
X033572Y008579D03*
X029640Y008678D03*
X029635Y007920D03*
D664*
X032900Y007639D03*
X032900Y008584D03*
D665*
X030904Y007639D03*
D666*
X031089Y007920D03*
X030705Y007920D03*
X030543Y008146D03*
X030021Y007920D03*
X031773Y007920D03*
X032875Y007654D03*
X033574Y007644D03*
X032885Y008574D03*
D667*
X032893Y008579D03*
X033040Y007935D03*
X032893Y007644D03*
X032154Y008678D03*
D668*
X030902Y007649D03*
X030902Y007644D03*
D669*
X031244Y008476D03*
X030698Y008673D03*
X030028Y008673D03*
X029827Y008530D03*
X029625Y008673D03*
X032169Y008673D03*
X032873Y008565D03*
X032878Y008569D03*
X033232Y008747D03*
X033591Y008565D03*
X033582Y007649D03*
X032868Y007659D03*
X032863Y007664D03*
D670*
X033587Y007654D03*
X033587Y008569D03*
X031766Y008673D03*
X030693Y007925D03*
D671*
X030900Y007654D03*
D672*
X033968Y007664D03*
X033968Y007659D03*
D673*
X030897Y007664D03*
X030897Y007659D03*
D674*
X031111Y008668D03*
X032179Y008668D03*
X032848Y008545D03*
X032858Y008555D03*
X033040Y007930D03*
X033409Y007930D03*
X033606Y007669D03*
X033601Y007664D03*
X033616Y008545D03*
X033611Y008550D03*
X033606Y008555D03*
X029832Y008053D03*
X029615Y008668D03*
D675*
X033970Y007669D03*
D676*
X030895Y007669D03*
D677*
X030769Y008254D03*
X033038Y008274D03*
X033973Y007679D03*
X033973Y007674D03*
D678*
X033619Y007679D03*
X033614Y007674D03*
X032846Y007679D03*
X032841Y007684D03*
X032841Y008540D03*
X033628Y008535D03*
X031251Y008481D03*
X030685Y008668D03*
X030041Y008668D03*
X029923Y008446D03*
X029721Y008136D03*
X029613Y007930D03*
X030041Y007930D03*
D679*
X031967Y008766D03*
X032853Y008550D03*
X032853Y007674D03*
D680*
X030892Y007679D03*
X030892Y007674D03*
D681*
X031057Y008382D03*
X029827Y008520D03*
X029827Y008761D03*
X033040Y007944D03*
X033975Y007689D03*
X033975Y007684D03*
D682*
X033623Y007684D03*
X032836Y007689D03*
X032836Y008535D03*
X033623Y008540D03*
X031753Y007930D03*
X031114Y007930D03*
X030533Y008136D03*
X029982Y008358D03*
D683*
X030890Y007684D03*
D684*
X030887Y007689D03*
X030887Y007693D03*
D685*
X030885Y007698D03*
X030885Y007703D03*
D686*
X030890Y008501D03*
X030053Y007935D03*
X033646Y007703D03*
D687*
X034069Y007708D03*
X034069Y007713D03*
X034069Y007718D03*
X034069Y007723D03*
X034069Y007728D03*
X034069Y007733D03*
X034069Y007738D03*
X034069Y007743D03*
X034069Y007748D03*
X034069Y007753D03*
X034069Y007757D03*
X034069Y007762D03*
X034069Y007767D03*
X034069Y007772D03*
X034069Y007777D03*
X034069Y007782D03*
X034069Y007787D03*
X034069Y007792D03*
X034069Y007797D03*
X034069Y007802D03*
X034069Y007807D03*
X034069Y007812D03*
X034069Y007816D03*
X034069Y007821D03*
X034069Y007826D03*
X034069Y007831D03*
X034069Y007836D03*
X034069Y007841D03*
X034069Y007846D03*
X034069Y007851D03*
X034069Y007856D03*
X034069Y007861D03*
X034069Y007866D03*
X034069Y007871D03*
X034069Y007876D03*
X034069Y007880D03*
X034069Y007885D03*
X034069Y007890D03*
X034069Y007895D03*
X034069Y007900D03*
X034069Y007905D03*
X034069Y007910D03*
X034069Y007915D03*
X034069Y007920D03*
X034069Y007925D03*
X034069Y007930D03*
X034069Y007935D03*
X034069Y007940D03*
X034069Y007944D03*
X034069Y007949D03*
X034069Y007954D03*
X034069Y007959D03*
X034069Y007964D03*
X034069Y007969D03*
X034069Y007974D03*
X034069Y007979D03*
X034069Y007984D03*
X034069Y007989D03*
X034069Y007994D03*
X034069Y007999D03*
X034069Y008004D03*
X034069Y008008D03*
X034069Y008013D03*
X034069Y008018D03*
X034069Y008023D03*
X034069Y008028D03*
X034069Y008033D03*
X034069Y008038D03*
X034069Y008043D03*
X034069Y008048D03*
X034069Y008053D03*
X034069Y008058D03*
X034069Y008063D03*
X034069Y008067D03*
X034069Y008072D03*
X034069Y008077D03*
X034069Y008082D03*
X034069Y008087D03*
X034069Y008092D03*
X034069Y008097D03*
X034069Y008102D03*
X034069Y008107D03*
X034069Y008112D03*
X034069Y008117D03*
X034069Y008122D03*
X034069Y008127D03*
X034069Y008131D03*
X034069Y008136D03*
X034069Y008141D03*
X034069Y008146D03*
X034069Y008151D03*
X034069Y008156D03*
X034069Y008161D03*
X034069Y008166D03*
X034069Y008171D03*
X034069Y008176D03*
X034069Y008181D03*
X034069Y008186D03*
X034069Y008191D03*
X034069Y008195D03*
X034069Y008200D03*
X034069Y008205D03*
X034069Y008210D03*
X034069Y008215D03*
X034069Y008220D03*
X034069Y008225D03*
X034069Y008230D03*
X034069Y008235D03*
X034069Y008240D03*
X034069Y008245D03*
X034069Y008250D03*
X034069Y008254D03*
X034069Y008259D03*
X034069Y008264D03*
X034069Y008269D03*
X034069Y008274D03*
X034069Y008279D03*
X034069Y008284D03*
X034069Y008289D03*
X034069Y008294D03*
X034069Y008299D03*
X034069Y008304D03*
X034069Y008309D03*
X034069Y008314D03*
X034069Y008318D03*
X034069Y008323D03*
X034069Y008328D03*
X034069Y008333D03*
X034069Y008338D03*
X034069Y008343D03*
X034069Y008348D03*
X034069Y008353D03*
X034069Y008358D03*
X034069Y008363D03*
X034069Y008368D03*
X034069Y008373D03*
X034069Y008378D03*
X034069Y008382D03*
X034069Y008387D03*
X034069Y008392D03*
X034069Y008397D03*
X034069Y008402D03*
X034069Y008407D03*
X034069Y008412D03*
X034069Y008417D03*
X034069Y008422D03*
X034069Y008427D03*
X034069Y008432D03*
X034069Y008437D03*
X034069Y008441D03*
X034069Y008446D03*
X034069Y008451D03*
X034069Y008456D03*
X034069Y008461D03*
X034069Y008466D03*
X034069Y008471D03*
X034069Y008476D03*
X034069Y008481D03*
X034069Y008486D03*
X034069Y008491D03*
X034069Y008496D03*
X034069Y008501D03*
X034069Y008505D03*
X034069Y008510D03*
X034069Y008515D03*
X034069Y008520D03*
X034069Y008525D03*
X034069Y008530D03*
X034069Y008535D03*
X034069Y008540D03*
X034069Y008545D03*
X034069Y008550D03*
X034069Y008555D03*
X034069Y008560D03*
X034069Y008565D03*
X034069Y008569D03*
X034069Y008574D03*
X034069Y008579D03*
X034069Y008584D03*
X034069Y008589D03*
X034069Y008594D03*
X034069Y008599D03*
X034069Y008604D03*
X034069Y008609D03*
X034069Y008614D03*
X034069Y008619D03*
X034069Y008624D03*
X034069Y008629D03*
X034069Y008633D03*
X034069Y008638D03*
X034069Y008643D03*
X034069Y008648D03*
X034069Y008653D03*
X034069Y008658D03*
X034069Y008663D03*
X034069Y008668D03*
X034069Y008673D03*
X034069Y008678D03*
X034069Y008683D03*
X034069Y008688D03*
X034069Y008692D03*
X034069Y008697D03*
X034069Y008702D03*
X034069Y008707D03*
X034069Y008712D03*
X034069Y008717D03*
X034069Y008722D03*
X034069Y008727D03*
X034069Y008732D03*
X034069Y008737D03*
X034069Y008742D03*
X034069Y008747D03*
X034069Y008752D03*
X034069Y008756D03*
X034069Y008761D03*
X034069Y008766D03*
X034069Y008771D03*
X034069Y008776D03*
X034069Y008781D03*
X034069Y008786D03*
X034069Y008791D03*
X034069Y008796D03*
X034069Y008801D03*
X034069Y008806D03*
X034069Y008811D03*
X034069Y008816D03*
X034069Y008820D03*
X034069Y008825D03*
X034069Y008830D03*
X034069Y008835D03*
D688*
X033409Y007925D03*
X033655Y007713D03*
X033660Y007718D03*
X033670Y007728D03*
X033040Y007925D03*
X032809Y007713D03*
X032804Y007718D03*
X032799Y007723D03*
X032794Y007728D03*
X032789Y007733D03*
X032804Y008505D03*
X032199Y008658D03*
X031736Y008658D03*
X031131Y007940D03*
X030900Y007826D03*
X030530Y008131D03*
X030063Y007940D03*
X029709Y008141D03*
X029586Y007944D03*
X029595Y008658D03*
X030068Y008653D03*
D689*
X030663Y007940D03*
X033665Y007723D03*
X033665Y008501D03*
D690*
X032777Y007748D03*
X030070Y007944D03*
X029578Y007949D03*
D691*
X030644Y008643D03*
X032775Y008471D03*
X032775Y007753D03*
D692*
X032770Y007757D03*
X032770Y008466D03*
X031146Y008648D03*
X031146Y007949D03*
X029571Y007954D03*
D693*
X033702Y007767D03*
D694*
X033724Y007797D03*
X033724Y008422D03*
D695*
X033136Y008215D03*
X032728Y008402D03*
X032728Y007816D03*
X030621Y007969D03*
X030621Y008629D03*
D696*
X029832Y007821D03*
X032932Y008023D03*
D697*
X032718Y007831D03*
X032718Y008387D03*
X033407Y008299D03*
X033505Y008215D03*
X033505Y008004D03*
X033751Y007841D03*
X033746Y007831D03*
X033751Y008378D03*
X033746Y008387D03*
X031684Y007974D03*
X030110Y007974D03*
X030110Y008624D03*
D698*
X030887Y008491D03*
X031970Y007831D03*
D699*
X032715Y007836D03*
X032715Y007841D03*
X032715Y008378D03*
X032715Y008382D03*
X031682Y008619D03*
X031190Y008614D03*
X030609Y007979D03*
X029960Y008156D03*
X033749Y008382D03*
X033749Y007836D03*
D700*
X033412Y007954D03*
X033407Y008264D03*
X033038Y008264D03*
X033235Y008742D03*
X031970Y008422D03*
X031970Y008417D03*
X031970Y008412D03*
X031970Y008407D03*
X031970Y008402D03*
X031970Y008397D03*
X031970Y008392D03*
X031970Y008387D03*
X031970Y008382D03*
X031970Y008378D03*
X031970Y008373D03*
X031970Y008368D03*
X031970Y008363D03*
X031970Y008358D03*
X031970Y008353D03*
X031970Y008348D03*
X031970Y008343D03*
X031970Y008338D03*
X031970Y008333D03*
X031970Y008328D03*
X031970Y008323D03*
X031970Y008318D03*
X031970Y008314D03*
X031970Y008309D03*
X031970Y008304D03*
X031970Y008299D03*
X031970Y008294D03*
X031970Y008289D03*
X031970Y008284D03*
X031970Y008279D03*
X031970Y008274D03*
X031970Y008269D03*
X031970Y008264D03*
X031970Y008259D03*
X031970Y008254D03*
X031970Y008250D03*
X031970Y008245D03*
X031970Y008240D03*
X031970Y008235D03*
X031970Y008230D03*
X031970Y008225D03*
X031970Y007836D03*
X031222Y008451D03*
X029829Y008072D03*
X029829Y007836D03*
D701*
X029827Y008501D03*
X031967Y007841D03*
D702*
X031212Y008441D03*
X030897Y007841D03*
X029829Y007841D03*
X029829Y008082D03*
X033038Y007969D03*
X033038Y008250D03*
X033407Y008250D03*
X033412Y007969D03*
D703*
X033409Y007994D03*
X033040Y007994D03*
X031967Y007846D03*
X029827Y007846D03*
X029827Y008097D03*
D704*
X030900Y007846D03*
D705*
X030897Y007851D03*
X031970Y007851D03*
X033235Y008732D03*
X029829Y007851D03*
D706*
X029827Y007856D03*
X029822Y008456D03*
X031967Y007856D03*
D707*
X030900Y007856D03*
D708*
X030900Y007861D03*
X031967Y007861D03*
D709*
X029829Y007861D03*
D710*
X030897Y007866D03*
X031970Y007866D03*
D711*
X033235Y008722D03*
X029829Y007866D03*
D712*
X029682Y008422D03*
X030124Y008609D03*
X031207Y007999D03*
X032684Y007910D03*
X032684Y008309D03*
X033141Y008210D03*
X033520Y008200D03*
X033520Y008018D03*
X033766Y007871D03*
X033766Y008348D03*
D713*
X031970Y007871D03*
X029829Y007871D03*
D714*
X030897Y007871D03*
D715*
X030897Y007876D03*
D716*
X031967Y007885D03*
D717*
X031967Y007900D03*
X031967Y008697D03*
X030900Y008697D03*
D718*
X030897Y007900D03*
D719*
X030570Y008579D03*
X031210Y008594D03*
X031652Y008589D03*
X031652Y008004D03*
X032292Y008013D03*
X032686Y007905D03*
X032932Y008004D03*
X032932Y008215D03*
X032686Y008314D03*
X033523Y008195D03*
X033523Y008023D03*
X033803Y007979D03*
X033803Y007974D03*
X033803Y008240D03*
X033803Y008245D03*
X033803Y008250D03*
X029979Y008200D03*
X029979Y008195D03*
X029832Y008043D03*
D720*
X030720Y007915D03*
X032147Y007915D03*
D721*
X032162Y007920D03*
X033579Y008574D03*
D722*
X031756Y008668D03*
X030683Y007930D03*
D723*
X030666Y008658D03*
X031256Y008486D03*
X032191Y007935D03*
X029829Y008535D03*
D724*
X029659Y008382D03*
X029659Y008378D03*
X029659Y008373D03*
X029659Y008215D03*
X029659Y008210D03*
X029512Y008004D03*
X029512Y008589D03*
X030151Y008013D03*
X032661Y007994D03*
X032661Y007989D03*
X032661Y008225D03*
X032661Y008230D03*
X033153Y008195D03*
X033153Y008023D03*
X033793Y007944D03*
X033793Y007940D03*
X033793Y008274D03*
X033793Y008279D03*
X033793Y008284D03*
D725*
X032204Y007940D03*
X030658Y008653D03*
D726*
X030885Y008481D03*
X033409Y007949D03*
D727*
X033040Y007954D03*
X032957Y008614D03*
X031967Y008427D03*
X031072Y008392D03*
X029827Y008515D03*
D728*
X030567Y008171D03*
X033412Y007959D03*
D729*
X033134Y008004D03*
X032238Y007964D03*
X032233Y007959D03*
X032238Y008633D03*
X031692Y008629D03*
D730*
X030907Y008122D03*
X029829Y008077D03*
X029824Y008505D03*
X032979Y008624D03*
X033038Y008254D03*
X033038Y007964D03*
X033412Y007964D03*
X033407Y008254D03*
X033486Y008624D03*
D731*
X033407Y008245D03*
X033412Y007974D03*
X033038Y008245D03*
X032998Y008629D03*
X031207Y008437D03*
X030907Y008131D03*
D732*
X030688Y008205D03*
X033040Y007974D03*
D733*
X033171Y008097D03*
X033171Y008107D03*
X033171Y008112D03*
X033171Y008127D03*
X033171Y008131D03*
X033525Y008191D03*
X033806Y008230D03*
X033806Y008235D03*
X033806Y007994D03*
X033806Y007989D03*
X033806Y007984D03*
X032300Y008023D03*
X032300Y008574D03*
X030558Y008565D03*
X029982Y008373D03*
X029982Y008368D03*
X029982Y008328D03*
X029982Y008215D03*
X029982Y008210D03*
X029982Y008205D03*
X029490Y008028D03*
D734*
X033409Y007984D03*
X033409Y008235D03*
D735*
X033412Y007989D03*
X031094Y008417D03*
D736*
X029824Y008491D03*
X033038Y008230D03*
X033038Y007989D03*
X033407Y008230D03*
D737*
X032275Y008599D03*
X030804Y008166D03*
X030597Y007989D03*
X030582Y008004D03*
X029662Y008205D03*
X029514Y008594D03*
D738*
X033309Y008038D03*
D739*
X030904Y008107D03*
X030880Y008304D03*
D740*
X029827Y008107D03*
D741*
X029827Y008112D03*
D742*
X029824Y008117D03*
D743*
X029824Y008127D03*
X029824Y008131D03*
X033235Y008727D03*
D744*
X030572Y008176D03*
D745*
X030474Y008200D03*
X030474Y008205D03*
X030474Y008210D03*
X030474Y008215D03*
X030474Y008378D03*
X030474Y008382D03*
X030474Y008387D03*
X030474Y008392D03*
X031325Y008382D03*
X031325Y008378D03*
X031325Y008373D03*
X031325Y008368D03*
X031325Y008230D03*
X031325Y008225D03*
X031325Y008220D03*
X031325Y008215D03*
X032388Y008191D03*
X032388Y008186D03*
X032388Y008402D03*
X032388Y008407D03*
X029406Y008402D03*
X029406Y008397D03*
X029406Y008392D03*
X029406Y008200D03*
X029406Y008195D03*
D746*
X030639Y008186D03*
D747*
X030634Y008191D03*
X030634Y008195D03*
D748*
X033311Y008195D03*
D749*
X031087Y008407D03*
X030693Y008210D03*
D750*
X030708Y008220D03*
X033498Y008619D03*
D751*
X033035Y008235D03*
D752*
X033407Y008240D03*
D753*
X033407Y008274D03*
X031045Y008378D03*
X030981Y008348D03*
X030946Y008333D03*
X030848Y008289D03*
D754*
X030710Y008678D03*
X033038Y008284D03*
D755*
X033038Y008289D03*
D756*
X029982Y008309D03*
D757*
X029827Y008756D03*
X030885Y008471D03*
X030895Y008456D03*
X030904Y008441D03*
X031082Y008402D03*
X031219Y008446D03*
X031967Y008756D03*
D758*
X030809Y008407D03*
D759*
X031096Y008422D03*
X031967Y008747D03*
X033021Y008633D03*
D760*
X034054Y008860D03*
X030816Y008422D03*
D761*
X030900Y008451D03*
X030900Y008756D03*
D762*
X029822Y008451D03*
D763*
X031967Y008471D03*
D764*
X029822Y008471D03*
D765*
X030887Y008496D03*
D766*
X032811Y008510D03*
X033648Y008515D03*
D767*
X033232Y008643D03*
D768*
X033232Y008653D03*
D769*
X032206Y008653D03*
D770*
X029827Y008688D03*
D771*
X030897Y008702D03*
X031970Y008702D03*
D772*
X029827Y008712D03*
D773*
X029829Y008717D03*
X030897Y008717D03*
D774*
X030897Y008722D03*
X031970Y008722D03*
X029829Y008722D03*
D775*
X029829Y008732D03*
X030897Y008732D03*
X031970Y008732D03*
D776*
X030897Y008737D03*
X029829Y008737D03*
D777*
X029827Y008742D03*
D778*
X030897Y008747D03*
D779*
X029829Y008747D03*
D780*
X034066Y008840D03*
D781*
X031630Y008870D03*
X031630Y008875D03*
D782*
X031630Y008879D03*
D783*
X031630Y008884D03*
D784*
X031630Y008889D03*
D785*
X031630Y008894D03*
D786*
X031630Y008899D03*
D787*
X031630Y008904D03*
D788*
X031630Y008909D03*
M02*
