G75*
G70*
%OFA0B0*%
%FSLAX24Y24*%
%IPPOS*%
%LPD*%
%AMOC8*
5,1,8,0,0,1.08239X$1,22.5*
%
%ADD10C,0.0000*%
%ADD11R,0.0630X0.0710*%
%ADD12R,0.0394X0.0551*%
%ADD13R,0.0551X0.0394*%
%ADD14R,0.0236X0.0866*%
%ADD15R,0.0580X0.0090*%
%ADD16R,0.0090X0.0580*%
%ADD17R,0.0984X0.0787*%
%ADD18R,0.1299X0.0787*%
%ADD19R,0.1220X0.0197*%
%ADD20R,0.0710X0.0630*%
%ADD21R,0.0472X0.0217*%
%ADD22R,0.0591X0.0787*%
%ADD23R,0.0315X0.0984*%
%ADD24R,0.0984X0.0315*%
%ADD25R,0.0591X0.0591*%
%ADD26R,0.0787X0.0591*%
D10*
X001089Y000191D02*
X001089Y039562D01*
X040459Y039562D01*
X040459Y000191D01*
X001089Y000191D01*
X002432Y003316D02*
X002434Y003341D01*
X002440Y003365D01*
X002449Y003387D01*
X002462Y003408D01*
X002478Y003427D01*
X002497Y003443D01*
X002518Y003456D01*
X002540Y003465D01*
X002564Y003471D01*
X002589Y003473D01*
X002614Y003471D01*
X002638Y003465D01*
X002660Y003456D01*
X002681Y003443D01*
X002700Y003427D01*
X002716Y003408D01*
X002729Y003387D01*
X002738Y003365D01*
X002744Y003341D01*
X002746Y003316D01*
X002744Y003291D01*
X002738Y003267D01*
X002729Y003245D01*
X002716Y003224D01*
X002700Y003205D01*
X002681Y003189D01*
X002660Y003176D01*
X002638Y003167D01*
X002614Y003161D01*
X002589Y003159D01*
X002564Y003161D01*
X002540Y003167D01*
X002518Y003176D01*
X002497Y003189D01*
X002478Y003205D01*
X002462Y003224D01*
X002449Y003245D01*
X002440Y003267D01*
X002434Y003291D01*
X002432Y003316D01*
X012682Y003316D02*
X012684Y003341D01*
X012690Y003365D01*
X012699Y003387D01*
X012712Y003408D01*
X012728Y003427D01*
X012747Y003443D01*
X012768Y003456D01*
X012790Y003465D01*
X012814Y003471D01*
X012839Y003473D01*
X012864Y003471D01*
X012888Y003465D01*
X012910Y003456D01*
X012931Y003443D01*
X012950Y003427D01*
X012966Y003408D01*
X012979Y003387D01*
X012988Y003365D01*
X012994Y003341D01*
X012996Y003316D01*
X012994Y003291D01*
X012988Y003267D01*
X012979Y003245D01*
X012966Y003224D01*
X012950Y003205D01*
X012931Y003189D01*
X012910Y003176D01*
X012888Y003167D01*
X012864Y003161D01*
X012839Y003159D01*
X012814Y003161D01*
X012790Y003167D01*
X012768Y003176D01*
X012747Y003189D01*
X012728Y003205D01*
X012712Y003224D01*
X012699Y003245D01*
X012690Y003267D01*
X012684Y003291D01*
X012682Y003316D01*
X035948Y011292D02*
X035950Y011334D01*
X035956Y011376D01*
X035966Y011418D01*
X035979Y011458D01*
X035997Y011497D01*
X036018Y011534D01*
X036042Y011568D01*
X036070Y011601D01*
X036100Y011631D01*
X036133Y011657D01*
X036168Y011681D01*
X036206Y011701D01*
X036245Y011717D01*
X036285Y011730D01*
X036327Y011739D01*
X036369Y011744D01*
X036412Y011745D01*
X036454Y011742D01*
X036496Y011735D01*
X036537Y011724D01*
X036577Y011709D01*
X036615Y011691D01*
X036652Y011669D01*
X036686Y011644D01*
X036718Y011616D01*
X036746Y011585D01*
X036772Y011551D01*
X036795Y011515D01*
X036814Y011478D01*
X036830Y011438D01*
X036842Y011397D01*
X036850Y011356D01*
X036854Y011313D01*
X036854Y011271D01*
X036850Y011228D01*
X036842Y011187D01*
X036830Y011146D01*
X036814Y011106D01*
X036795Y011069D01*
X036772Y011033D01*
X036746Y010999D01*
X036718Y010968D01*
X036686Y010940D01*
X036652Y010915D01*
X036615Y010893D01*
X036577Y010875D01*
X036537Y010860D01*
X036496Y010849D01*
X036454Y010842D01*
X036412Y010839D01*
X036369Y010840D01*
X036327Y010845D01*
X036285Y010854D01*
X036245Y010867D01*
X036206Y010883D01*
X036168Y010903D01*
X036133Y010927D01*
X036100Y010953D01*
X036070Y010983D01*
X036042Y011016D01*
X036018Y011050D01*
X035997Y011087D01*
X035979Y011126D01*
X035966Y011166D01*
X035956Y011208D01*
X035950Y011250D01*
X035948Y011292D01*
X037912Y009058D02*
X037914Y009084D01*
X037920Y009110D01*
X037930Y009135D01*
X037943Y009158D01*
X037959Y009178D01*
X037979Y009196D01*
X038001Y009211D01*
X038024Y009223D01*
X038050Y009231D01*
X038076Y009235D01*
X038102Y009235D01*
X038128Y009231D01*
X038154Y009223D01*
X038178Y009211D01*
X038199Y009196D01*
X038219Y009178D01*
X038235Y009158D01*
X038248Y009135D01*
X038258Y009110D01*
X038264Y009084D01*
X038266Y009058D01*
X038264Y009032D01*
X038258Y009006D01*
X038248Y008981D01*
X038235Y008958D01*
X038219Y008938D01*
X038199Y008920D01*
X038177Y008905D01*
X038154Y008893D01*
X038128Y008885D01*
X038102Y008881D01*
X038076Y008881D01*
X038050Y008885D01*
X038024Y008893D01*
X038000Y008905D01*
X037979Y008920D01*
X037959Y008938D01*
X037943Y008958D01*
X037930Y008981D01*
X037920Y009006D01*
X037914Y009032D01*
X037912Y009058D01*
X037912Y007325D02*
X037914Y007351D01*
X037920Y007377D01*
X037930Y007402D01*
X037943Y007425D01*
X037959Y007445D01*
X037979Y007463D01*
X038001Y007478D01*
X038024Y007490D01*
X038050Y007498D01*
X038076Y007502D01*
X038102Y007502D01*
X038128Y007498D01*
X038154Y007490D01*
X038178Y007478D01*
X038199Y007463D01*
X038219Y007445D01*
X038235Y007425D01*
X038248Y007402D01*
X038258Y007377D01*
X038264Y007351D01*
X038266Y007325D01*
X038264Y007299D01*
X038258Y007273D01*
X038248Y007248D01*
X038235Y007225D01*
X038219Y007205D01*
X038199Y007187D01*
X038177Y007172D01*
X038154Y007160D01*
X038128Y007152D01*
X038102Y007148D01*
X038076Y007148D01*
X038050Y007152D01*
X038024Y007160D01*
X038000Y007172D01*
X037979Y007187D01*
X037959Y007205D01*
X037943Y007225D01*
X037930Y007248D01*
X037920Y007273D01*
X037914Y007299D01*
X037912Y007325D01*
X035948Y016466D02*
X035950Y016508D01*
X035956Y016550D01*
X035966Y016592D01*
X035979Y016632D01*
X035997Y016671D01*
X036018Y016708D01*
X036042Y016742D01*
X036070Y016775D01*
X036100Y016805D01*
X036133Y016831D01*
X036168Y016855D01*
X036206Y016875D01*
X036245Y016891D01*
X036285Y016904D01*
X036327Y016913D01*
X036369Y016918D01*
X036412Y016919D01*
X036454Y016916D01*
X036496Y016909D01*
X036537Y016898D01*
X036577Y016883D01*
X036615Y016865D01*
X036652Y016843D01*
X036686Y016818D01*
X036718Y016790D01*
X036746Y016759D01*
X036772Y016725D01*
X036795Y016689D01*
X036814Y016652D01*
X036830Y016612D01*
X036842Y016571D01*
X036850Y016530D01*
X036854Y016487D01*
X036854Y016445D01*
X036850Y016402D01*
X036842Y016361D01*
X036830Y016320D01*
X036814Y016280D01*
X036795Y016243D01*
X036772Y016207D01*
X036746Y016173D01*
X036718Y016142D01*
X036686Y016114D01*
X036652Y016089D01*
X036615Y016067D01*
X036577Y016049D01*
X036537Y016034D01*
X036496Y016023D01*
X036454Y016016D01*
X036412Y016013D01*
X036369Y016014D01*
X036327Y016019D01*
X036285Y016028D01*
X036245Y016041D01*
X036206Y016057D01*
X036168Y016077D01*
X036133Y016101D01*
X036100Y016127D01*
X036070Y016157D01*
X036042Y016190D01*
X036018Y016224D01*
X035997Y016261D01*
X035979Y016300D01*
X035966Y016340D01*
X035956Y016382D01*
X035950Y016424D01*
X035948Y016466D01*
D11*
X032148Y028691D03*
X032148Y029691D03*
X032148Y030691D03*
X031029Y030691D03*
X031029Y029691D03*
X031029Y028691D03*
X029148Y034691D03*
X028029Y034691D03*
X010648Y017191D03*
X010648Y016191D03*
X009529Y016191D03*
X009529Y017191D03*
X018029Y006191D03*
X019148Y006191D03*
D12*
X031214Y031758D03*
X031963Y031758D03*
X031589Y032625D03*
D13*
X031280Y027753D03*
X031280Y027005D03*
X032147Y027379D03*
D14*
X029839Y028668D03*
X029339Y028668D03*
X028839Y028668D03*
X028339Y028668D03*
X028339Y030715D03*
X028839Y030715D03*
X029339Y030715D03*
X029839Y030715D03*
D15*
X019758Y025767D03*
X019758Y025607D03*
X019758Y025447D03*
X019758Y025297D03*
X019758Y025137D03*
X019758Y024977D03*
X019758Y024817D03*
X019758Y024667D03*
X019758Y024507D03*
X019758Y024347D03*
X019758Y024187D03*
X019758Y024037D03*
X019758Y023877D03*
X019758Y023717D03*
X019758Y023567D03*
X019758Y023407D03*
X019758Y023247D03*
X019758Y023087D03*
X019758Y022937D03*
X019758Y022777D03*
X019758Y022617D03*
X019758Y022457D03*
X019758Y022307D03*
X019758Y022147D03*
X019758Y021987D03*
X014538Y021987D03*
X014538Y022147D03*
X014538Y022307D03*
X014538Y022457D03*
X014538Y022617D03*
X014538Y022777D03*
X014538Y022937D03*
X014538Y023087D03*
X014538Y023247D03*
X014538Y023407D03*
X014538Y023567D03*
X014538Y023717D03*
X014538Y023877D03*
X014538Y024037D03*
X014538Y024187D03*
X014538Y024347D03*
X014538Y024507D03*
X014538Y024667D03*
X014538Y024817D03*
X014538Y024977D03*
X014538Y025137D03*
X014538Y025297D03*
X014538Y025447D03*
X014538Y025607D03*
X014538Y025767D03*
D16*
X015258Y026487D03*
X015418Y026487D03*
X015578Y026487D03*
X015728Y026487D03*
X015888Y026487D03*
X016048Y026487D03*
X016208Y026487D03*
X016358Y026487D03*
X016518Y026487D03*
X016678Y026487D03*
X016838Y026487D03*
X016988Y026487D03*
X017148Y026487D03*
X017308Y026487D03*
X017458Y026487D03*
X017618Y026487D03*
X017778Y026487D03*
X017938Y026487D03*
X018088Y026487D03*
X018248Y026487D03*
X018408Y026487D03*
X018568Y026487D03*
X018718Y026487D03*
X018878Y026487D03*
X019038Y026487D03*
X019038Y021267D03*
X018878Y021267D03*
X018718Y021267D03*
X018568Y021267D03*
X018408Y021267D03*
X018248Y021267D03*
X018088Y021267D03*
X017938Y021267D03*
X017778Y021267D03*
X017618Y021267D03*
X017458Y021267D03*
X017308Y021267D03*
X017148Y021267D03*
X016988Y021267D03*
X016838Y021267D03*
X016678Y021267D03*
X016518Y021267D03*
X016358Y021267D03*
X016208Y021267D03*
X016048Y021267D03*
X015888Y021267D03*
X015728Y021267D03*
X015578Y021267D03*
X015418Y021267D03*
X015258Y021267D03*
D17*
X039270Y009943D03*
X039270Y006440D03*
D18*
X036947Y006440D03*
X036947Y009943D03*
D19*
X036907Y008821D03*
X036907Y008506D03*
X036907Y008191D03*
X036907Y007877D03*
X036907Y007562D03*
D20*
X035089Y007632D03*
X035089Y008751D03*
X020589Y009132D03*
X020589Y010251D03*
X020589Y011632D03*
X020589Y012751D03*
X019089Y012751D03*
X019089Y011632D03*
X017589Y011632D03*
X017589Y012751D03*
X016089Y012751D03*
X016089Y011632D03*
X014589Y011632D03*
X014589Y012751D03*
D21*
X033077Y014317D03*
X033077Y015066D03*
X034100Y015066D03*
X034100Y014691D03*
X034100Y014317D03*
D22*
X034179Y012691D03*
X032998Y012691D03*
D23*
X011339Y012066D03*
X010339Y013066D03*
X009339Y013066D03*
X008339Y013066D03*
X007339Y013066D03*
X006339Y013066D03*
X005339Y013066D03*
X004339Y013066D03*
X003714Y013066D03*
X003089Y013066D03*
X002464Y013066D03*
D24*
X001964Y003816D03*
D25*
X014589Y009003D03*
X014589Y010380D03*
X016089Y010380D03*
X016089Y009003D03*
X017589Y009003D03*
X017589Y010380D03*
X019089Y010380D03*
X019089Y009003D03*
X017777Y004191D03*
X016400Y004191D03*
X035650Y018473D03*
X037028Y018473D03*
D26*
X020776Y005970D03*
X020776Y004788D03*
M02*
