G75*
G70*
%OFA0B0*%
%FSLAX24Y24*%
%IPPOS*%
%LPD*%
%AMOC8*
5,1,8,0,0,1.08239X$1,22.5*
%
%ADD10C,0.0000*%
%ADD11R,0.0630X0.0710*%
%ADD12R,0.2441X0.2283*%
%ADD13R,0.1181X0.0630*%
%ADD14R,0.0591X0.0787*%
%ADD15R,0.0787X0.0591*%
%ADD16R,0.0710X0.0630*%
D10*
X001089Y000191D02*
X001089Y039562D01*
X040459Y039562D01*
X040459Y000191D01*
X001089Y000191D01*
X002432Y003316D02*
X002434Y003341D01*
X002440Y003365D01*
X002449Y003387D01*
X002462Y003408D01*
X002478Y003427D01*
X002497Y003443D01*
X002518Y003456D01*
X002540Y003465D01*
X002564Y003471D01*
X002589Y003473D01*
X002614Y003471D01*
X002638Y003465D01*
X002660Y003456D01*
X002681Y003443D01*
X002700Y003427D01*
X002716Y003408D01*
X002729Y003387D01*
X002738Y003365D01*
X002744Y003341D01*
X002746Y003316D01*
X002744Y003291D01*
X002738Y003267D01*
X002729Y003245D01*
X002716Y003224D01*
X002700Y003205D01*
X002681Y003189D01*
X002660Y003176D01*
X002638Y003167D01*
X002614Y003161D01*
X002589Y003159D01*
X002564Y003161D01*
X002540Y003167D01*
X002518Y003176D01*
X002497Y003189D01*
X002478Y003205D01*
X002462Y003224D01*
X002449Y003245D01*
X002440Y003267D01*
X002434Y003291D01*
X002432Y003316D01*
X012682Y003316D02*
X012684Y003341D01*
X012690Y003365D01*
X012699Y003387D01*
X012712Y003408D01*
X012728Y003427D01*
X012747Y003443D01*
X012768Y003456D01*
X012790Y003465D01*
X012814Y003471D01*
X012839Y003473D01*
X012864Y003471D01*
X012888Y003465D01*
X012910Y003456D01*
X012931Y003443D01*
X012950Y003427D01*
X012966Y003408D01*
X012979Y003387D01*
X012988Y003365D01*
X012994Y003341D01*
X012996Y003316D01*
X012994Y003291D01*
X012988Y003267D01*
X012979Y003245D01*
X012966Y003224D01*
X012950Y003205D01*
X012931Y003189D01*
X012910Y003176D01*
X012888Y003167D01*
X012864Y003161D01*
X012839Y003159D01*
X012814Y003161D01*
X012790Y003167D01*
X012768Y003176D01*
X012747Y003189D01*
X012728Y003205D01*
X012712Y003224D01*
X012699Y003245D01*
X012690Y003267D01*
X012684Y003291D01*
X012682Y003316D01*
X035948Y011292D02*
X035950Y011334D01*
X035956Y011376D01*
X035966Y011418D01*
X035979Y011458D01*
X035997Y011497D01*
X036018Y011534D01*
X036042Y011568D01*
X036070Y011601D01*
X036100Y011631D01*
X036133Y011657D01*
X036168Y011681D01*
X036206Y011701D01*
X036245Y011717D01*
X036285Y011730D01*
X036327Y011739D01*
X036369Y011744D01*
X036412Y011745D01*
X036454Y011742D01*
X036496Y011735D01*
X036537Y011724D01*
X036577Y011709D01*
X036615Y011691D01*
X036652Y011669D01*
X036686Y011644D01*
X036718Y011616D01*
X036746Y011585D01*
X036772Y011551D01*
X036795Y011515D01*
X036814Y011478D01*
X036830Y011438D01*
X036842Y011397D01*
X036850Y011356D01*
X036854Y011313D01*
X036854Y011271D01*
X036850Y011228D01*
X036842Y011187D01*
X036830Y011146D01*
X036814Y011106D01*
X036795Y011069D01*
X036772Y011033D01*
X036746Y010999D01*
X036718Y010968D01*
X036686Y010940D01*
X036652Y010915D01*
X036615Y010893D01*
X036577Y010875D01*
X036537Y010860D01*
X036496Y010849D01*
X036454Y010842D01*
X036412Y010839D01*
X036369Y010840D01*
X036327Y010845D01*
X036285Y010854D01*
X036245Y010867D01*
X036206Y010883D01*
X036168Y010903D01*
X036133Y010927D01*
X036100Y010953D01*
X036070Y010983D01*
X036042Y011016D01*
X036018Y011050D01*
X035997Y011087D01*
X035979Y011126D01*
X035966Y011166D01*
X035956Y011208D01*
X035950Y011250D01*
X035948Y011292D01*
X037912Y009058D02*
X037914Y009084D01*
X037920Y009110D01*
X037930Y009135D01*
X037943Y009158D01*
X037959Y009178D01*
X037979Y009196D01*
X038001Y009211D01*
X038024Y009223D01*
X038050Y009231D01*
X038076Y009235D01*
X038102Y009235D01*
X038128Y009231D01*
X038154Y009223D01*
X038178Y009211D01*
X038199Y009196D01*
X038219Y009178D01*
X038235Y009158D01*
X038248Y009135D01*
X038258Y009110D01*
X038264Y009084D01*
X038266Y009058D01*
X038264Y009032D01*
X038258Y009006D01*
X038248Y008981D01*
X038235Y008958D01*
X038219Y008938D01*
X038199Y008920D01*
X038177Y008905D01*
X038154Y008893D01*
X038128Y008885D01*
X038102Y008881D01*
X038076Y008881D01*
X038050Y008885D01*
X038024Y008893D01*
X038000Y008905D01*
X037979Y008920D01*
X037959Y008938D01*
X037943Y008958D01*
X037930Y008981D01*
X037920Y009006D01*
X037914Y009032D01*
X037912Y009058D01*
X037912Y007325D02*
X037914Y007351D01*
X037920Y007377D01*
X037930Y007402D01*
X037943Y007425D01*
X037959Y007445D01*
X037979Y007463D01*
X038001Y007478D01*
X038024Y007490D01*
X038050Y007498D01*
X038076Y007502D01*
X038102Y007502D01*
X038128Y007498D01*
X038154Y007490D01*
X038178Y007478D01*
X038199Y007463D01*
X038219Y007445D01*
X038235Y007425D01*
X038248Y007402D01*
X038258Y007377D01*
X038264Y007351D01*
X038266Y007325D01*
X038264Y007299D01*
X038258Y007273D01*
X038248Y007248D01*
X038235Y007225D01*
X038219Y007205D01*
X038199Y007187D01*
X038177Y007172D01*
X038154Y007160D01*
X038128Y007152D01*
X038102Y007148D01*
X038076Y007148D01*
X038050Y007152D01*
X038024Y007160D01*
X038000Y007172D01*
X037979Y007187D01*
X037959Y007205D01*
X037943Y007225D01*
X037930Y007248D01*
X037920Y007273D01*
X037914Y007299D01*
X037912Y007325D01*
X035948Y016466D02*
X035950Y016508D01*
X035956Y016550D01*
X035966Y016592D01*
X035979Y016632D01*
X035997Y016671D01*
X036018Y016708D01*
X036042Y016742D01*
X036070Y016775D01*
X036100Y016805D01*
X036133Y016831D01*
X036168Y016855D01*
X036206Y016875D01*
X036245Y016891D01*
X036285Y016904D01*
X036327Y016913D01*
X036369Y016918D01*
X036412Y016919D01*
X036454Y016916D01*
X036496Y016909D01*
X036537Y016898D01*
X036577Y016883D01*
X036615Y016865D01*
X036652Y016843D01*
X036686Y016818D01*
X036718Y016790D01*
X036746Y016759D01*
X036772Y016725D01*
X036795Y016689D01*
X036814Y016652D01*
X036830Y016612D01*
X036842Y016571D01*
X036850Y016530D01*
X036854Y016487D01*
X036854Y016445D01*
X036850Y016402D01*
X036842Y016361D01*
X036830Y016320D01*
X036814Y016280D01*
X036795Y016243D01*
X036772Y016207D01*
X036746Y016173D01*
X036718Y016142D01*
X036686Y016114D01*
X036652Y016089D01*
X036615Y016067D01*
X036577Y016049D01*
X036537Y016034D01*
X036496Y016023D01*
X036454Y016016D01*
X036412Y016013D01*
X036369Y016014D01*
X036327Y016019D01*
X036285Y016028D01*
X036245Y016041D01*
X036206Y016057D01*
X036168Y016077D01*
X036133Y016101D01*
X036100Y016127D01*
X036070Y016157D01*
X036042Y016190D01*
X036018Y016224D01*
X035997Y016261D01*
X035979Y016300D01*
X035966Y016340D01*
X035956Y016382D01*
X035950Y016424D01*
X035948Y016466D01*
D11*
X035810Y018473D03*
X036930Y018473D03*
X030148Y036191D03*
X029029Y036191D03*
X007586Y028004D03*
X006466Y028004D03*
X003711Y011191D03*
X002591Y011191D03*
D12*
X003151Y008941D03*
X003151Y005379D03*
D13*
X005978Y004481D03*
X005978Y006277D03*
X005978Y008044D03*
X005978Y009839D03*
D14*
X017498Y022691D03*
X018679Y022691D03*
X016679Y025129D03*
X015498Y025129D03*
X021998Y026191D03*
X023179Y026191D03*
X023179Y022191D03*
X021998Y022191D03*
X028998Y030691D03*
X030179Y030691D03*
D15*
X023089Y030282D03*
X022089Y030282D03*
X022089Y029101D03*
X023089Y029101D03*
X018589Y025282D03*
X018589Y024101D03*
X015589Y023782D03*
X015589Y022601D03*
X010088Y009220D03*
X010088Y008038D03*
X008089Y008038D03*
X008088Y007032D03*
X008088Y005851D03*
X008089Y009220D03*
D16*
X033589Y013632D03*
X033589Y014751D03*
M02*
